SplineFontDB: 3.2
FontName: IRNazanin-Bold
FullName: IRNazanin-Bold
FamilyName: IRNazanin
Weight: Bold
Copyright: Copyright (c) 2022, Information Technology Organization of Iran (ito.gov.ir)
Version: 1.000
ItalicAngle: 0
UnderlinePosition: -710
UnderlineWidth: 60
Ascent: 1638
Descent: 410
InvalidEm: 0
sfntRevision: 0x00010000
LayerCount: 2
Layer: 0 1 "Back" 1
Layer: 1 1 "Fore" 0
XUID: [1021 420 722297922 3131993]
StyleMap: 0x0020
FSType: 0
OS2Version: 3
OS2_WeightWidthSlopeOnly: 0
OS2_UseTypoMetrics: 0
CreationTime: 1356417648
ModificationTime: 1662630185
PfmFamily: 17
TTFWeight: 700
TTFWidth: 5
LineGap: 0
VLineGap: 0
Panose: 2 0 8 6 0 0 0 2 0 2
OS2TypoAscent: 1990
OS2TypoAOffset: 0
OS2TypoDescent: -1045
OS2TypoDOffset: 0
OS2TypoLinegap: 0
OS2WinAscent: 1990
OS2WinAOffset: 0
OS2WinDescent: 1045
OS2WinDOffset: 0
HheadAscent: 1343
HheadAOffset: 0
HheadDescent: -705
HheadDOffset: 0
OS2SubXSize: 1434
OS2SubYSize: 1331
OS2SubXOff: 0
OS2SubYOff: 293
OS2SupXSize: 1434
OS2SupYSize: 1331
OS2SupXOff: 0
OS2SupYOff: 928
OS2StrikeYSize: 102
OS2StrikeYPos: 530
OS2CapHeight: -1
OS2XHeight: -1
OS2FamilyClass: 2048
OS2Vendor: 'PARS'
OS2CodePages: 20000041.00000000
OS2UnicodeRanges: 00002003.00000000.00000000.00000000
Lookup: 1 1 0 "'isol' Isolated Forms in Arabic lookup 0" { "'isol' Isolated Forms in Arabic lookup 0 subtable"  } ['isol' ('arab' <'dflt' > ) ]
Lookup: 1 1 0 "'init' Initial Forms in Arabic lookup 1" { "'init' Initial Forms in Arabic lookup 1 subtable"  } ['init' ('arab' <'dflt' > ) ]
Lookup: 1 1 0 "'medi' Medial Forms in Arabic lookup 2" { "'medi' Medial Forms in Arabic lookup 2 subtable"  } ['medi' ('arab' <'dflt' > ) ]
Lookup: 1 1 0 "'fina' Terminal Forms in Arabic lookup 3" { "'fina' Terminal Forms in Arabic lookup 3 subtable"  } ['fina' ('arab' <'dflt' > ) ]
Lookup: 4 1 0 "'ccmp' Glyph Composition/Decomposition in Arabic lookup 4" { "'ccmp' Glyph Composition/Decomposition in Arabic lookup 4 subtable"  } ['ccmp' ('arab' <'dflt' > ) ]

StartChar: quotedbl
Encoding: 34 34 1
Width: 608
Flags: W
LayerCount: 2
Fore
SplineSet
382 1088 m 1,0,-1
 382 1097 l 2,1,2
 382 1108 382 1108 388 1119.5 c 128,-1,3
 394 1131 394 1131 403.5 1140 c 128,-1,4
 413 1149 413 1149 426 1155 c 128,-1,5
 439 1161 439 1161 453 1161 c 0,6,7
 466 1161 466 1161 478.5 1155 c 128,-1,8
 491 1149 491 1149 500.5 1140 c 128,-1,9
 510 1131 510 1131 515.5 1119.5 c 128,-1,10
 521 1108 521 1108 521 1097 c 2,11,-1
 521 1088 l 1,12,-1
 468 770 l 1,13,-1
 436 770 l 1,14,-1
 382 1088 l 1,0,-1
84 1088 m 1,15,-1
 84 1097 l 2,16,17
 84 1108 84 1108 90 1119.5 c 128,-1,18
 96 1131 96 1131 106 1140 c 128,-1,19
 116 1149 116 1149 128.5 1155 c 128,-1,20
 141 1161 141 1161 155 1161 c 256,21,22
 169 1161 169 1161 182 1155 c 128,-1,23
 195 1149 195 1149 205 1140 c 128,-1,24
 215 1131 215 1131 221 1119.5 c 128,-1,25
 227 1108 227 1108 227 1097 c 2,26,-1
 227 1088 l 1,27,-1
 171 770 l 1,28,-1
 140 770 l 1,29,-1
 84 1088 l 1,15,-1
EndSplineSet
EndChar

StartChar: numbersign
Encoding: 35 35 2
Width: 869
Flags: W
LayerCount: 2
Fore
SplineSet
76 -23 m 1,0,-1
 149 337 l 1,1,-1
 34 337 l 1,2,-1
 34 448 l 1,3,-1
 172 448 l 1,4,-1
 222 697 l 1,5,-1
 34 697 l 1,6,-1
 34 808 l 1,7,-1
 244 808 l 1,8,-1
 317 1174 l 1,9,-1
 430 1174 l 1,10,-1
 354 808 l 1,11,-1
 605 808 l 1,12,-1
 678 1174 l 1,13,-1
 791 1174 l 1,14,-1
 714 808 l 1,15,-1
 834 808 l 1,16,-1
 834 697 l 1,17,-1
 693 697 l 1,18,-1
 643 448 l 1,19,-1
 834 448 l 1,20,-1
 834 337 l 1,21,-1
 622 337 l 1,22,-1
 550 -23 l 1,23,-1
 436 -23 l 1,24,-1
 509 337 l 1,25,-1
 263 337 l 1,26,-1
 187 -23 l 1,27,-1
 76 -23 l 1,0,-1
284 448 m 1,28,-1
 533 448 l 1,29,-1
 584 697 l 1,30,-1
 333 697 l 1,31,-1
 284 448 l 1,28,-1
EndSplineSet
EndChar

StartChar: dollar
Encoding: 36 36 3
Width: 869
Flags: W
LayerCount: 2
Fore
SplineSet
480 709 m 1,0,1
 683 581 683 581 740 516 c 0,2,3
 814 426 814 426 814 307 c 0,4,5
 814 177 814 177 726 86.5 c 128,-1,6
 638 -4 638 -4 480 -18 c 1,7,-1
 480 -117 l 1,8,-1
 406 -117 l 1,9,-1
 406 -23 l 1,10,11
 316 -22 316 -22 246.5 -9 c 128,-1,12
 177 4 177 4 87 39 c 1,13,-1
 87 313 l 1,14,-1
 123 313 l 1,15,16
 140 219 140 219 176.5 161.5 c 128,-1,17
 213 104 213 104 269 75 c 128,-1,18
 325 46 325 46 406 39 c 1,19,-1
 406 458 l 1,20,21
 201 586 201 586 134 663.5 c 128,-1,22
 67 741 67 741 67 842 c 0,23,24
 67 953 67 953 151.5 1037 c 128,-1,25
 236 1121 236 1121 406 1143 c 1,26,-1
 406 1182 l 1,27,-1
 480 1182 l 1,28,-1
 480 1143 l 1,29,30
 625 1132 625 1132 771 1054 c 1,31,-1
 771 809 l 1,32,-1
 738 809 l 1,33,34
 712 891 712 891 678 945 c 128,-1,35
 644 999 644 999 590 1037 c 0,36,37
 549 1064 549 1064 480 1083 c 1,38,-1
 480 709 l 1,0,1
406 1085 m 1,39,40
 346 1080 346 1080 307 1052 c 0,41,42
 248 1007 248 1007 248 943 c 0,43,44
 248 904 248 904 276 864.5 c 128,-1,45
 304 825 304 825 406 756 c 1,46,-1
 406 1085 l 1,39,40
480 39 m 1,47,48
 553 56 553 56 587.5 97 c 128,-1,49
 622 138 622 138 622 200 c 0,50,51
 622 253 622 253 592 300.5 c 128,-1,52
 562 348 562 348 480 406 c 1,53,-1
 480 39 l 1,47,48
EndSplineSet
EndChar

StartChar: percent
Encoding: 37 37 4
Width: 1738
Flags: W
LayerCount: 2
Fore
SplineSet
1335 1178 m 1,0,-1
 518 -49 l 1,1,-1
 404 -49 l 1,2,-1
 1220 1178 l 1,3,-1
 1335 1178 l 1,0,-1
405 1178 m 0,4,5
 527 1178 527 1178 609 1092.5 c 128,-1,6
 691 1007 691 1007 691 872 c 0,7,8
 691 734 691 734 608 648 c 128,-1,9
 525 562 525 562 402 562 c 0,10,11
 281 562 281 562 201 645 c 128,-1,12
 121 728 121 728 121 863 c 0,13,14
 121 1004 121 1004 203 1091 c 128,-1,15
 285 1178 285 1178 405 1178 c 0,4,5
405 1132 m 0,16,17
 388 1132 388 1132 375 1121 c 0,18,19
 354 1101 354 1101 343.5 1053.5 c 128,-1,20
 333 1006 333 1006 333 855 c 0,21,22
 333 736 333 736 348 670 c 0,23,24
 356 634 356 634 375 615 c 0,25,26
 389 604 389 604 405 604 c 0,27,28
 424 604 424 604 435 614 c 0,29,30
 456 631 456 631 465 671 c 0,31,32
 478 736 478 736 478 852 c 0,33,34
 478 995 478 995 465 1059 c 0,35,36
 456 1102 456 1102 435 1123 c 0,37,38
 424 1132 424 1132 405 1132 c 0,16,17
1329 570 m 0,39,40
 1452 570 1452 570 1535.5 486 c 128,-1,41
 1619 402 1619 402 1619 264 c 0,42,43
 1619 125 1619 125 1534.5 38 c 128,-1,44
 1450 -49 1450 -49 1330 -49 c 0,45,46
 1213 -49 1213 -49 1130 38 c 128,-1,47
 1047 125 1047 125 1047 262 c 256,48,49
 1047 399 1047 399 1127.5 484.5 c 128,-1,50
 1208 570 1208 570 1329 570 c 0,39,40
1331 525 m 0,51,52
 1314 525 1314 525 1303 516 c 0,53,54
 1283 497 1283 497 1271.5 450.5 c 128,-1,55
 1260 404 1260 404 1260 273 c 0,56,57
 1260 134 1260 134 1273 73 c 0,58,59
 1283 30 1283 30 1305 11 c 0,60,61
 1315 0 1315 0 1335 0 c 0,62,63
 1349 0 1349 0 1360 10 c 0,64,65
 1381 29 1381 29 1391 73 c 0,66,67
 1407 135 1407 135 1407 262 c 0,68,69
 1407 392 1407 392 1392 455 c 0,70,71
 1381 498 1381 498 1361 516 c 0,72,73
 1351 525 1351 525 1331 525 c 0,51,52
EndSplineSet
EndChar

StartChar: ampersand
Encoding: 38 38 5
Width: 1449
Flags: W
LayerCount: 2
Fore
SplineSet
990 689 m 1,0,-1
 1344 689 l 1,1,-1
 1344 656 l 1,2,3
 1284 648 1284 648 1250.5 621 c 128,-1,4
 1217 594 1217 594 1162 496.5 c 128,-1,5
 1107 399 1107 399 1008 278 c 1,6,7
 1095 199 1095 199 1149 169 c 0,8,9
 1187 147 1187 147 1224 147 c 0,10,11
 1287 147 1287 147 1338 230 c 1,12,-1
 1373 211 l 1,13,14
 1303 74 1303 74 1224 17 c 0,15,16
 1164 -27 1164 -27 1086 -27 c 0,17,18
 1021 -27 1021 -27 961 2 c 128,-1,19
 901 31 901 31 815 108 c 1,20,21
 709 37 709 37 615.5 5 c 128,-1,22
 522 -27 522 -27 422 -27 c 0,23,24
 260 -27 260 -27 165 60.5 c 128,-1,25
 70 148 70 148 70 266 c 0,26,27
 70 393 70 393 161 488 c 128,-1,28
 252 583 252 583 424 651 c 1,29,30
 402 707 402 707 391.5 759.5 c 128,-1,31
 381 812 381 812 381 861 c 0,32,33
 381 996 381 996 476 1087 c 128,-1,34
 571 1178 571 1178 720 1178 c 0,35,36
 840 1178 840 1178 909.5 1118 c 128,-1,37
 979 1058 979 1058 979 978 c 0,38,39
 979 882 979 882 907.5 813.5 c 128,-1,40
 836 745 836 745 681 689 c 1,41,42
 777 519 777 519 961 325 c 1,43,44
 1086 465 1086 465 1086 564 c 0,45,46
 1086 601 1086 601 1062 625.5 c 128,-1,47
 1038 650 1038 650 990 656 c 1,48,-1
 990 689 l 1,0,-1
651 740 m 1,49,50
 741 773 741 773 771.5 810.5 c 128,-1,51
 802 848 802 848 802 902 c 0,52,53
 802 996 802 996 753 1062 c 0,54,55
 720 1106 720 1106 670 1106 c 0,56,57
 630 1106 630 1106 601.5 1074 c 128,-1,58
 573 1042 573 1042 573 989 c 0,59,60
 573 948 573 948 587 900 c 128,-1,61
 601 852 601 852 651 740 c 1,49,50
447 596 m 1,62,63
 381 567 381 567 352 535 c 0,64,65
 312 488 312 488 312 430 c 0,66,67
 312 350 312 350 358.5 271 c 128,-1,68
 405 192 405 192 470 148.5 c 128,-1,69
 535 105 535 105 601 105 c 0,70,71
 634 105 634 105 673.5 119.5 c 128,-1,72
 713 134 713 134 762 161 c 1,73,74
 556 371 556 371 447 596 c 1,62,63
EndSplineSet
EndChar

StartChar: quotesingle
Encoding: 39 39 6
Width: 349
Flags: W
LayerCount: 2
Fore
SplineSet
129 1206 m 1,0,-1
 221 1206 l 1,1,-1
 201 913 l 1,2,-1
 140 913 l 1,3,-1
 129 1206 l 1,0,-1
EndSplineSet
EndChar

StartChar: asterisk
Encoding: 42 42 7
Width: 704
Flags: W
LayerCount: 2
Fore
SplineSet
391 649 m 1,0,-1
 391 518 l 2,1,2
 391 505 391 505 384 496 c 128,-1,3
 377 487 377 487 363 487 c 2,4,-1
 317 487 l 2,5,6
 309 487 309 487 299.5 496 c 128,-1,7
 290 505 290 505 290 518 c 2,8,-1
 290 649 l 1,9,-1
 201 557 l 1,10,11
 176 541 176 541 149 557 c 1,12,-1
 121 587 l 2,13,14
 105 608 105 608 126 632 c 2,15,-1
 218 725 l 1,16,-1
 87 725 l 2,17,18
 75 725 75 725 63.5 733.5 c 128,-1,19
 52 742 52 742 52 756 c 2,20,-1
 52 802 l 2,21,22
 52 811 52 811 63.5 819 c 128,-1,23
 75 827 75 827 87 827 c 2,24,-1
 210 827 l 1,25,-1
 121 919 l 2,26,27
 108 930 108 930 107 943 c 128,-1,28
 106 956 106 956 116 969 c 2,29,-1
 149 997 l 2,30,31
 158 1006 158 1006 169.5 1005.5 c 128,-1,32
 181 1005 181 1005 192 992 c 2,33,-1
 290 896 l 1,34,-1
 290 1038 l 2,35,36
 290 1049 290 1049 299.5 1059.5 c 128,-1,37
 309 1070 309 1070 317 1070 c 2,38,-1
 363 1070 l 2,39,40
 377 1070 377 1070 384 1059.5 c 128,-1,41
 391 1049 391 1049 391 1038 c 2,42,-1
 391 902 l 1,43,-1
 489 997 l 2,44,45
 500 1010 500 1010 510.5 1011 c 128,-1,46
 521 1012 521 1012 539 1005 c 1,47,-1
 562 969 l 1,48,49
 572 962 572 962 572 950.5 c 128,-1,50
 572 939 572 939 561 925 c 2,51,-1
 466 827 l 1,52,-1
 608 827 l 2,53,54
 617 827 617 827 628 819 c 128,-1,55
 639 811 639 811 639 802 c 2,56,-1
 639 756 l 2,57,58
 639 742 639 742 628 733.5 c 128,-1,59
 617 725 617 725 608 725 c 2,60,-1
 459 725 l 1,61,-1
 561 632 l 1,62,63
 578 608 578 608 561 580 c 1,64,-1
 533 551 l 2,65,66
 512 535 512 535 489 557 c 2,67,-1
 391 649 l 1,0,-1
EndSplineSet
EndChar

StartChar: plus
Encoding: 43 43 8
Width: 898
Flags: W
LayerCount: 2
Fore
SplineSet
389 417 m 1,0,-1
 131 417 l 1,1,-1
 131 549 l 1,2,-1
 389 549 l 1,3,-1
 389 810 l 1,4,-1
 520 810 l 1,5,-1
 520 549 l 1,6,-1
 790 549 l 1,7,-1
 790 417 l 1,8,-1
 520 417 l 1,9,-1
 520 157 l 1,10,-1
 389 157 l 1,11,-1
 389 417 l 1,0,-1
EndSplineSet
EndChar

StartChar: hyphen
Encoding: 45 45 9
Width: 910
Flags: W
LayerCount: 2
Fore
SplineSet
131 417 m 1,0,-1
 131 549 l 1,1,-1
 790 549 l 1,2,-1
 790 417 l 1,3,-1
 131 417 l 1,0,-1
EndSplineSet
EndChar

StartChar: period
Encoding: 46 46 10
Width: 514
Flags: W
LayerCount: 2
Fore
SplineSet
312 251 m 0,0,1
 365 251 365 251 401.5 214 c 128,-1,2
 438 177 438 177 438 126 c 256,3,4
 438 75 438 75 401 38 c 128,-1,5
 364 1 364 1 312 1 c 0,6,7
 261 1 261 1 224 38 c 128,-1,8
 187 75 187 75 187 126 c 256,9,10
 187 177 187 177 224 214 c 128,-1,11
 261 251 261 251 312 251 c 0,0,1
EndSplineSet
EndChar

StartChar: slash
Encoding: 47 47 11
Width: 730
Flags: W
LayerCount: 2
Fore
SplineSet
647 1081 m 1,0,-1
 246 -156 l 1,1,-1
 115 -156 l 1,2,-1
 516 1081 l 1,3,-1
 647 1081 l 1,0,-1
EndSplineSet
EndChar

StartChar: zero
Encoding: 48 48 12
Width: 869
Flags: W
LayerCount: 2
Fore
SplineSet
806 575 m 0,0,1
 806 403 806 403 757 253 c 0,2,3
 728 162 728 162 679 103.5 c 128,-1,4
 630 45 630 45 569 11 c 128,-1,5
 508 -23 508 -23 434 -23 c 0,6,7
 350 -23 350 -23 283 19 c 128,-1,8
 216 61 216 61 164 140 c 0,9,10
 127 198 127 198 100 295 c 0,11,12
 63 423 63 423 63 563 c 0,13,14
 63 749 63 749 116 905 c 0,15,16
 159 1037 159 1037 247.5 1105.5 c 128,-1,17
 336 1174 336 1174 434 1174 c 0,18,19
 533 1174 533 1174 620.5 1106 c 128,-1,20
 708 1038 708 1038 749 923 c 0,21,22
 806 764 806 764 806 575 c 0,0,1
544 577 m 2,23,24
 544 880 544 880 542 930 c 0,25,26
 532 1047 532 1047 499 1089 c 0,27,28
 478 1116 478 1116 431 1116 c 0,29,30
 394 1116 394 1116 373 1096 c 0,31,32
 341 1066 341 1066 330.5 991 c 128,-1,33
 320 916 320 916 320 466 c 0,34,35
 320 223 320 223 337 139 c 0,36,37
 350 78 350 78 373 58 c 128,-1,38
 396 38 396 38 436 38 c 0,39,40
 478 38 478 38 499 66 c 0,41,42
 535 112 535 112 542 212 c 1,43,-1
 544 577 l 2,23,24
EndSplineSet
EndChar

StartChar: one
Encoding: 49 49 13
Width: 869
Flags: W
LayerCount: 2
Fore
SplineSet
566 1174 m 1,0,-1
 566 233 l 2,1,2
 566 127 566 127 575 98 c 128,-1,3
 584 69 584 69 614 50.5 c 128,-1,4
 644 32 644 32 710 32 c 2,5,-1
 736 32 l 1,6,-1
 736 0 l 1,7,-1
 129 0 l 1,8,-1
 129 32 l 1,9,-1
 160 32 l 2,10,11
 234 32 234 32 265.5 49 c 128,-1,12
 297 66 297 66 308 95.5 c 128,-1,13
 319 125 319 125 319 233 c 2,14,-1
 319 830 l 2,15,16
 319 911 319 911 311.5 930.5 c 128,-1,17
 304 950 304 950 283.5 964 c 128,-1,18
 263 978 263 978 235 978 c 0,19,20
 192 978 192 978 129 951 c 1,21,-1
 114 982 l 1,22,-1
 538 1174 l 1,23,-1
 566 1174 l 1,0,-1
EndSplineSet
EndChar

StartChar: two
Encoding: 50 50 14
Width: 869
Flags: W
LayerCount: 2
Fore
SplineSet
720 0 m 1,0,-1
 42 0 l 1,1,-1
 42 19 l 1,2,3
 354 390 354 390 421 518.5 c 128,-1,4
 488 647 488 647 488 767 c 0,5,6
 488 858 488 858 432.5 916.5 c 128,-1,7
 377 975 377 975 297 975 c 0,8,9
 166 975 166 975 94 845 c 1,10,-1
 63 855 l 1,11,12
 108 1019 108 1019 201.5 1096.5 c 128,-1,13
 295 1174 295 1174 418 1174 c 0,14,15
 506 1174 506 1174 577.5 1133.5 c 128,-1,16
 649 1093 649 1093 690 1022.5 c 128,-1,17
 731 952 731 952 731 889 c 0,18,19
 731 777 731 777 669 659 c 0,20,21
 583 502 583 502 295 223 c 1,22,-1
 542 223 l 2,23,24
 635 223 635 223 662.5 230 c 128,-1,25
 690 237 690 237 707 255 c 128,-1,26
 724 273 724 273 754 333 c 1,27,-1
 784 333 l 1,28,-1
 720 0 l 1,0,-1
EndSplineSet
EndChar

StartChar: three
Encoding: 51 51 15
Width: 869
Flags: W
LayerCount: 2
Fore
SplineSet
257 577 m 1,0,-1
 257 606 l 1,1,2
 354 635 354 635 391 659 c 128,-1,3
 428 683 428 683 455.5 733 c 128,-1,4
 483 783 483 783 483 834 c 0,5,6
 483 904 483 904 432 954.5 c 128,-1,7
 381 1005 381 1005 304 1005 c 0,8,9
 184 1005 184 1005 102 880 c 1,10,-1
 70 890 l 1,11,12
 131 1032 131 1032 226.5 1103 c 128,-1,13
 322 1174 322 1174 439 1174 c 0,14,15
 560 1174 560 1174 637 1101.5 c 128,-1,16
 714 1029 714 1029 714 932 c 0,17,18
 714 868 714 868 678.5 808.5 c 128,-1,19
 643 749 643 749 565 704 c 1,20,21
 665 656 665 656 717.5 585 c 128,-1,22
 770 514 770 514 770 407 c 0,23,24
 770 227 770 227 639.5 101.5 c 128,-1,25
 509 -24 509 -24 289 -24 c 0,26,27
 143 -24 143 -24 76 23 c 0,28,29
 28 57 28 57 28 112 c 0,30,31
 28 151 28 151 56 178.5 c 128,-1,32
 84 206 84 206 121 206 c 0,33,34
 148 206 148 206 173 193 c 0,35,36
 188 188 188 188 270 120 c 128,-1,37
 352 52 352 52 424 52 c 0,38,39
 488 52 488 52 532.5 101.5 c 128,-1,40
 577 151 577 151 577 227 c 0,41,42
 577 343 577 343 495 442 c 128,-1,43
 413 541 413 541 257 577 c 1,0,-1
EndSplineSet
EndChar

StartChar: four
Encoding: 52 52 16
Width: 869
Flags: W
LayerCount: 2
Fore
SplineSet
43 434 m 1,0,-1
 590 1174 l 1,1,-1
 693 1174 l 1,2,-1
 693 434 l 1,3,-1
 798 434 l 1,4,-1
 798 258 l 1,5,-1
 693 258 l 1,6,-1
 693 0 l 1,7,-1
 460 0 l 1,8,-1
 460 258 l 1,9,-1
 43 258 l 1,10,-1
 43 434 l 1,0,-1
125 434 m 1,11,-1
 460 434 l 1,12,-1
 460 888 l 1,13,-1
 125 434 l 1,11,-1
EndSplineSet
EndChar

StartChar: five
Encoding: 53 53 17
Width: 869
Flags: W
LayerCount: 2
Fore
SplineSet
265 1151 m 1,0,-1
 805 1151 l 1,1,-1
 719 932 l 1,2,-1
 265 932 l 1,3,-1
 222 817 l 1,4,5
 514 807 514 807 672 671 c 0,6,7
 802 561 802 561 802 394 c 0,8,9
 802 288 802 288 741.5 187 c 128,-1,10
 681 86 681 86 572 31.5 c 128,-1,11
 463 -23 463 -23 332 -23 c 0,12,13
 191 -23 191 -23 116 29 c 0,14,15
 63 66 63 66 63 113 c 0,16,17
 63 151 63 151 90.5 178.5 c 128,-1,18
 118 206 118 206 156 206 c 0,19,20
 188 206 188 206 221.5 192.5 c 128,-1,21
 255 179 255 179 337 121 c 0,22,23
 390 86 390 86 426 72 c 0,24,25
 454 61 454 61 487 61 c 0,26,27
 555 61 555 61 604.5 112 c 128,-1,28
 654 163 654 163 654 235 c 0,29,30
 654 384 654 384 504 477.5 c 128,-1,31
 354 571 354 571 127 571 c 0,32,33
 104 571 104 571 59 571 c 1,34,-1
 265 1151 l 1,0,-1
EndSplineSet
EndChar

StartChar: six
Encoding: 54 54 18
Width: 869
Flags: W
LayerCount: 2
Fore
SplineSet
817 1151 m 1,0,1
 662 1112 662 1112 569.5 1050.5 c 128,-1,2
 477 989 477 989 423.5 901 c 128,-1,3
 370 813 370 813 339 683 c 1,4,5
 377 709 377 709 402 717 c 0,6,7
 456 734 456 734 512 734 c 0,8,9
 641 734 641 734 727.5 639.5 c 128,-1,10
 814 545 814 545 814 384 c 0,11,12
 814 269 814 269 767.5 174 c 128,-1,13
 721 79 721 79 635.5 28 c 128,-1,14
 550 -23 550 -23 453 -23 c 0,15,16
 347 -23 347 -23 256.5 34.5 c 128,-1,17
 166 92 166 92 115.5 204 c 128,-1,18
 65 316 65 316 65 447 c 0,19,20
 65 641 65 641 158 808 c 128,-1,21
 251 975 251 975 422 1074 c 128,-1,22
 593 1173 593 1173 817 1174 c 1,23,-1
 817 1151 l 1,0,1
329 615 m 1,24,25
 321 498 321 498 321 444 c 0,26,27
 321 326 321 326 344.5 216.5 c 128,-1,28
 368 107 368 107 405 63 c 0,29,30
 434 32 434 32 473 32 c 0,31,32
 511 32 511 32 541.5 77.5 c 128,-1,33
 572 123 572 123 572 262 c 0,34,35
 572 496 572 496 516 584 c 0,36,37
 478 643 478 643 417 643 c 0,38,39
 383 643 383 643 329 615 c 1,24,25
EndSplineSet
EndChar

StartChar: seven
Encoding: 55 55 19
Width: 869
Flags: W
LayerCount: 2
Fore
SplineSet
307 -23 m 1,0,-1
 622 926 l 1,1,-1
 383 926 l 2,2,3
 243 926 243 926 172 889 c 0,4,5
 123 863 123 863 91 794 c 1,6,-1
 59 794 l 1,7,-1
 142 1151 l 1,8,-1
 828 1151 l 1,9,-1
 442 -23 l 1,10,-1
 307 -23 l 1,0,-1
EndSplineSet
EndChar

StartChar: eight
Encoding: 56 56 20
Width: 869
Flags: W
LayerCount: 2
Fore
SplineSet
593 650 m 1,0,1
 713 562 713 562 761 484.5 c 128,-1,2
 809 407 809 407 809 307 c 0,3,4
 809 169 809 169 703.5 73 c 128,-1,5
 598 -23 598 -23 418 -23 c 0,6,7
 248 -23 248 -23 154.5 60.5 c 128,-1,8
 61 144 61 144 61 265 c 0,9,10
 61 359 61 359 115 428.5 c 128,-1,11
 169 498 169 498 295 554 c 1,12,13
 158 659 158 659 119.5 725.5 c 128,-1,14
 81 792 81 792 81 880 c 0,15,16
 81 995 81 995 179 1082.5 c 128,-1,17
 277 1170 277 1170 447 1170 c 0,18,19
 613 1170 613 1170 701 1092.5 c 128,-1,20
 789 1015 789 1015 789 905 c 0,21,22
 789 826 789 826 741 763.5 c 128,-1,23
 693 701 693 701 593 650 c 1,0,1
529 693 m 1,24,25
 560 736 560 736 575 789 c 128,-1,26
 590 842 590 842 590 904 c 0,27,28
 590 1014 590 1014 542 1073 c 0,29,30
 508 1118 508 1118 444 1118 c 0,31,32
 388 1118 388 1118 347.5 1077 c 128,-1,33
 307 1036 307 1036 307 974 c 0,34,35
 307 913 307 913 351.5 845.5 c 128,-1,36
 396 778 396 778 529 693 c 1,24,25
359 514 m 1,37,38
 332 490 332 490 320 471 c 0,39,40
 304 442 304 442 290.5 385 c 128,-1,41
 277 328 277 328 277 265 c 0,42,43
 277 187 277 187 297 132.5 c 128,-1,44
 317 78 317 78 354.5 54.5 c 128,-1,45
 392 31 392 31 434 31 c 0,46,47
 495 31 495 31 537.5 76 c 128,-1,48
 580 121 580 121 580 200 c 0,49,50
 580 365 580 365 359 514 c 1,37,38
EndSplineSet
EndChar

StartChar: nine
Encoding: 57 57 21
Width: 869
Flags: W
LayerCount: 2
Fore
SplineSet
53 0 m 1,0,1
 194 32 194 32 292.5 95 c 128,-1,2
 391 158 391 158 448.5 250 c 128,-1,3
 506 342 506 342 529 464 c 1,4,5
 476 436 476 436 439 425 c 128,-1,6
 402 414 402 414 360 414 c 0,7,8
 230 414 230 414 143 509 c 128,-1,9
 56 604 56 604 56 766 c 0,10,11
 56 881 56 881 103.5 976 c 128,-1,12
 151 1071 151 1071 238 1122.5 c 128,-1,13
 325 1174 325 1174 420 1174 c 0,14,15
 519 1174 519 1174 610 1116.5 c 128,-1,16
 701 1059 701 1059 754.5 950 c 128,-1,17
 808 841 808 841 808 701 c 0,18,19
 808 519 808 519 721 353 c 128,-1,20
 634 187 634 187 461 86 c 128,-1,21
 288 -15 288 -15 53 -23 c 1,22,-1
 53 0 l 1,0,1
542 534 m 1,23,24
 550 630 550 630 550 702 c 0,25,26
 550 856 550 856 513 990 c 0,27,28
 494 1063 494 1063 454 1098 c 0,29,30
 432 1117 432 1117 399 1117 c 0,31,32
 356 1117 356 1117 332 1080 c 0,33,34
 299 1030 299 1030 299 889 c 0,35,36
 299 655 299 655 354 565 c 0,37,38
 391 508 391 508 454 508 c 0,39,40
 487 508 487 508 542 534 c 1,23,24
EndSplineSet
EndChar

StartChar: less
Encoding: 60 60 22
Width: 1016
Flags: W
LayerCount: 2
Fore
SplineSet
869 53 m 1,0,-1
 136 404 l 1,1,-1
 136 486 l 1,2,-1
 869 835 l 1,3,-1
 869 713 l 1,4,-1
 301 445 l 1,5,-1
 869 175 l 1,6,-1
 869 53 l 1,0,-1
EndSplineSet
EndChar

StartChar: equal
Encoding: 61 61 23
Width: 1016
Flags: W
LayerCount: 2
Fore
SplineSet
885 533 m 1,0,-1
 131 533 l 1,1,-1
 131 642 l 1,2,-1
 885 642 l 1,3,-1
 885 533 l 1,0,-1
885 247 m 1,4,-1
 131 247 l 1,5,-1
 131 356 l 1,6,-1
 885 356 l 1,7,-1
 885 247 l 1,4,-1
EndSplineSet
EndChar

StartChar: greater
Encoding: 62 62 24
Width: 1016
Flags: W
LayerCount: 2
Fore
SplineSet
879 404 m 1,0,-1
 146 53 l 1,1,-1
 146 175 l 1,2,-1
 715 445 l 1,3,-1
 146 713 l 1,4,-1
 146 835 l 1,5,-1
 879 486 l 1,6,-1
 879 404 l 1,0,-1
EndSplineSet
EndChar

StartChar: question
Encoding: 63 63 25
Width: 869
Flags: W
LayerCount: 2
Fore
SplineSet
412 375 m 1,0,-1
 378 375 l 1,1,2
 375 469 375 469 385.5 516 c 128,-1,3
 396 563 396 563 441.5 645 c 128,-1,4
 487 727 487 727 500.5 776.5 c 128,-1,5
 514 826 514 826 514 899 c 0,6,7
 514 1012 514 1012 470 1065 c 128,-1,8
 426 1118 426 1118 367 1118 c 0,9,10
 320 1118 320 1118 288 1094 c 0,11,12
 265 1076 265 1076 265 1055 c 0,13,14
 265 1042 265 1042 281 1012 c 0,15,16
 317 948 317 948 317 902 c 0,17,18
 317 860 317 860 289.5 832.5 c 128,-1,19
 262 805 262 805 219 805 c 0,20,21
 171 805 171 805 138.5 838 c 128,-1,22
 106 871 106 871 106 926 c 0,23,24
 106 1026 106 1026 192.5 1102 c 128,-1,25
 279 1178 279 1178 435 1178 c 0,26,27
 599 1178 599 1178 685.5 1099.5 c 128,-1,28
 772 1021 772 1021 772 909 c 0,29,30
 772 829 772 829 727.5 760 c 128,-1,31
 683 691 683 691 556 608 c 0,32,33
 473 552 473 552 445.5 508.5 c 128,-1,34
 418 465 418 465 412 375 c 1,0,-1
403 252 m 0,35,36
 460 252 460 252 500.5 212 c 128,-1,37
 541 172 541 172 541 114 c 0,38,39
 541 57 541 57 500.5 17 c 128,-1,40
 460 -23 460 -23 403 -23 c 0,41,42
 347 -23 347 -23 306.5 17 c 128,-1,43
 266 57 266 57 266 114 c 0,44,45
 266 172 266 172 306.5 212 c 128,-1,46
 347 252 347 252 403 252 c 0,35,36
EndSplineSet
EndChar

StartChar: at
Encoding: 64 64 26
Width: 1616
Flags: W
LayerCount: 2
Fore
SplineSet
1001 785 m 1,0,-1
 1207 794 l 1,1,-1
 1053 262 l 2,2,3
 1026 172 1026 172 1026 128 c 0,4,5
 1026 102 1026 102 1046 81.5 c 128,-1,6
 1066 61 1066 61 1095 61 c 0,7,8
 1153 61 1153 61 1246 129 c 128,-1,9
 1339 197 1339 197 1400.5 321.5 c 128,-1,10
 1462 446 1462 446 1462 587 c 0,11,12
 1462 823 1462 823 1311 973.5 c 128,-1,13
 1160 1124 1160 1124 918 1124 c 0,14,15
 709 1124 709 1124 538.5 1025.5 c 128,-1,16
 368 927 368 927 267.5 740 c 128,-1,17
 167 553 167 553 167 340 c 0,18,19
 167 47 167 47 354.5 -140.5 c 128,-1,20
 542 -328 542 -328 831 -328 c 0,21,22
 1070 -328 1070 -328 1259.5 -199.5 c 128,-1,23
 1449 -71 1449 -71 1527 140 c 1,24,-1
 1579 140 l 1,25,26
 1477 -109 1477 -109 1282.5 -242 c 128,-1,27
 1088 -375 1088 -375 830 -375 c 0,28,29
 502 -375 502 -375 290 -164 c 128,-1,30
 78 47 78 47 78 370 c 0,31,32
 78 593 78 593 183 782.5 c 128,-1,33
 288 972 288 972 478.5 1075 c 128,-1,34
 669 1178 669 1178 900 1178 c 0,35,36
 1088 1178 1088 1178 1228 1102.5 c 128,-1,37
 1368 1027 1368 1027 1438 891.5 c 128,-1,38
 1508 756 1508 756 1508 605 c 0,39,40
 1508 428 1508 428 1432.5 283 c 128,-1,41
 1357 138 1357 138 1244 69 c 128,-1,42
 1131 0 1131 0 1000 0 c 0,43,44
 916 0 916 0 872 41.5 c 128,-1,45
 828 83 828 83 828 148 c 0,46,47
 828 194 828 194 848 268 c 1,48,49
 777 151 777 151 739 106 c 0,50,51
 686 46 686 46 633 18 c 0,52,53
 598 0 598 0 554 0 c 0,54,55
 495 0 495 0 453.5 47.5 c 128,-1,56
 412 95 412 95 412 189 c 0,57,58
 412 284 412 284 439.5 375 c 128,-1,59
 467 466 467 466 515 546 c 128,-1,60
 563 626 563 626 625.5 690 c 128,-1,61
 688 754 688 754 766 796 c 0,62,63
 806 817 806 817 851 817 c 0,64,65
 899 817 899 817 930 787 c 128,-1,66
 961 757 961 757 972 685 c 1,67,-1
 1001 785 l 1,0,-1
872 756 m 0,68,69
 841 756 841 756 809 721 c 0,70,71
 766 672 766 672 719 560 c 0,72,73
 631 357 631 357 631 233 c 0,74,75
 631 197 631 197 646.5 176.5 c 128,-1,76
 662 156 662 156 681 156 c 0,77,78
 699 156 699 156 728 179 c 0,79,80
 772 212 772 212 821 291 c 128,-1,81
 870 370 870 370 901.5 466.5 c 128,-1,82
 933 563 933 563 933 644 c 0,83,84
 933 702 933 702 911 734 c 0,85,86
 895 756 895 756 872 756 c 0,68,69
EndSplineSet
EndChar

StartChar: A
Encoding: 65 65 27
Width: 1255
Flags: W
LayerCount: 2
Fore
SplineSet
723 328 m 1,0,-1
 316 328 l 1,1,-1
 268 215 l 2,2,3
 244 159 244 159 244 123 c 0,4,5
 244 74 244 74 284 52 c 0,6,7
 306 38 306 38 396 32 c 1,8,-1
 396 0 l 1,9,-1
 14 0 l 1,10,-1
 14 32 l 1,11,12
 75 40 75 40 115.5 82.5 c 128,-1,13
 156 125 156 125 214 257 c 2,14,-1
 626 1174 l 1,15,-1
 641 1174 l 1,16,-1
 1057 231 l 2,17,18
 1116 96 1116 96 1154 61 c 0,19,20
 1183 36 1183 36 1236 32 c 1,21,-1
 1236 0 l 1,22,-1
 679 0 l 1,23,-1
 679 32 l 1,24,-1
 702 32 l 2,25,26
 770 32 770 32 796 50 c 0,27,28
 815 64 815 64 815 89 c 0,29,30
 815 104 815 104 809 121 c 0,31,32
 809 128 809 128 784 184 c 2,33,-1
 723 328 l 1,0,-1
693 391 m 1,34,-1
 523 788 l 1,35,-1
 347 391 l 1,36,-1
 693 391 l 1,34,-1
EndSplineSet
EndChar

StartChar: B
Encoding: 66 66 28
Width: 1160
Flags: W
LayerCount: 2
Fore
SplineSet
774 609 m 1,0,1
 937 572 937 572 1004 518 c 0,2,3
 1098 441 1098 441 1098 317 c 0,4,5
 1098 188 1098 188 994 103 c 0,6,7
 866 0 866 0 622 0 c 2,8,-1
 36 0 l 1,9,-1
 36 32 l 1,10,11
 117 32 117 32 145 46.5 c 128,-1,12
 173 61 173 61 185 84.5 c 128,-1,13
 197 108 197 108 197 201 c 2,14,-1
 197 949 l 2,15,16
 197 1042 197 1042 185 1066.5 c 128,-1,17
 173 1091 173 1091 144.5 1105 c 128,-1,18
 116 1119 116 1119 36 1119 c 1,19,-1
 36 1151 l 1,20,-1
 587 1151 l 2,21,22
 787 1151 787 1151 869 1115.5 c 128,-1,23
 951 1080 951 1080 998.5 1010 c 128,-1,24
 1046 940 1046 940 1046 862 c 0,25,26
 1046 778 1046 778 985.5 713.5 c 128,-1,27
 925 649 925 649 774 609 c 1,0,1
465 634 m 1,28,29
 584 634 584 634 642 661 c 128,-1,30
 700 688 700 688 730.5 737.5 c 128,-1,31
 761 787 761 787 761 863 c 256,32,33
 761 939 761 939 731 988 c 128,-1,34
 701 1037 701 1037 644 1062.5 c 128,-1,35
 587 1088 587 1088 465 1086 c 1,36,-1
 465 634 l 1,28,29
465 566 m 1,37,-1
 465 198 l 1,38,-1
 464 156 l 2,39,40
 464 109 464 109 487 86 c 128,-1,41
 510 63 510 63 555 63 c 0,42,43
 624 63 624 63 681.5 93 c 128,-1,44
 739 123 739 123 769 180 c 128,-1,45
 799 237 799 237 799 307 c 0,46,47
 799 389 799 389 761.5 453 c 128,-1,48
 724 517 724 517 659.5 542 c 128,-1,49
 595 567 595 567 465 566 c 1,37,-1
EndSplineSet
EndChar

StartChar: C
Encoding: 67 67 29
Width: 1255
Flags: W
LayerCount: 2
Fore
SplineSet
1161 1178 m 1,0,-1
 1161 778 l 1,1,-1
 1127 778 l 1,2,3
 1090 935 1090 935 988 1018 c 128,-1,4
 886 1101 886 1101 757 1101 c 0,5,6
 649 1101 649 1101 559 1039 c 128,-1,7
 469 977 469 977 427 877 c 0,8,9
 374 749 374 749 374 593 c 256,10,11
 374 437 374 437 413.5 310 c 128,-1,12
 453 183 453 183 535.5 118 c 128,-1,13
 618 53 618 53 752 53 c 0,14,15
 860 53 860 53 950.5 100.5 c 128,-1,16
 1041 148 1041 148 1141 265 c 1,17,-1
 1141 166 l 1,18,19
 1044 65 1044 65 939 19 c 128,-1,20
 834 -27 834 -27 693 -27 c 0,21,22
 510 -27 510 -27 367 47 c 128,-1,23
 224 121 224 121 146.5 260 c 128,-1,24
 69 399 69 399 69 553 c 0,25,26
 69 720 69 720 155 867 c 128,-1,27
 241 1014 241 1014 387 1096 c 128,-1,28
 533 1178 533 1178 699 1178 c 0,29,30
 819 1178 819 1178 955 1125 c 0,31,32
 1033 1094 1033 1094 1055 1094 c 0,33,34
 1081 1094 1081 1094 1101 1114 c 128,-1,35
 1121 1134 1121 1134 1127 1178 c 1,36,-1
 1161 1178 l 1,0,-1
EndSplineSet
EndChar

StartChar: D
Encoding: 68 68 30
Width: 1255
Flags: W
LayerCount: 2
Fore
SplineSet
23 0 m 1,0,-1
 23 32 l 1,1,-1
 61 32 l 2,2,3
 112 32 112 32 138 47.5 c 128,-1,4
 164 63 164 63 177 91 c 0,5,6
 184 108 184 108 184 198 c 2,7,-1
 184 954 l 2,8,9
 184 1042 184 1042 175 1064 c 128,-1,10
 166 1086 166 1086 137.5 1102.5 c 128,-1,11
 109 1119 109 1119 61 1119 c 2,12,-1
 23 1119 l 1,13,-1
 23 1151 l 1,14,-1
 538 1151 l 2,15,16
 745 1151 745 1151 870 1095 c 0,17,18
 1024 1026 1024 1026 1103 887 c 128,-1,19
 1182 748 1182 748 1182 572 c 0,20,21
 1182 452 1182 452 1143.5 349 c 128,-1,22
 1105 246 1105 246 1042.5 179 c 128,-1,23
 980 112 980 112 899 72 c 128,-1,24
 818 32 818 32 702 11 c 0,25,26
 649 0 649 0 538 0 c 2,27,-1
 23 0 l 1,0,-1
462 1085 m 1,28,-1
 462 188 l 2,29,30
 462 117 462 117 469 100.5 c 128,-1,31
 476 84 476 84 491 75 c 0,32,33
 514 63 514 63 559 63 c 0,34,35
 700 63 700 63 775 159 c 0,36,37
 877 290 877 290 877 565 c 0,38,39
 877 788 877 788 807 919 c 0,40,41
 752 1023 752 1023 665 1060 c 0,42,43
 604 1086 604 1086 462 1085 c 1,28,-1
EndSplineSet
EndChar

StartChar: E
Encoding: 69 69 31
Width: 1160
Flags: W
LayerCount: 2
Fore
SplineSet
474 1084 m 1,0,-1
 474 616 l 1,1,-1
 497 616 l 2,2,3
 605 616 605 616 654.5 685 c 128,-1,4
 704 754 704 754 719 888 c 1,5,-1
 750 888 l 1,6,-1
 750 285 l 1,7,-1
 719 285 l 1,8,9
 708 384 708 384 675.5 446.5 c 128,-1,10
 643 509 643 509 599 530.5 c 128,-1,11
 555 552 555 552 474 552 c 1,12,-1
 474 229 l 2,13,14
 474 134 474 134 482 112.5 c 128,-1,15
 490 91 490 91 511.5 77.5 c 128,-1,16
 533 64 533 64 584 64 c 2,17,-1
 651 64 l 2,18,19
 813 64 813 64 910.5 138.5 c 128,-1,20
 1008 213 1008 213 1050 367 c 1,21,-1
 1081 367 l 1,22,-1
 1029 0 l 1,23,-1
 35 0 l 1,24,-1
 35 32 l 1,25,-1
 73 32 l 2,26,27
 123 32 123 32 154 49 c 0,28,29
 177 61 177 61 188 91 c 0,30,31
 198 110 198 110 198 198 c 2,32,-1
 198 954 l 2,33,34
 198 1032 198 1032 193 1050 c 0,35,36
 184 1080 184 1080 161 1096 c 0,37,38
 129 1119 129 1119 73 1119 c 2,39,-1
 35 1119 l 1,40,-1
 35 1151 l 1,41,-1
 999 1151 l 1,42,-1
 999 810 l 1,43,-1
 966 810 l 1,44,45
 941 936 941 936 896.5 990 c 128,-1,46
 852 1044 852 1044 771 1070 c 0,47,48
 723 1084 723 1084 593 1084 c 2,49,-1
 474 1084 l 1,0,-1
EndSplineSet
EndChar

StartChar: F
Encoding: 70 70 32
Width: 1062
Flags: W
LayerCount: 2
Fore
SplineSet
477 1084 m 1,0,-1
 477 613 l 1,1,-1
 511 613 l 2,2,3
 587 613 587 613 636 635.5 c 128,-1,4
 685 658 685 658 718.5 712 c 128,-1,5
 752 766 752 766 762 860 c 1,6,-1
 792 860 l 1,7,-1
 792 281 l 1,8,-1
 762 281 l 1,9,10
 745 445 745 445 673.5 497.5 c 128,-1,11
 602 550 602 550 511 550 c 2,12,-1
 477 550 l 1,13,-1
 477 198 l 2,14,15
 477 108 477 108 487.5 86.5 c 128,-1,16
 498 65 498 65 525.5 48.5 c 128,-1,17
 553 32 553 32 603 32 c 2,18,-1
 640 32 l 1,19,-1
 640 0 l 1,20,-1
 39 0 l 1,21,-1
 39 32 l 1,22,-1
 77 32 l 2,23,24
 127 32 127 32 158 49 c 0,25,26
 180 61 180 61 192 91 c 0,27,28
 201 110 201 110 201 198 c 2,29,-1
 201 954 l 2,30,31
 201 1042 201 1042 191.5 1064 c 128,-1,32
 182 1086 182 1086 153.5 1102.5 c 128,-1,33
 125 1119 125 1119 77 1119 c 2,34,-1
 39 1119 l 1,35,-1
 39 1151 l 1,36,-1
 1010 1151 l 1,37,-1
 1010 820 l 1,38,-1
 975 820 l 1,39,40
 964 937 964 937 915 993 c 128,-1,41
 866 1049 866 1049 774 1072 c 0,42,43
 723 1084 723 1084 584 1084 c 2,44,-1
 477 1084 l 1,0,-1
EndSplineSet
EndChar

StartChar: G
Encoding: 71 71 33
Width: 1351
Flags: W
LayerCount: 2
Fore
SplineSet
1199 1178 m 1,0,-1
 1199 772 l 1,1,-1
 1168 772 l 1,2,3
 1111 938 1111 938 997.5 1024.5 c 128,-1,4
 884 1111 884 1111 749 1111 c 0,5,6
 619 1111 619 1111 533 1038.5 c 128,-1,7
 447 966 447 966 412 836.5 c 128,-1,8
 377 707 377 707 377 570 c 0,9,10
 377 404 377 404 416.5 280 c 128,-1,11
 456 156 456 156 542.5 96.5 c 128,-1,12
 629 37 629 37 749 37 c 0,13,14
 791 37 791 37 834.5 46 c 128,-1,15
 878 55 878 55 923 72 c 1,16,-1
 923 312 l 2,17,18
 923 381 923 381 914 400.5 c 128,-1,19
 905 420 905 420 876 436.5 c 128,-1,20
 847 453 847 453 805 453 c 2,21,-1
 775 453 l 1,22,-1
 775 483 l 1,23,-1
 1335 483 l 1,24,-1
 1335 453 l 1,25,26
 1271 447 1271 447 1245.5 434.5 c 128,-1,27
 1220 422 1220 422 1207 391 c 0,28,29
 1199 374 1199 374 1199 312 c 2,30,-1
 1199 72 l 1,31,32
 1089 23 1089 23 970 -2.5 c 128,-1,33
 851 -28 851 -28 723 -28 c 0,34,35
 559 -28 559 -28 450 16.5 c 128,-1,36
 341 61 341 61 259 134.5 c 128,-1,37
 177 208 177 208 129 298 c 0,38,39
 70 414 70 414 70 561 c 0,40,41
 70 819 70 819 252.5 998.5 c 128,-1,42
 435 1178 435 1178 712 1178 c 0,43,44
 798 1178 798 1178 867 1165 c 0,45,46
 904 1158 904 1158 988 1126 c 128,-1,47
 1072 1094 1072 1094 1086 1094 c 0,48,49
 1110 1094 1110 1094 1130.5 1111.5 c 128,-1,50
 1151 1129 1151 1129 1168 1178 c 1,51,-1
 1199 1178 l 1,0,-1
EndSplineSet
EndChar

StartChar: H
Encoding: 72 72 34
Width: 1351
Flags: W
LayerCount: 2
Fore
SplineSet
476 553 m 1,0,-1
 476 198 l 2,1,2
 476 108 476 108 485.5 86.5 c 128,-1,3
 495 65 495 65 523.5 48.5 c 128,-1,4
 552 32 552 32 601 32 c 2,5,-1
 638 32 l 1,6,-1
 638 0 l 1,7,-1
 36 0 l 1,8,-1
 36 32 l 1,9,-1
 74 32 l 2,10,11
 125 32 125 32 156 49 c 0,12,13
 177 61 177 61 189 91 c 0,14,15
 198 110 198 110 198 198 c 2,16,-1
 198 954 l 2,17,18
 198 1042 198 1042 189 1064 c 128,-1,19
 180 1086 180 1086 151.5 1102.5 c 128,-1,20
 123 1119 123 1119 74 1119 c 2,21,-1
 36 1119 l 1,22,-1
 36 1151 l 1,23,-1
 638 1151 l 1,24,-1
 638 1119 l 1,25,-1
 601 1119 l 2,26,27
 550 1119 550 1119 519 1101 c 0,28,29
 498 1090 498 1090 485 1061 c 0,30,31
 476 1041 476 1041 476 954 c 2,32,-1
 476 628 l 1,33,-1
 882 628 l 1,34,-1
 882 954 l 2,35,36
 882 1042 882 1042 872.5 1064 c 128,-1,37
 863 1086 863 1086 834.5 1102.5 c 128,-1,38
 806 1119 806 1119 757 1119 c 2,39,-1
 720 1119 l 1,40,-1
 720 1151 l 1,41,-1
 1321 1151 l 1,42,-1
 1321 1119 l 1,43,-1
 1284 1119 l 2,44,45
 1233 1119 1233 1119 1203 1101 c 0,46,47
 1181 1090 1181 1090 1168 1061 c 0,48,49
 1159 1041 1159 1041 1159 954 c 2,50,-1
 1159 198 l 2,51,52
 1159 108 1159 108 1168.5 86.5 c 128,-1,53
 1178 65 1178 65 1206.5 48.5 c 128,-1,54
 1235 32 1235 32 1284 32 c 2,55,-1
 1321 32 l 1,56,-1
 1321 0 l 1,57,-1
 720 0 l 1,58,-1
 720 32 l 1,59,-1
 757 32 l 2,60,61
 809 32 809 32 838 49 c 0,62,63
 860 61 860 61 872 91 c 0,64,65
 882 110 882 110 882 198 c 2,66,-1
 882 553 l 1,67,-1
 476 553 l 1,0,-1
EndSplineSet
EndChar

StartChar: I
Encoding: 73 73 35
Width: 677
Flags: W
LayerCount: 2
Fore
SplineSet
637 32 m 1,0,-1
 637 0 l 1,1,-1
 35 0 l 1,2,-1
 35 32 l 1,3,-1
 73 32 l 2,4,5
 123 32 123 32 154 49 c 0,6,7
 177 61 177 61 188 91 c 0,8,9
 198 110 198 110 198 198 c 2,10,-1
 198 954 l 2,11,12
 198 1042 198 1042 188 1064 c 128,-1,13
 178 1086 178 1086 149.5 1102.5 c 128,-1,14
 121 1119 121 1119 73 1119 c 2,15,-1
 35 1119 l 1,16,-1
 35 1151 l 1,17,-1
 637 1151 l 1,18,-1
 637 1119 l 1,19,-1
 598 1119 l 2,20,21
 549 1119 549 1119 518 1101 c 0,22,23
 496 1090 496 1090 483 1061 c 0,24,25
 474 1041 474 1041 474 954 c 2,26,-1
 474 198 l 2,27,28
 474 108 474 108 484 86.5 c 128,-1,29
 494 65 494 65 522 48.5 c 128,-1,30
 550 32 550 32 598 32 c 2,31,-1
 637 32 l 1,0,-1
EndSplineSet
EndChar

StartChar: J
Encoding: 74 74 36
Width: 869
Flags: W
LayerCount: 2
Fore
SplineSet
247 1119 m 1,0,-1
 247 1151 l 1,1,-1
 860 1151 l 1,2,-1
 860 1119 l 1,3,-1
 820 1119 l 2,4,5
 771 1119 771 1119 741 1101 c 0,6,7
 720 1090 720 1090 707 1061 c 0,8,9
 697 1041 697 1041 697 954 c 2,10,-1
 697 391 l 2,11,12
 697 225 697 225 663.5 149.5 c 128,-1,13
 630 74 630 74 546 23.5 c 128,-1,14
 462 -27 462 -27 342 -27 c 0,15,16
 198 -27 198 -27 108.5 49.5 c 128,-1,17
 19 126 19 126 19 219 c 0,18,19
 19 278 19 278 55 315 c 128,-1,20
 91 352 91 352 144 352 c 256,21,22
 197 352 197 352 231.5 319 c 128,-1,23
 266 286 266 286 266 237 c 0,24,25
 266 214 266 214 262 197 c 0,26,27
 257 188 257 188 233.5 153.5 c 128,-1,28
 210 119 210 119 210 104 c 0,29,30
 210 83 210 83 232 66 c 0,31,32
 265 42 265 42 316 42 c 0,33,34
 353 42 353 42 377.5 60.5 c 128,-1,35
 402 79 402 79 411.5 119 c 128,-1,36
 421 159 421 159 421 338 c 2,37,-1
 421 954 l 2,38,39
 421 1042 421 1042 411.5 1064 c 128,-1,40
 402 1086 402 1086 372.5 1102.5 c 128,-1,41
 343 1119 343 1119 295 1119 c 2,42,-1
 247 1119 l 1,0,-1
EndSplineSet
EndChar

StartChar: K
Encoding: 75 75 37
Width: 1351
Flags: W
LayerCount: 2
Fore
SplineSet
723 711 m 1,0,-1
 1129 204 l 2,1,2
 1215 96 1215 96 1276 59 c 0,3,4
 1323 32 1323 32 1372 32 c 1,5,-1
 1372 0 l 1,6,-1
 773 0 l 1,7,-1
 773 32 l 1,8,9
 830 36 830 36 846.5 48.5 c 128,-1,10
 863 61 863 61 863 81 c 0,11,12
 863 117 863 117 784 214 c 2,13,-1
 519 546 l 1,14,-1
 477 511 l 1,15,-1
 477 198 l 2,16,17
 477 107 477 107 487.5 85 c 128,-1,18
 498 63 498 63 526.5 47.5 c 128,-1,19
 555 32 555 32 619 32 c 1,20,-1
 619 0 l 1,21,-1
 39 0 l 1,22,-1
 39 32 l 1,23,-1
 77 32 l 2,24,25
 127 32 127 32 158 49 c 0,26,27
 180 61 180 61 192 91 c 0,28,29
 201 110 201 110 201 198 c 2,30,-1
 201 954 l 2,31,32
 201 1042 201 1042 191.5 1064 c 128,-1,33
 182 1086 182 1086 153.5 1102.5 c 128,-1,34
 125 1119 125 1119 77 1119 c 2,35,-1
 39 1119 l 1,36,-1
 39 1151 l 1,37,-1
 613 1151 l 1,38,-1
 613 1119 l 1,39,40
 553 1119 553 1119 523 1102 c 0,41,42
 500 1091 500 1091 488 1063 c 0,43,44
 477 1042 477 1042 477 954 c 2,45,-1
 477 596 l 1,46,-1
 905 941 l 2,47,48
 994 1012 994 1012 994 1057 c 0,49,50
 994 1089 994 1089 957 1108 c 0,51,52
 939 1117 939 1117 865 1119 c 1,53,-1
 865 1151 l 1,54,-1
 1313 1151 l 1,55,-1
 1313 1119 l 1,56,57
 1254 1115 1254 1115 1219.5 1097.5 c 128,-1,58
 1185 1080 1185 1080 1061 980 c 2,59,-1
 723 711 l 1,0,-1
EndSplineSet
EndChar

StartChar: L
Encoding: 76 76 38
Width: 1160
Flags: W
LayerCount: 2
Fore
SplineSet
1097 404 m 1,0,-1
 1055 0 l 1,1,-1
 32 0 l 1,2,-1
 32 32 l 1,3,-1
 70 32 l 2,4,5
 121 32 121 32 151 49 c 0,6,7
 173 61 173 61 184 91 c 0,8,9
 194 110 194 110 194 198 c 2,10,-1
 194 954 l 2,11,12
 194 1042 194 1042 185.5 1064 c 128,-1,13
 177 1086 177 1086 148 1102.5 c 128,-1,14
 119 1119 119 1119 70 1119 c 2,15,-1
 32 1119 l 1,16,-1
 32 1151 l 1,17,-1
 647 1151 l 1,18,-1
 647 1119 l 1,19,-1
 596 1119 l 2,20,21
 545 1119 545 1119 516 1101 c 0,22,23
 494 1090 494 1090 480 1061 c 0,24,25
 471 1041 471 1041 471 954 c 2,26,-1
 471 220 l 2,27,28
 471 132 471 132 481 108 c 128,-1,29
 491 84 491 84 520 72 c 0,30,31
 542 65 542 65 624 65 c 2,32,-1
 720 65 l 2,33,34
 812 65 812 65 873 97 c 128,-1,35
 934 129 934 129 978.5 198.5 c 128,-1,36
 1023 268 1023 268 1063 404 c 1,37,-1
 1097 404 l 1,0,-1
EndSplineSet
EndChar

StartChar: M
Encoding: 77 77 39
Width: 1641
Flags: W
LayerCount: 2
Fore
SplineSet
829 392 m 1,0,-1
 1141 1151 l 1,1,-1
 1610 1151 l 1,2,-1
 1610 1119 l 1,3,-1
 1572 1119 l 2,4,5
 1521 1119 1521 1119 1491 1101 c 0,6,7
 1470 1090 1470 1090 1456 1062 c 0,8,9
 1447 1042 1447 1042 1447 956 c 2,10,-1
 1447 198 l 2,11,12
 1447 108 1447 108 1456.5 86.5 c 128,-1,13
 1466 65 1466 65 1495 48.5 c 128,-1,14
 1524 32 1524 32 1572 32 c 2,15,-1
 1610 32 l 1,16,-1
 1610 0 l 1,17,-1
 1008 0 l 1,18,-1
 1008 32 l 1,19,-1
 1046 32 l 2,20,21
 1097 32 1097 32 1127 49 c 0,22,23
 1148 61 1148 61 1161 91 c 0,24,25
 1170 110 1170 110 1170 198 c 2,26,-1
 1170 1050 l 1,27,-1
 729 0 l 1,28,-1
 709 0 l 1,29,-1
 262 1042 l 1,30,-1
 262 231 l 2,31,32
 262 146 262 146 265 127 c 0,33,34
 276 85 276 85 313 58.5 c 128,-1,35
 350 32 350 32 428 32 c 1,36,-1
 428 0 l 1,37,-1
 35 0 l 1,38,-1
 35 32 l 1,39,-1
 47 32 l 2,40,41
 85 31 85 31 118 44 c 128,-1,42
 151 57 151 57 167.5 79.5 c 128,-1,43
 184 102 184 102 194 141 c 0,44,45
 197 151 197 151 197 227 c 2,46,-1
 197 956 l 2,47,48
 197 1043 197 1043 187 1064.5 c 128,-1,49
 177 1086 177 1086 148.5 1102.5 c 128,-1,50
 120 1119 120 1119 71 1119 c 2,51,-1
 35 1119 l 1,52,-1
 35 1151 l 1,53,-1
 506 1151 l 1,54,-1
 829 392 l 1,0,-1
EndSplineSet
EndChar

StartChar: N
Encoding: 78 78 40
Width: 1255
Flags: W
LayerCount: 2
Fore
SplineSet
434 1151 m 1,0,-1
 1001 437 l 1,1,-1
 1001 932 l 2,2,3
 1001 1036 1001 1036 971 1072 c 0,4,5
 931 1121 931 1121 834 1119 c 1,6,-1
 834 1151 l 1,7,-1
 1215 1151 l 1,8,-1
 1215 1119 l 1,9,10
 1142 1110 1142 1110 1117 1095 c 128,-1,11
 1092 1080 1092 1080 1077.5 1046 c 128,-1,12
 1063 1012 1063 1012 1063 932 c 2,13,-1
 1063 -27 l 1,14,-1
 1035 -27 l 1,15,-1
 257 932 l 1,16,-1
 257 200 l 2,17,18
 257 102 257 102 302.5 67 c 128,-1,19
 348 32 348 32 405 32 c 2,20,-1
 434 32 l 1,21,-1
 434 0 l 1,22,-1
 24 0 l 1,23,-1
 24 32 l 1,24,25
 120 32 120 32 157 70 c 128,-1,26
 194 108 194 108 194 200 c 2,27,-1
 194 1012 l 1,28,-1
 170 1043 l 2,29,30
 134 1089 134 1089 105.5 1103.5 c 128,-1,31
 77 1118 77 1118 24 1119 c 1,32,-1
 24 1151 l 1,33,-1
 434 1151 l 1,0,-1
EndSplineSet
EndChar

StartChar: O
Encoding: 79 79 41
Width: 1351
Flags: W
LayerCount: 2
Fore
SplineSet
671 1167 m 1,0,1
 947 1178 947 1178 1119 1007 c 128,-1,2
 1291 836 1291 836 1291 580 c 0,3,4
 1291 360 1291 360 1162 194 c 0,5,6
 991 -27 991 -27 682 -27 c 0,7,8
 371 -27 371 -27 201 184 c 0,9,10
 68 350 68 350 68 580 c 0,11,12
 68 835 68 835 242.5 1006.5 c 128,-1,13
 417 1178 417 1178 671 1167 c 1,0,1
681 1113 m 0,14,15
 524 1113 524 1113 442 952 c 0,16,17
 374 819 374 819 374 571 c 0,18,19
 374 277 374 277 477 136 c 0,20,21
 550 37 550 37 681 37 c 0,22,23
 766 37 766 37 826 79 c 0,24,25
 901 134 901 134 942.5 253 c 128,-1,26
 984 372 984 372 984 564 c 0,27,28
 984 793 984 793 941.5 906.5 c 128,-1,29
 899 1020 899 1020 832.5 1066.5 c 128,-1,30
 766 1113 766 1113 681 1113 c 0,14,15
EndSplineSet
EndChar

StartChar: P
Encoding: 80 80 42
Width: 1062
Flags: W
LayerCount: 2
Fore
SplineSet
469 520 m 1,0,-1
 469 201 l 2,1,2
 469 108 469 108 480.5 84 c 128,-1,3
 492 60 492 60 521.5 46 c 128,-1,4
 551 32 551 32 629 32 c 1,5,-1
 629 0 l 1,6,-1
 45 0 l 1,7,-1
 45 32 l 1,8,9
 124 32 124 32 152 46.5 c 128,-1,10
 180 61 180 61 192 84.5 c 128,-1,11
 204 108 204 108 204 201 c 2,12,-1
 204 949 l 2,13,14
 204 1042 204 1042 192 1066.5 c 128,-1,15
 180 1091 180 1091 151.5 1105 c 128,-1,16
 123 1119 123 1119 45 1119 c 1,17,-1
 45 1151 l 1,18,-1
 545 1151 l 2,19,20
 794 1151 794 1151 901.5 1062.5 c 128,-1,21
 1009 974 1009 974 1009 842 c 0,22,23
 1009 730 1009 730 939.5 650.5 c 128,-1,24
 870 571 870 571 748 542 c 0,25,26
 666 520 666 520 469 520 c 1,0,-1
469 1084 m 1,27,-1
 469 587 l 1,28,29
 498 585 498 585 511 585 c 0,30,31
 616 585 616 585 672 647 c 128,-1,32
 728 709 728 709 728 838 c 0,33,34
 728 966 728 966 672 1025 c 128,-1,35
 616 1084 616 1084 503 1084 c 2,36,-1
 469 1084 l 1,27,-1
EndSplineSet
EndChar

StartChar: Q
Encoding: 81 81 43
Width: 1351
Flags: W
LayerCount: 2
Fore
SplineSet
831 -11 m 1,0,1
 870 -123 870 -123 952.5 -179.5 c 128,-1,2
 1035 -236 1035 -236 1159 -236 c 0,3,4
 1192 -236 1192 -236 1231 -230 c 1,5,-1
 1231 -283 l 1,6,7
 1102 -315 1102 -315 1002 -315 c 0,8,9
 844 -315 844 -315 719.5 -237 c 128,-1,10
 595 -159 595 -159 532 -11 c 1,11,12
 323 34 323 34 195.5 194 c 128,-1,13
 68 354 68 354 68 577 c 0,14,15
 68 835 68 835 240.5 1006.5 c 128,-1,16
 413 1178 413 1178 681 1178 c 0,17,18
 947 1178 947 1178 1119 1006 c 128,-1,19
 1291 834 1291 834 1291 577 c 0,20,21
 1291 353 1291 353 1156 187.5 c 128,-1,22
 1021 22 1021 22 831 -11 c 1,0,1
681 1113 m 0,23,24
 528 1113 528 1113 444 954 c 0,25,26
 374 820 374 820 374 575 c 0,27,28
 374 279 374 279 478 137 c 0,29,30
 552 37 552 37 681 37 c 0,31,32
 809 37 809 37 881 135 c 0,33,34
 986 275 986 275 986 555 c 0,35,36
 986 833 986 833 920 957 c 0,37,38
 838 1113 838 1113 681 1113 c 0,23,24
EndSplineSet
EndChar

StartChar: R
Encoding: 82 82 44
Width: 1255
Flags: W
LayerCount: 2
Fore
SplineSet
462 524 m 1,0,-1
 462 201 l 2,1,2
 462 108 462 108 473.5 84 c 128,-1,3
 485 60 485 60 513.5 46 c 128,-1,4
 542 32 542 32 622 32 c 1,5,-1
 622 0 l 1,6,-1
 32 0 l 1,7,-1
 32 32 l 1,8,9
 112 32 112 32 140.5 46.5 c 128,-1,10
 169 61 169 61 180.5 84.5 c 128,-1,11
 192 108 192 108 192 201 c 2,12,-1
 192 949 l 2,13,14
 192 1042 192 1042 180.5 1066.5 c 128,-1,15
 169 1091 169 1091 140.5 1105 c 128,-1,16
 112 1119 112 1119 32 1119 c 1,17,-1
 32 1151 l 1,18,-1
 566 1151 l 2,19,20
 776 1151 776 1151 873 1122 c 128,-1,21
 970 1093 970 1093 1031 1015.5 c 128,-1,22
 1092 938 1092 938 1092 834 c 0,23,24
 1092 707 1092 707 1000 623 c 0,25,26
 941 571 941 571 836 544 c 1,27,-1
 1113 156 l 2,28,29
 1167 78 1167 78 1190 60 c 0,30,31
 1224 34 1224 34 1271 32 c 1,32,-1
 1271 0 l 1,33,-1
 908 0 l 1,34,-1
 537 524 l 1,35,-1
 462 524 l 1,0,-1
462 1089 m 1,36,-1
 462 584 l 1,37,-1
 510 584 l 2,38,39
 628 584 628 584 686.5 606 c 128,-1,40
 745 628 745 628 779 684.5 c 128,-1,41
 813 741 813 741 813 831 c 0,42,43
 813 964 813 964 751.5 1026.5 c 128,-1,44
 690 1089 690 1089 552 1089 c 2,45,-1
 462 1089 l 1,36,-1
EndSplineSet
EndChar

StartChar: S
Encoding: 83 83 45
Width: 967
Flags: W
LayerCount: 2
Fore
SplineSet
817 1178 m 1,0,-1
 826 794 l 1,1,-1
 792 794 l 1,2,3
 766 938 766 938 669.5 1026 c 128,-1,4
 573 1114 573 1114 462 1114 c 0,5,6
 375 1114 375 1114 324 1067.5 c 128,-1,7
 273 1021 273 1021 273 961 c 0,8,9
 273 923 273 923 291 894 c 0,10,11
 316 852 316 852 371 814 c 0,12,13
 411 787 411 787 554 714 c 0,14,15
 757 616 757 616 828 528 c 0,16,17
 898 439 898 439 898 325 c 0,18,19
 898 180 898 180 785 76 c 128,-1,20
 672 -28 672 -28 498 -28 c 0,21,22
 445 -28 445 -28 397 -16.5 c 128,-1,23
 349 -5 349 -5 275 25 c 0,24,25
 234 42 234 42 209 42 c 0,26,27
 187 42 187 42 162 25 c 128,-1,28
 137 8 137 8 121 -27 c 1,29,-1
 91 -27 l 1,30,-1
 91 409 l 1,31,-1
 121 409 l 1,32,33
 159 225 159 225 265 128.5 c 128,-1,34
 371 32 371 32 495 32 c 0,35,36
 590 32 590 32 646 84 c 128,-1,37
 702 136 702 136 702 205 c 0,38,39
 702 245 702 245 680.5 283 c 128,-1,40
 659 321 659 321 615 356 c 128,-1,41
 571 391 571 391 459 445 c 0,42,43
 302 523 302 523 233 577 c 128,-1,44
 164 631 164 631 127.5 698.5 c 128,-1,45
 91 766 91 766 91 847 c 0,46,47
 91 984 91 984 192.5 1081 c 128,-1,48
 294 1178 294 1178 446 1178 c 0,49,50
 502 1178 502 1178 554 1164 c 0,51,52
 595 1153 595 1153 652.5 1125.5 c 128,-1,53
 710 1098 710 1098 732 1098 c 0,54,55
 755 1098 755 1098 767.5 1112 c 128,-1,56
 780 1126 780 1126 792 1178 c 1,57,-1
 817 1178 l 1,0,-1
EndSplineSet
EndChar

StartChar: T
Encoding: 84 84 46
Width: 1160
Flags: W
LayerCount: 2
Fore
SplineSet
1097 1151 m 1,0,-1
 1097 840 l 1,1,-1
 1066 840 l 1,2,3
 1039 948 1039 948 1006 995 c 128,-1,4
 973 1042 973 1042 915 1070 c 0,5,6
 883 1084 883 1084 802 1084 c 2,7,-1
 717 1084 l 1,8,-1
 717 198 l 2,9,10
 717 108 717 108 726.5 86.5 c 128,-1,11
 736 65 736 65 764.5 48.5 c 128,-1,12
 793 32 793 32 842 32 c 2,13,-1
 881 32 l 1,14,-1
 881 0 l 1,15,-1
 278 0 l 1,16,-1
 278 32 l 1,17,-1
 316 32 l 2,18,19
 367 32 367 32 396 49 c 0,20,21
 418 61 418 61 431 91 c 0,22,23
 441 110 441 110 441 198 c 2,24,-1
 441 1084 l 1,25,-1
 358 1084 l 2,26,27
 241 1084 241 1084 189 1036 c 0,28,29
 114 967 114 967 95 840 c 1,30,-1
 63 840 l 1,31,-1
 63 1151 l 1,32,-1
 1097 1151 l 1,0,-1
EndSplineSet
EndChar

StartChar: U
Encoding: 85 85 47
Width: 1255
Flags: W
LayerCount: 2
Fore
SplineSet
40 1151 m 1,0,-1
 635 1151 l 1,1,-1
 635 1119 l 1,2,-1
 605 1119 l 2,3,4
 538 1119 538 1119 513 1105.5 c 128,-1,5
 488 1092 488 1092 477 1067 c 128,-1,6
 466 1042 466 1042 466 944 c 2,7,-1
 466 381 l 2,8,9
 466 226 466 226 489.5 175.5 c 128,-1,10
 513 125 513 125 566.5 92 c 128,-1,11
 620 59 620 59 702 59 c 0,12,13
 796 59 796 59 861.5 101 c 128,-1,14
 927 143 927 143 959 216.5 c 128,-1,15
 991 290 991 290 991 475 c 2,16,-1
 991 944 l 2,17,18
 991 1021 991 1021 975.5 1054.5 c 128,-1,19
 960 1088 960 1088 936 1100 c 0,20,21
 898 1119 898 1119 828 1119 c 1,22,-1
 828 1151 l 1,23,-1
 1225 1151 l 1,24,-1
 1225 1119 l 1,25,-1
 1202 1119 l 2,26,27
 1153 1119 1153 1119 1121 1099.5 c 128,-1,28
 1089 1080 1089 1080 1075 1042 c 0,29,30
 1063 1014 1063 1014 1063 944 c 2,31,-1
 1063 508 l 2,32,33
 1063 304 1063 304 1036.5 214 c 128,-1,34
 1010 124 1010 124 906.5 48 c 128,-1,35
 803 -28 803 -28 624 -28 c 0,36,37
 475 -28 475 -28 392 13 c 0,38,39
 283 67 283 67 236.5 151.5 c 128,-1,40
 190 236 190 236 190 381 c 2,41,-1
 190 944 l 2,42,43
 190 1043 190 1043 178.5 1067.5 c 128,-1,44
 167 1092 167 1092 140 1106 c 128,-1,45
 113 1120 113 1120 40 1119 c 1,46,-1
 40 1151 l 1,0,-1
EndSplineSet
EndChar

StartChar: V
Encoding: 86 86 48
Width: 1255
Flags: W
LayerCount: 2
Fore
SplineSet
1238 1151 m 1,0,-1
 1238 1119 l 1,1,2
 1174 1110 1174 1110 1126 1053 c 0,3,4
 1090 1010 1090 1010 1020 852 c 2,5,-1
 623 -27 l 1,6,-1
 595 -27 l 1,7,-1
 200 889 l 2,8,9
 129 1055 129 1055 105 1083.5 c 128,-1,10
 81 1112 81 1112 14 1119 c 1,11,-1
 14 1151 l 1,12,-1
 565 1151 l 1,13,-1
 565 1119 l 1,14,-1
 546 1119 l 2,15,16
 473 1119 473 1119 445 1101 c 0,17,18
 425 1089 425 1089 425 1063 c 0,19,20
 425 1048 425 1048 432 1027.5 c 128,-1,21
 439 1007 439 1007 477 916 c 2,22,-1
 723 342 l 1,23,-1
 951 852 l 2,24,25
 991 946 991 946 1000.5 977 c 128,-1,26
 1010 1008 1010 1008 1010 1030 c 0,27,28
 1010 1056 1010 1056 996.5 1075.5 c 128,-1,29
 983 1095 983 1095 957 1106 c 0,30,31
 920 1119 920 1119 860 1119 c 1,32,-1
 860 1151 l 1,33,-1
 1238 1151 l 1,0,-1
EndSplineSet
EndChar

StartChar: W
Encoding: 87 87 49
Width: 1738
Flags: W
LayerCount: 2
Fore
SplineSet
1722 1151 m 1,0,-1
 1722 1119 l 1,1,2
 1691 1117 1691 1117 1668.5 1101.5 c 128,-1,3
 1646 1086 1646 1086 1630 1055 c 0,4,5
 1624 1045 1624 1045 1577 923 c 2,6,-1
 1217 -27 l 1,7,-1
 1182 -27 l 1,8,-1
 898 714 l 1,9,-1
 584 -27 l 1,10,-1
 552 -27 l 1,11,-1
 173 914 l 2,12,13
 116 1055 116 1055 93 1084.5 c 128,-1,14
 70 1114 70 1114 15 1119 c 1,15,-1
 15 1151 l 1,16,-1
 514 1151 l 1,17,-1
 514 1119 l 1,18,19
 455 1118 455 1118 434 1101 c 128,-1,20
 413 1084 413 1084 413 1060 c 0,21,22
 413 1028 413 1028 456 923 c 2,23,-1
 681 365 l 1,24,-1
 863 801 l 1,25,-1
 815 923 l 2,26,27
 776 1024 776 1024 755 1057.5 c 128,-1,28
 734 1091 734 1091 706 1105 c 128,-1,29
 678 1119 678 1119 625 1119 c 1,30,-1
 625 1151 l 1,31,-1
 1182 1151 l 1,32,-1
 1182 1119 l 1,33,34
 1124 1118 1124 1118 1098 1110 c 0,35,36
 1080 1105 1080 1105 1070 1090.5 c 128,-1,37
 1060 1076 1060 1076 1060 1059 c 0,38,39
 1060 1039 1060 1039 1098 939 c 2,40,-1
 1308 393 l 1,41,-1
 1496 887 l 2,42,43
 1526 964 1526 964 1532 992 c 128,-1,44
 1538 1020 1538 1020 1538 1043 c 0,45,46
 1538 1078 1538 1078 1515 1098 c 128,-1,47
 1492 1118 1492 1118 1424 1119 c 1,48,-1
 1424 1151 l 1,49,-1
 1722 1151 l 1,0,-1
EndSplineSet
EndChar

StartChar: X
Encoding: 88 88 50
Width: 1255
Flags: W
LayerCount: 2
Fore
SplineSet
735 675 m 1,0,-1
 1052 204 l 2,1,2
 1131 87 1131 87 1164.5 61.5 c 128,-1,3
 1198 36 1198 36 1243 32 c 1,4,-1
 1243 0 l 1,5,-1
 682 0 l 1,6,-1
 682 32 l 1,7,8
 749 36 749 36 768.5 51.5 c 128,-1,9
 788 67 788 67 788 89 c 0,10,11
 788 104 788 104 783 117 c 0,12,13
 771 142 771 142 723 211 c 2,14,-1
 554 460 l 1,15,-1
 381 245 l 2,16,17
 300 147 300 147 300 112 c 0,18,19
 300 88 300 88 320.5 67 c 128,-1,20
 341 46 341 46 381 36 c 0,21,22
 400 32 400 32 455 32 c 1,23,-1
 455 0 l 1,24,-1
 12 0 l 1,25,-1
 12 32 l 1,26,27
 87 42 87 42 130 72 c 0,28,29
 188 112 188 112 289 235 c 2,30,-1
 518 513 l 1,31,-1
 225 944 l 2,32,33
 153 1050 153 1050 142 1062 c 0,34,35
 120 1090 120 1090 97.5 1102 c 128,-1,36
 75 1114 75 1114 36 1119 c 1,37,-1
 36 1151 l 1,38,-1
 607 1151 l 1,39,-1
 607 1119 l 1,40,-1
 580 1119 l 2,41,42
 530 1119 530 1119 510 1104 c 128,-1,43
 490 1089 490 1089 490 1064 c 0,44,45
 490 1046 490 1046 497 1032 c 2,46,-1
 554 944 l 1,47,-1
 699 727 l 1,48,-1
 819 876 l 2,49,50
 913 990 913 990 913 1036 c 0,51,52
 913 1059 913 1059 899.5 1078 c 128,-1,53
 886 1097 886 1097 861.5 1108 c 128,-1,54
 837 1119 837 1119 785 1119 c 1,55,-1
 785 1151 l 1,56,-1
 1208 1151 l 1,57,-1
 1208 1119 l 1,58,59
 1159 1118 1159 1118 1128 1107 c 128,-1,60
 1097 1096 1097 1096 1063 1064 c 0,61,62
 1041 1044 1041 1044 953 938 c 2,63,-1
 735 675 l 1,0,-1
EndSplineSet
EndChar

StartChar: Y
Encoding: 89 89 51
Width: 1255
Flags: W
LayerCount: 2
Fore
SplineSet
1236 1151 m 1,0,-1
 1236 1119 l 1,1,2
 1179 1112 1179 1112 1148 1086 c 0,3,4
 1106 1050 1106 1050 1014 893 c 2,5,-1
 765 476 l 1,6,-1
 765 198 l 2,7,8
 765 108 765 108 774 86.5 c 128,-1,9
 783 65 783 65 810.5 48.5 c 128,-1,10
 838 32 838 32 884 32 c 2,11,-1
 949 32 l 1,12,-1
 949 0 l 1,13,-1
 304 0 l 1,14,-1
 304 32 l 1,15,-1
 363 32 l 2,16,17
 413 32 413 32 444 49 c 0,18,19
 466 61 466 61 478 91 c 0,20,21
 488 110 488 110 488 198 c 2,22,-1
 488 427 l 1,23,-1
 218 921 l 2,24,25
 137 1067 137 1067 103.5 1092.5 c 128,-1,26
 70 1118 70 1118 15 1119 c 1,27,-1
 15 1151 l 1,28,-1
 566 1151 l 1,29,-1
 566 1119 l 1,30,-1
 542 1119 l 2,31,32
 492 1119 492 1119 472.5 1105 c 128,-1,33
 453 1091 453 1091 453 1075 c 0,34,35
 453 1044 453 1044 519 921 c 2,36,-1
 728 541 l 1,37,-1
 936 887 l 2,38,39
 1012 1014 1012 1014 1012 1056 c 0,40,41
 1012 1079 1012 1079 991 1094 c 0,42,43
 961 1115 961 1115 884 1119 c 1,44,-1
 884 1151 l 1,45,-1
 1236 1151 l 1,0,-1
EndSplineSet
EndChar

StartChar: Z
Encoding: 90 90 52
Width: 1160
Flags: W
LayerCount: 2
Fore
SplineSet
1061 1151 m 1,0,-1
 384 65 l 1,1,-1
 604 65 l 2,2,3
 759 65 759 65 820 84 c 0,4,5
 922 114 922 114 994.5 196 c 128,-1,6
 1067 278 1067 278 1096 416 c 1,7,-1
 1129 416 l 1,8,-1
 1082 0 l 1,9,-1
 28 0 l 1,10,-1
 706 1089 l 1,11,-1
 534 1089 l 2,12,13
 435 1089 435 1089 404 1082 c 0,14,15
 346 1072 346 1072 293.5 1039 c 128,-1,16
 241 1006 241 1006 206.5 952 c 128,-1,17
 172 898 172 898 152 814 c 1,18,-1
 121 814 l 1,19,-1
 152 1151 l 1,20,-1
 1061 1151 l 1,0,-1
EndSplineSet
EndChar

StartChar: bracketleft
Encoding: 91 91 53
Width: 580
Flags: W
LayerCount: 2
Fore
SplineSet
181 -317 m 1,0,-1
 181 1151 l 1,1,-1
 523 1151 l 1,2,-1
 523 1115 l 1,3,-1
 485 1115 l 2,4,5
 428 1115 428 1115 409.5 1104 c 128,-1,6
 391 1093 391 1093 381 1070 c 128,-1,7
 371 1047 371 1047 371 961 c 2,8,-1
 371 -134 l 2,9,10
 371 -215 371 -215 374 -227 c 0,11,12
 382 -258 382 -258 402.5 -272 c 128,-1,13
 423 -286 423 -286 485 -286 c 2,14,-1
 523 -286 l 1,15,-1
 523 -317 l 1,16,-1
 181 -317 l 1,0,-1
EndSplineSet
EndChar

StartChar: backslash
Encoding: 92 92 54
Width: 483
Flags: W
LayerCount: 2
Fore
SplineSet
2 1178 m 1,0,-1
 108 1178 l 1,1,-1
 488 -27 l 1,2,-1
 379 -27 l 1,3,-1
 2 1178 l 1,0,-1
EndSplineSet
EndChar

StartChar: bracketright
Encoding: 93 93 55
Width: 580
Flags: W
LayerCount: 2
Fore
SplineSet
399 1151 m 1,0,-1
 399 -317 l 1,1,-1
 57 -317 l 1,2,-1
 57 -285 l 1,3,-1
 95 -285 l 2,4,5
 151 -285 151 -285 170 -274 c 128,-1,6
 189 -263 189 -263 199 -240.5 c 128,-1,7
 209 -218 209 -218 209 -134 c 2,8,-1
 209 965 l 2,9,10
 209 1046 209 1046 206 1058 c 0,11,12
 198 1088 198 1088 177 1102.5 c 128,-1,13
 156 1117 156 1117 95 1117 c 2,14,-1
 57 1117 l 1,15,-1
 57 1151 l 1,16,-1
 399 1151 l 1,0,-1
EndSplineSet
EndChar

StartChar: asciicircum
Encoding: 94 94 56
Width: 1010
Flags: W
LayerCount: 2
Fore
SplineSet
125 565 m 1,0,-1
 474 1174 l 1,1,-1
 543 1174 l 1,2,-1
 886 565 l 1,3,-1
 752 565 l 1,4,-1
 500 1000 l 1,5,-1
 254 565 l 1,6,-1
 125 565 l 1,0,-1
EndSplineSet
EndChar

StartChar: underscore
Encoding: 95 95 57
Width: 869
Flags: W
LayerCount: 2
Fore
SplineSet
-16 -264 m 1,0,-1
 884 -264 l 1,1,-1
 884 -375 l 1,2,-1
 -16 -375 l 1,3,-1
 -16 -264 l 1,0,-1
EndSplineSet
EndChar

StartChar: grave
Encoding: 96 96 58
Width: 212
Flags: W
LayerCount: 2
Fore
SplineSet
120 1002 m 1,0,1
 155 922 155 922 176 851 c 1,2,3
 183 799 183 799 172 805 c 1,4,5
 150 837 150 837 102.5 927 c 128,-1,6
 55 1017 55 1017 46 1049 c 1,7,8
 43 1086 43 1086 120 1002 c 1,0,1
EndSplineSet
EndChar

StartChar: a
Encoding: 97 97 59
Width: 869
Flags: W
LayerCount: 2
Fore
SplineSet
497 117 m 1,0,1
 351 -11 351 -11 235 -11 c 0,2,3
 167 -11 167 -11 122.5 33.5 c 128,-1,4
 78 78 78 78 78 145 c 0,5,6
 78 235 78 235 156 308 c 128,-1,7
 234 381 234 381 497 501 c 1,8,-1
 497 582 l 2,9,10
 497 671 497 671 487 695 c 128,-1,11
 477 719 477 719 450 736.5 c 128,-1,12
 423 754 423 754 389 754 c 0,13,14
 333 754 333 754 298 728 c 0,15,16
 276 712 276 712 276 692 c 0,17,18
 276 675 276 675 299 649 c 0,19,20
 332 613 332 613 332 578 c 0,21,22
 332 537 332 537 300.5 507 c 128,-1,23
 269 477 269 477 219 477 c 0,24,25
 166 477 166 477 130 509.5 c 128,-1,26
 94 542 94 542 94 585 c 0,27,28
 94 648 94 648 142.5 702.5 c 128,-1,29
 191 757 191 757 277.5 787 c 128,-1,30
 364 817 364 817 457 817 c 0,31,32
 571 817 571 817 636.5 769.5 c 128,-1,33
 702 722 702 722 722 666 c 0,34,35
 734 630 734 630 734 501 c 2,36,-1
 734 193 l 2,37,38
 734 139 734 139 738 125.5 c 128,-1,39
 742 112 742 112 750.5 105 c 128,-1,40
 759 98 759 98 771 98 c 0,41,42
 792 98 792 98 815 129 c 1,43,-1
 841 108 l 1,44,45
 798 46 798 46 752.5 17.5 c 128,-1,46
 707 -11 707 -11 649 -11 c 0,47,48
 582 -11 582 -11 544 21 c 128,-1,49
 506 53 506 53 497 117 c 1,0,1
497 179 m 1,50,-1
 497 445 l 1,51,52
 393 384 393 384 343 316 c 0,53,54
 311 269 311 269 311 223 c 0,55,56
 311 184 311 184 338 156 c 0,57,58
 359 131 359 131 399 131 c 0,59,60
 441 131 441 131 497 179 c 1,50,-1
EndSplineSet
EndChar

StartChar: b
Encoding: 98 98 60
Width: 967
Flags: W
LayerCount: 2
Fore
SplineSet
367 1151 m 1,0,-1
 367 713 l 1,1,2
 466 817 466 817 584 817 c 0,3,4
 667 817 667 817 738.5 769.5 c 128,-1,5
 810 722 810 722 851.5 633.5 c 128,-1,6
 893 545 893 545 893 430 c 0,7,8
 893 299 893 299 840.5 193 c 128,-1,9
 788 87 788 87 702 32 c 128,-1,10
 616 -23 616 -23 503 -23 c 0,11,12
 439 -23 439 -23 389 -3 c 128,-1,13
 339 17 339 17 290 63 c 1,14,-1
 159 -23 l 1,15,-1
 130 -23 l 1,16,-1
 130 987 l 2,17,18
 130 1055 130 1055 125 1072 c 0,19,20
 117 1095 117 1095 98 1106.5 c 128,-1,21
 79 1118 79 1118 36 1119 c 1,22,-1
 36 1151 l 1,23,-1
 367 1151 l 1,0,-1
367 638 m 1,24,-1
 367 285 l 2,25,26
 367 177 367 177 371 147 c 0,27,28
 381 98 381 98 412.5 67 c 128,-1,29
 444 36 444 36 495 36 c 0,30,31
 537 36 537 36 568 60.5 c 128,-1,32
 599 85 599 85 619.5 158 c 128,-1,33
 640 231 640 231 640 422 c 0,34,35
 640 604 640 604 595 671 c 0,36,37
 563 721 563 721 507 721 c 0,38,39
 434 721 434 721 367 638 c 1,24,-1
EndSplineSet
EndChar

StartChar: c
Encoding: 99 99 61
Width: 772
Flags: W
LayerCount: 2
Fore
SplineSet
707 205 m 1,0,-1
 732 184 l 1,1,2
 677 78 677 78 593 27.5 c 128,-1,3
 509 -23 509 -23 414 -23 c 0,4,5
 257 -23 257 -23 161.5 96 c 128,-1,6
 66 215 66 215 66 384 c 0,7,8
 66 545 66 545 153 669 c 0,9,10
 257 817 257 817 441 817 c 0,11,12
 563 817 563 817 636 755 c 128,-1,13
 709 693 709 693 709 617 c 0,14,15
 709 569 709 569 679.5 540 c 128,-1,16
 650 511 650 511 603 511 c 0,17,18
 552 511 552 511 520 544 c 128,-1,19
 488 577 488 577 479 661 c 0,20,21
 475 714 475 714 456 736 c 0,22,23
 435 757 435 757 410 757 c 0,24,25
 369 757 369 757 339 714 c 0,26,27
 295 649 295 649 295 514 c 0,28,29
 295 402 295 402 331.5 300 c 128,-1,30
 368 198 368 198 428 147 c 1,31,32
 476 112 476 112 540 112 c 0,33,34
 581 112 581 112 618.5 131.5 c 128,-1,35
 656 151 656 151 707 205 c 1,0,-1
EndSplineSet
EndChar

StartChar: d
Encoding: 100 100 62
Width: 967
Flags: W
LayerCount: 2
Fore
SplineSet
830 1151 m 1,0,-1
 830 237 l 2,1,2
 830 145 830 145 835 128 c 0,3,4
 842 100 842 100 861.5 86.5 c 128,-1,5
 881 73 881 73 927 70 c 1,6,-1
 927 41 l 1,7,-1
 593 -23 l 1,8,-1
 593 102 l 1,9,10
 532 29 532 29 485 3 c 128,-1,11
 438 -23 438 -23 379 -23 c 0,12,13
 227 -23 227 -23 138 112 c 0,14,15
 67 223 67 223 67 383 c 0,16,17
 67 511 67 511 111.5 612 c 128,-1,18
 156 713 156 713 232 765 c 128,-1,19
 308 817 308 817 396 817 c 0,20,21
 455 817 455 817 498.5 795.5 c 128,-1,22
 542 774 542 774 593 719 c 1,23,-1
 593 957 l 2,24,25
 593 1048 593 1048 584 1067 c 0,26,27
 575 1092 575 1092 554 1103.5 c 128,-1,28
 533 1115 533 1115 477 1115 c 1,29,-1
 477 1151 l 1,30,-1
 830 1151 l 1,0,-1
593 614 m 1,31,32
 530 734 530 734 439 734 c 0,33,34
 407 734 407 734 388 717 c 0,35,36
 356 690 356 690 336 624.5 c 128,-1,37
 316 559 316 559 316 422 c 0,38,39
 316 270 316 270 337.5 198 c 128,-1,40
 359 126 359 126 399 94 c 0,41,42
 418 78 418 78 453 78 c 0,43,44
 527 78 527 78 593 195 c 1,45,-1
 593 614 l 1,31,32
EndSplineSet
EndChar

StartChar: e
Encoding: 101 101 63
Width: 772
Flags: W
LayerCount: 2
Fore
SplineSet
731 425 m 1,0,-1
 295 425 l 1,1,2
 304 267 304 267 381 177 c 0,3,4
 438 105 438 105 519 105 c 0,5,6
 571 105 571 105 613 133.5 c 128,-1,7
 655 162 655 162 702 235 c 1,8,-1
 731 218 l 1,9,10
 667 86 667 86 588.5 31.5 c 128,-1,11
 510 -23 510 -23 407 -23 c 0,12,13
 231 -23 231 -23 140 112 c 0,14,15
 67 222 67 222 67 384 c 0,16,17
 67 583 67 583 175 700 c 128,-1,18
 283 817 283 817 426 817 c 0,19,20
 546 817 546 817 634.5 718 c 128,-1,21
 723 619 723 619 731 425 c 1,0,-1
522 481 m 1,22,23
 522 618 522 618 507 669.5 c 128,-1,24
 492 721 492 721 460 746 c 0,25,26
 444 762 444 762 413 762 c 0,27,28
 370 762 370 762 341 720 c 0,29,30
 290 643 290 643 290 511 c 2,31,-1
 290 481 l 1,32,-1
 522 481 l 1,22,23
EndSplineSet
EndChar

StartChar: f
Encoding: 102 102 64
Width: 580
Flags: W
LayerCount: 2
Fore
SplineSet
406 711 m 1,0,-1
 406 159 l 2,1,2
 406 79 406 79 423 59 c 0,3,4
 452 28 452 28 524 31 c 1,5,-1
 524 0 l 1,6,-1
 56 0 l 1,7,-1
 56 31 l 1,8,9
 109 32 109 32 132.5 43 c 128,-1,10
 156 54 156 54 164 74.5 c 128,-1,11
 172 95 172 95 172 159 c 2,12,-1
 172 711 l 1,13,-1
 56 711 l 1,14,-1
 56 794 l 1,15,-1
 172 794 l 1,16,-1
 172 852 l 1,17,-1
 171 893 l 2,18,19
 171 1014 171 1014 260.5 1096 c 128,-1,20
 350 1178 350 1178 502 1178 c 0,21,22
 606 1178 606 1178 657 1138.5 c 128,-1,23
 708 1099 708 1099 708 1052 c 0,24,25
 708 1012 708 1012 677 984.5 c 128,-1,26
 646 957 646 957 594 957 c 0,27,28
 550 957 550 957 524 980.5 c 128,-1,29
 498 1004 498 1004 498 1031 c 0,30,31
 498 1039 498 1039 502 1063 c 0,32,33
 507 1077 507 1077 507 1090 c 0,34,35
 507 1108 507 1108 496 1116 c 0,36,37
 481 1129 481 1129 463 1129 c 0,38,39
 438 1129 438 1129 421.5 1109 c 128,-1,40
 405 1089 405 1089 405 1043 c 2,41,-1
 406 895 l 1,42,-1
 406 794 l 1,43,-1
 524 794 l 1,44,-1
 524 711 l 1,45,-1
 406 711 l 1,0,-1
EndSplineSet
EndChar

StartChar: g
Encoding: 103 103 65
Width: 869
Flags: W
LayerCount: 2
Fore
SplineSet
567 784 m 1,0,-1
 835 784 l 1,1,-1
 835 691 l 1,2,-1
 683 691 l 1,3,4
 724 649 724 649 741 616 c 0,5,6
 762 570 762 570 762 519 c 0,7,8
 762 435 762 435 715 372.5 c 128,-1,9
 668 310 668 310 587 275.5 c 128,-1,10
 506 241 506 241 443 241 c 0,11,12
 437 241 437 241 340 244 c 0,13,14
 302 244 302 244 276.5 218.5 c 128,-1,15
 251 193 251 193 251 159 c 0,16,17
 251 128 251 128 274 108.5 c 128,-1,18
 297 89 297 89 350 89 c 2,19,-1
 497 91 l 2,20,21
 675 91 675 91 742 52 c 0,22,23
 838 -2 838 -2 838 -116 c 0,24,25
 838 -188 838 -188 793.5 -246.5 c 128,-1,26
 749 -305 749 -305 677 -333 c 0,27,28
 567 -375 567 -375 425 -375 c 0,29,30
 318 -375 318 -375 230 -354 c 128,-1,31
 142 -333 142 -333 104 -297 c 128,-1,32
 66 -261 66 -261 66 -219 c 0,33,34
 66 -180 66 -180 95 -149 c 128,-1,35
 124 -118 124 -118 204 -96 c 1,36,37
 93 -42 93 -42 93 54 c 0,38,39
 93 112 93 112 138 167.5 c 128,-1,40
 183 223 183 223 281 264 c 1,41,42
 167 305 167 305 116.5 373.5 c 128,-1,43
 66 442 66 442 66 530 c 0,44,45
 66 648 66 648 160.5 732.5 c 128,-1,46
 255 817 255 817 405 817 c 0,47,48
 484 817 484 817 567 784 c 1,0,-1
422 765 m 0,49,50
 371 765 371 765 337.5 715.5 c 128,-1,51
 304 666 304 666 304 509 c 0,52,53
 304 383 304 383 337.5 335.5 c 128,-1,54
 371 288 371 288 417 288 c 0,55,56
 467 288 467 288 501 335 c 128,-1,57
 535 382 535 382 535 517 c 0,58,59
 535 669 535 669 498 723 c 0,60,61
 470 765 470 765 422 765 c 0,49,50
371 -117 m 0,62,63
 284 -117 284 -117 257 -131 c 0,64,65
 209 -158 209 -158 209 -202 c 256,66,67
 209 -246 209 -246 258 -281 c 128,-1,68
 307 -316 307 -316 446 -316 c 0,69,70
 564 -316 564 -316 632 -284.5 c 128,-1,71
 700 -253 700 -253 700 -198 c 0,72,73
 700 -177 700 -177 687 -161 c 0,74,75
 665 -136 665 -136 618 -126.5 c 128,-1,76
 571 -117 571 -117 371 -117 c 0,62,63
EndSplineSet
EndChar

StartChar: h
Encoding: 104 104 66
Width: 967
Flags: W
LayerCount: 2
Fore
SplineSet
383 1151 m 1,0,-1
 383 691 l 1,1,2
 447 761 447 761 501.5 789 c 128,-1,3
 556 817 556 817 616 817 c 0,4,5
 690 817 690 817 743 774.5 c 128,-1,6
 796 732 796 732 813.5 674.5 c 128,-1,7
 831 617 831 617 831 481 c 2,8,-1
 831 172 l 2,9,10
 831 82 831 82 848 59 c 128,-1,11
 865 36 865 36 916 31 c 1,12,-1
 916 0 l 1,13,-1
 514 0 l 1,14,-1
 514 31 l 1,15,16
 556 36 556 36 578 65 c 0,17,18
 594 87 594 87 594 172 c 2,19,-1
 594 527 l 2,20,21
 594 625 594 625 586 650 c 128,-1,22
 578 675 578 675 560 688.5 c 128,-1,23
 542 702 542 702 519 702 c 0,24,25
 485 702 485 702 453 679 c 128,-1,26
 421 656 421 656 383 597 c 1,27,-1
 383 172 l 2,28,29
 383 87 383 87 395 66 c 0,30,31
 412 37 412 37 462 31 c 1,32,-1
 462 0 l 1,33,-1
 59 0 l 1,34,-1
 59 31 l 1,35,36
 109 36 109 36 130 63 c 0,37,38
 145 82 145 82 145 172 c 2,39,-1
 145 978 l 2,40,41
 145 1068 145 1068 128.5 1090.5 c 128,-1,42
 112 1113 112 1113 59 1119 c 1,43,-1
 59 1151 l 1,44,-1
 383 1151 l 1,0,-1
EndSplineSet
EndChar

StartChar: i
Encoding: 105 105 67
Width: 483
Flags: W
LayerCount: 2
Fore
SplineSet
249 1178 m 0,0,1
 305 1178 305 1178 343 1139.5 c 128,-1,2
 381 1101 381 1101 381 1046 c 256,3,4
 381 991 381 991 342.5 953.5 c 128,-1,5
 304 916 304 916 249 916 c 0,6,7
 195 916 195 916 157 953.5 c 128,-1,8
 119 991 119 991 119 1046 c 256,9,10
 119 1101 119 1101 157 1139.5 c 128,-1,11
 195 1178 195 1178 249 1178 c 0,0,1
369 794 m 1,12,-1
 369 164 l 2,13,14
 369 81 369 81 388 57.5 c 128,-1,15
 407 34 407 34 465 31 c 1,16,-1
 465 0 l 1,17,-1
 36 0 l 1,18,-1
 36 31 l 1,19,20
 88 32 88 32 113 61 c 0,21,22
 130 81 130 81 130 164 c 2,23,-1
 130 628 l 2,24,25
 130 712 130 712 110.5 735.5 c 128,-1,26
 91 759 91 759 36 762 c 1,27,-1
 36 794 l 1,28,-1
 369 794 l 1,12,-1
EndSplineSet
EndChar

StartChar: j
Encoding: 106 106 68
Width: 580
Flags: W
LayerCount: 2
Fore
SplineSet
302 1178 m 0,0,1
 357 1178 357 1178 394.5 1139.5 c 128,-1,2
 432 1101 432 1101 432 1048 c 0,3,4
 432 994 432 994 394 956 c 128,-1,5
 356 918 356 918 302 918 c 256,6,7
 248 918 248 918 210 956 c 128,-1,8
 172 994 172 994 172 1048 c 0,9,10
 172 1101 172 1101 210 1139.5 c 128,-1,11
 248 1178 248 1178 302 1178 c 0,0,1
422 794 m 1,12,-1
 422 -28 l 2,13,14
 422 -144 422 -144 406 -198 c 0,15,16
 385 -278 385 -278 322 -326.5 c 128,-1,17
 259 -375 259 -375 156 -375 c 0,18,19
 51 -375 51 -375 1 -332.5 c 128,-1,20
 -49 -290 -49 -290 -49 -230 c 0,21,22
 -49 -193 -49 -193 -23 -165.5 c 128,-1,23
 3 -138 3 -138 38 -138 c 0,24,25
 70 -138 70 -138 89 -157.5 c 128,-1,26
 108 -177 108 -177 108 -214 c 0,27,28
 108 -224 108 -224 107 -237 c 0,29,30
 105 -255 105 -255 105 -263 c 0,31,32
 105 -293 105 -293 119 -306 c 0,33,34
 132 -320 132 -320 154 -320 c 0,35,36
 173 -320 173 -320 187 -303 c 128,-1,37
 201 -286 201 -286 201 -255 c 0,38,39
 201 -240 201 -240 197 -188 c 0,40,41
 188 -92 188 -92 188 -73 c 2,42,-1
 184 128 l 1,43,-1
 184 618 l 1,44,-1
 184 662 l 2,45,46
 184 717 184 717 166 736.5 c 128,-1,47
 148 756 148 756 91 762 c 1,48,-1
 91 794 l 1,49,-1
 422 794 l 1,12,-1
EndSplineSet
EndChar

StartChar: k
Encoding: 107 107 69
Width: 967
Flags: W
LayerCount: 2
Fore
SplineSet
381 1151 m 1,0,-1
 381 393 l 1,1,-1
 565 575 l 2,2,3
 622 630 622 630 636 654.5 c 128,-1,4
 650 679 650 679 650 702 c 0,5,6
 650 724 650 724 632 740 c 128,-1,7
 614 756 614 756 559 762 c 1,8,-1
 559 794 l 1,9,-1
 915 794 l 1,10,-1
 915 762 l 1,11,12
 863 760 863 760 825.5 738.5 c 128,-1,13
 788 717 788 717 676 607 c 2,14,-1
 588 523 l 1,15,-1
 776 249 l 2,16,17
 889 83 889 83 911 63 c 0,18,19
 939 34 939 34 983 31 c 1,20,-1
 983 0 l 1,21,-1
 573 0 l 1,22,-1
 573 31 l 1,23,24
 601 31 601 31 613 41 c 128,-1,25
 625 51 625 51 625 63 c 0,26,27
 625 83 625 83 588 135 c 2,28,-1
 432 365 l 1,29,-1
 381 316 l 1,30,-1
 381 172 l 2,31,32
 381 82 381 82 397.5 59 c 128,-1,33
 414 36 414 36 467 31 c 1,34,-1
 467 0 l 1,35,-1
 57 0 l 1,36,-1
 57 31 l 1,37,38
 108 36 108 36 129 63 c 0,39,40
 143 82 143 82 143 172 c 2,41,-1
 143 978 l 2,42,43
 143 1068 143 1068 126.5 1090.5 c 128,-1,44
 110 1113 110 1113 57 1119 c 1,45,-1
 57 1151 l 1,46,-1
 381 1151 l 1,0,-1
EndSplineSet
EndChar

StartChar: l
Encoding: 108 108 70
Width: 483
Flags: W
LayerCount: 2
Fore
SplineSet
370 1151 m 1,0,-1
 370 164 l 2,1,2
 370 81 370 81 389.5 57.5 c 128,-1,3
 409 34 409 34 465 31 c 1,4,-1
 465 0 l 1,5,-1
 36 0 l 1,6,-1
 36 31 l 1,7,8
 89 32 89 32 114 61 c 0,9,10
 131 81 131 81 131 164 c 2,11,-1
 131 987 l 2,12,13
 131 1070 131 1070 111.5 1093 c 128,-1,14
 92 1116 92 1116 36 1119 c 1,15,-1
 36 1151 l 1,16,-1
 370 1151 l 1,0,-1
EndSplineSet
EndChar

StartChar: m
Encoding: 109 109 71
Width: 1449
Flags: W
LayerCount: 2
Fore
SplineSet
389 794 m 1,0,-1
 389 690 l 1,1,2
 454 761 454 761 509 789 c 128,-1,3
 564 817 564 817 630 817 c 0,4,5
 707 817 707 817 758.5 781 c 128,-1,6
 810 745 810 745 838 672 c 1,7,8
 905 749 905 749 968 783 c 128,-1,9
 1031 817 1031 817 1099 817 c 0,10,11
 1182 817 1182 817 1231 779.5 c 128,-1,12
 1280 742 1280 742 1299 684 c 128,-1,13
 1318 626 1318 626 1318 498 c 2,14,-1
 1318 173 l 2,15,16
 1318 82 1318 82 1334 59.5 c 128,-1,17
 1350 37 1350 37 1402 31 c 1,18,-1
 1402 0 l 1,19,-1
 993 0 l 1,20,-1
 993 31 l 1,21,22
 1042 35 1042 35 1064 68 c 0,23,24
 1080 91 1080 91 1080 173 c 2,25,-1
 1080 514 l 2,26,27
 1080 620 1080 620 1071.5 649 c 128,-1,28
 1063 678 1063 678 1044.5 692.5 c 128,-1,29
 1026 707 1026 707 1002 707 c 0,30,31
 966 707 966 707 928 679.5 c 128,-1,32
 890 652 890 652 852 599 c 1,33,-1
 852 173 l 2,34,35
 852 87 852 87 867 66 c 0,36,37
 886 34 886 34 941 31 c 1,38,-1
 941 0 l 1,39,-1
 530 0 l 1,40,-1
 530 31 l 1,41,42
 563 32 563 32 582.5 46.5 c 128,-1,43
 602 61 602 61 608.5 82.5 c 128,-1,44
 615 104 615 104 615 173 c 2,45,-1
 615 514 l 2,46,47
 615 622 615 622 606 649.5 c 128,-1,48
 597 677 597 677 578 692 c 128,-1,49
 559 707 559 707 534 707 c 0,50,51
 500 707 500 707 474 690 c 0,52,53
 434 662 434 662 389 599 c 1,54,-1
 389 173 l 2,55,56
 389 89 389 89 405.5 62.5 c 128,-1,57
 422 36 422 36 474 31 c 1,58,-1
 474 0 l 1,59,-1
 65 0 l 1,60,-1
 65 31 l 1,61,62
 114 36 114 36 136 63 c 0,63,64
 151 82 151 82 151 173 c 2,65,-1
 151 622 l 2,66,67
 151 711 151 711 134 733.5 c 128,-1,68
 117 756 117 756 65 762 c 1,69,-1
 65 794 l 1,70,-1
 389 794 l 1,0,-1
EndSplineSet
EndChar

StartChar: n
Encoding: 110 110 72
Width: 967
Flags: W
LayerCount: 2
Fore
SplineSet
383 794 m 1,0,-1
 383 691 l 1,1,2
 444 757 444 757 499.5 787 c 128,-1,3
 555 817 555 817 620 817 c 0,4,5
 699 817 699 817 749 774.5 c 128,-1,6
 799 732 799 732 817 669 c 0,7,8
 830 619 830 619 830 481 c 2,9,-1
 830 173 l 2,10,11
 830 82 830 82 846.5 59 c 128,-1,12
 863 36 863 36 916 31 c 1,13,-1
 916 0 l 1,14,-1
 514 0 l 1,15,-1
 514 31 l 1,16,17
 560 36 560 36 580 68 c 0,18,19
 593 89 593 89 593 173 c 2,20,-1
 593 527 l 2,21,22
 593 624 593 624 585 649.5 c 128,-1,23
 577 675 577 675 559.5 688.5 c 128,-1,24
 542 702 542 702 519 702 c 0,25,26
 445 702 445 702 383 598 c 1,27,-1
 383 173 l 2,28,29
 383 84 383 84 399.5 60 c 128,-1,30
 416 36 416 36 460 31 c 1,31,-1
 460 0 l 1,32,-1
 59 0 l 1,33,-1
 59 31 l 1,34,35
 109 36 109 36 130 63 c 0,36,37
 145 82 145 82 145 173 c 2,38,-1
 145 622 l 2,39,40
 145 711 145 711 128.5 733.5 c 128,-1,41
 112 756 112 756 59 762 c 1,42,-1
 59 794 l 1,43,-1
 383 794 l 1,0,-1
EndSplineSet
EndChar

StartChar: o
Encoding: 111 111 73
Width: 869
Flags: W
LayerCount: 2
Fore
SplineSet
434 817 m 0,0,1
 537 817 537 817 625.5 764 c 128,-1,2
 714 711 714 711 761 612 c 128,-1,3
 808 513 808 513 808 396 c 0,4,5
 808 227 808 227 722 113 c 0,6,7
 617 -23 617 -23 435 -23 c 0,8,9
 257 -23 257 -23 160 102 c 128,-1,10
 63 227 63 227 63 392 c 0,11,12
 63 563 63 563 162.5 690 c 128,-1,13
 262 817 262 817 434 817 c 0,0,1
436 757 m 0,14,15
 392 757 392 757 361.5 724 c 128,-1,16
 331 691 331 691 321.5 594.5 c 128,-1,17
 312 498 312 498 312 328 c 0,18,19
 312 236 312 236 323 158 c 0,20,21
 333 98 333 98 363 66.5 c 128,-1,22
 393 35 393 35 434 35 c 0,23,24
 471 35 471 35 497 56 c 0,25,26
 530 85 530 85 542 137 c 0,27,28
 559 218 559 218 559 463 c 0,29,30
 559 606 559 606 542 660 c 128,-1,31
 525 714 525 714 495 740 c 0,32,33
 473 757 473 757 436 757 c 0,14,15
EndSplineSet
EndChar

StartChar: p
Encoding: 112 112 74
Width: 967
Flags: W
LayerCount: 2
Fore
SplineSet
367 81 m 1,0,-1
 367 -214 l 2,1,2
 367 -276 367 -276 376 -298 c 128,-1,3
 385 -320 385 -320 405.5 -330 c 128,-1,4
 426 -340 426 -340 487 -340 c 1,5,-1
 487 -371 l 1,6,-1
 33 -371 l 1,7,-1
 33 -340 l 1,8,9
 86 -338 86 -338 112 -311 c 0,10,11
 128 -290 128 -290 128 -210 c 2,12,-1
 128 628 l 2,13,14
 128 712 128 712 108.5 735.5 c 128,-1,15
 89 759 89 759 33 762 c 1,16,-1
 33 794 l 1,17,-1
 367 794 l 1,18,-1
 367 690 l 1,19,20
 407 750 407 750 452 777 c 0,21,22
 512 817 512 817 585 817 c 0,23,24
 672 817 672 817 744.5 762 c 128,-1,25
 817 707 817 707 854 609.5 c 128,-1,26
 891 512 891 512 891 402 c 0,27,28
 891 280 891 280 852.5 180.5 c 128,-1,29
 814 81 814 81 741 29 c 128,-1,30
 668 -23 668 -23 577 -23 c 0,31,32
 511 -23 511 -23 456 5 c 0,33,34
 412 28 412 28 367 81 c 1,0,-1
367 166 m 1,35,36
 439 63 439 63 522 63 c 0,37,38
 567 63 567 63 597 112 c 0,39,40
 641 182 641 182 641 383 c 0,41,42
 641 587 641 587 594 665 c 0,43,44
 562 713 562 713 508 713 c 0,45,46
 422 713 422 713 367 590 c 1,47,-1
 367 166 l 1,35,36
EndSplineSet
EndChar

StartChar: q
Encoding: 113 113 75
Width: 967
Flags: W
LayerCount: 2
Fore
SplineSet
593 83 m 1,0,1
 541 29 541 29 495 6 c 0,2,3
 435 -23 435 -23 371 -23 c 0,4,5
 222 -23 222 -23 135 109 c 0,6,7
 66 215 66 215 66 363 c 0,8,9
 66 487 66 487 118.5 594.5 c 128,-1,10
 171 702 171 702 262 759.5 c 128,-1,11
 353 817 353 817 456 817 c 0,12,13
 523 817 523 817 576 794.5 c 128,-1,14
 629 772 629 772 668 724 c 1,15,-1
 799 817 l 1,16,-1
 830 817 l 1,17,-1
 830 -210 l 2,18,19
 830 -288 830 -288 842 -307 c 0,20,21
 865 -339 865 -339 932 -340 c 1,22,-1
 932 -371 l 1,23,-1
 474 -371 l 1,24,-1
 474 -340 l 1,25,26
 527 -340 527 -340 550 -328 c 128,-1,27
 573 -316 573 -316 583 -297 c 128,-1,28
 593 -278 593 -278 593 -218 c 2,29,-1
 593 83 l 1,0,1
593 160 m 1,30,-1
 593 488 l 2,31,32
 593 624 593 624 578 668 c 128,-1,33
 563 712 563 712 522 745 c 0,34,35
 501 761 501 761 470 761 c 0,36,37
 405 761 405 761 370 703 c 0,38,39
 315 616 315 616 315 379 c 0,40,41
 315 197 315 197 363 123 c 0,42,43
 395 72 395 72 447 72 c 0,44,45
 478 72 478 72 516.5 93 c 128,-1,46
 555 114 555 114 593 160 c 1,30,-1
EndSplineSet
EndChar

StartChar: r
Encoding: 114 114 76
Width: 772
Flags: W
LayerCount: 2
Fore
SplineSet
389 794 m 1,0,-1
 389 614 l 1,1,2
 466 736 466 736 525.5 776.5 c 128,-1,3
 585 817 585 817 640 817 c 0,4,5
 689 817 689 817 717 788 c 128,-1,6
 745 759 745 759 745 706 c 0,7,8
 745 649 745 649 717.5 617 c 128,-1,9
 690 585 690 585 651 585 c 0,10,11
 605 585 605 585 573 614 c 128,-1,12
 541 643 541 643 533 648 c 0,13,14
 525 651 525 651 514 651 c 0,15,16
 490 651 490 651 467 634 c 0,17,18
 434 605 434 605 414 551 c 0,19,20
 389 469 389 469 389 370 c 2,21,-1
 389 188 l 1,22,-1
 389 139 l 2,23,24
 389 91 389 91 394 77 c 0,25,26
 405 54 405 54 425 43.5 c 128,-1,27
 445 33 445 33 492 31 c 1,28,-1
 492 0 l 1,29,-1
 64 0 l 1,30,-1
 64 31 l 1,31,32
 116 35 116 35 134 59 c 128,-1,33
 152 83 152 83 152 188 c 2,34,-1
 152 626 l 2,35,36
 152 693 152 693 145 712 c 0,37,38
 137 736 137 736 120.5 746.5 c 128,-1,39
 104 757 104 757 64 762 c 1,40,-1
 64 794 l 1,41,-1
 389 794 l 1,0,-1
EndSplineSet
EndChar

StartChar: s
Encoding: 115 115 77
Width: 677
Flags: W
LayerCount: 2
Fore
SplineSet
561 816 m 1,0,-1
 573 545 l 1,1,-1
 544 545 l 1,2,3
 492 666 492 666 436.5 710 c 128,-1,4
 381 754 381 754 326 754 c 0,5,6
 290 754 290 754 266 730.5 c 128,-1,7
 242 707 242 707 242 677 c 0,8,9
 242 654 242 654 259 633 c 0,10,11
 286 597 286 597 410.5 512.5 c 128,-1,12
 535 428 535 428 575 369.5 c 128,-1,13
 615 311 615 311 615 237 c 0,14,15
 615 172 615 172 582 108.5 c 128,-1,16
 549 45 549 45 488 11 c 128,-1,17
 427 -23 427 -23 354 -23 c 0,18,19
 298 -23 298 -23 202 12 c 0,20,21
 177 21 177 21 167 21 c 0,22,23
 140 21 140 21 121 -21 c 1,24,-1
 93 -21 l 1,25,-1
 79 264 l 1,26,-1
 108 264 l 1,27,28
 146 152 146 152 213 96 c 128,-1,29
 280 40 280 40 339 40 c 0,30,31
 381 40 381 40 406.5 65.5 c 128,-1,32
 432 91 432 91 432 125 c 0,33,34
 432 166 432 166 406.5 196 c 128,-1,35
 381 226 381 226 294 286 c 0,36,37
 163 375 163 375 125 423 c 0,38,39
 69 494 69 494 69 577 c 0,40,41
 69 669 69 669 132 743 c 128,-1,42
 195 817 195 817 316 817 c 0,43,44
 381 817 381 817 439 787 c 0,45,46
 463 774 463 774 477 774 c 0,47,48
 492 774 492 774 501.5 780.5 c 128,-1,49
 511 787 511 787 531 816 c 1,50,-1
 561 816 l 1,0,-1
EndSplineSet
EndChar

StartChar: t
Encoding: 116 116 78
Width: 580
Flags: W
LayerCount: 2
Fore
SplineSet
373 1084 m 1,0,-1
 373 794 l 1,1,-1
 563 794 l 1,2,-1
 563 710 l 1,3,-1
 373 710 l 1,4,-1
 373 219 l 2,5,6
 373 151 373 151 379.5 131.5 c 128,-1,7
 386 112 386 112 402 99.5 c 128,-1,8
 418 87 418 87 432 87 c 0,9,10
 488 87 488 87 537 171 c 1,11,-1
 563 152 l 1,12,13
 494 -11 494 -11 338 -11 c 0,14,15
 263 -11 263 -11 211 31 c 128,-1,16
 159 73 159 73 144 125 c 0,17,18
 136 154 136 154 136 281 c 2,19,-1
 136 710 l 1,20,-1
 32 710 l 1,21,-1
 32 740 l 1,22,23
 139 815 139 815 214 898.5 c 128,-1,24
 289 982 289 982 347 1084 c 1,25,-1
 373 1084 l 1,0,-1
EndSplineSet
EndChar

StartChar: u
Encoding: 117 117 79
Width: 967
Flags: W
LayerCount: 2
Fore
SplineSet
826 794 m 1,0,-1
 826 172 l 2,1,2
 826 82 826 82 843 59 c 128,-1,3
 860 36 860 36 911 31 c 1,4,-1
 911 0 l 1,5,-1
 587 0 l 1,6,-1
 587 106 l 1,7,8
 530 38 530 38 473.5 7.5 c 128,-1,9
 417 -23 417 -23 347 -23 c 0,10,11
 279 -23 279 -23 227.5 18 c 128,-1,12
 176 59 176 59 157.5 114 c 128,-1,13
 139 169 139 169 139 306 c 2,14,-1
 139 622 l 2,15,16
 139 711 139 711 122.5 733.5 c 128,-1,17
 106 756 106 756 53 762 c 1,18,-1
 53 794 l 1,19,-1
 377 794 l 1,20,-1
 377 252 l 2,21,22
 377 166 377 166 384.5 141.5 c 128,-1,23
 392 117 392 117 409.5 104 c 128,-1,24
 427 91 427 91 452 91 c 0,25,26
 481 91 481 91 507 108 c 0,27,28
 541 129 541 129 587 198 c 1,29,-1
 587 622 l 2,30,31
 587 711 587 711 570 733.5 c 128,-1,32
 553 756 553 756 501 762 c 1,33,-1
 501 794 l 1,34,-1
 826 794 l 1,0,-1
EndSplineSet
EndChar

StartChar: v
Encoding: 118 118 80
Width: 869
Flags: W
LayerCount: 2
Fore
SplineSet
417 -23 m 1,0,-1
 149 593 l 2,1,2
 102 702 102 702 74 732 c 0,3,4
 54 755 54 755 16 762 c 1,5,-1
 16 794 l 1,6,-1
 438 794 l 1,7,-1
 438 762 l 1,8,9
 399 762 399 762 384 748 c 0,10,11
 363 729 363 729 363 703 c 0,12,13
 363 672 363 672 402 585 c 2,14,-1
 531 287 l 1,15,-1
 636 545 l 2,16,17
 681 656 681 656 681 702 c 0,18,19
 681 728 681 728 662 744.5 c 128,-1,20
 643 761 643 761 595 762 c 1,21,-1
 595 794 l 1,22,-1
 854 794 l 1,23,-1
 854 762 l 1,24,25
 817 757 817 757 793.5 734 c 128,-1,26
 770 711 770 711 722 599 c 2,27,-1
 456 -23 l 1,28,-1
 417 -23 l 1,0,-1
EndSplineSet
EndChar

StartChar: w
Encoding: 119 119 81
Width: 1255
Flags: W
LayerCount: 2
Fore
SplineSet
846 -23 m 1,0,-1
 628 559 l 1,1,-1
 414 -23 l 1,2,-1
 371 -23 l 1,3,-1
 159 552 l 2,4,5
 112 683 112 683 78 723 c 0,6,7
 57 750 57 750 15 762 c 1,8,-1
 15 794 l 1,9,-1
 414 794 l 1,10,-1
 414 762 l 1,11,12
 374 762 374 762 358.5 750.5 c 128,-1,13
 343 739 343 739 343 723 c 0,14,15
 343 709 343 709 371 637 c 2,16,-1
 488 326 l 1,17,-1
 599 637 l 1,18,-1
 591 657 l 2,19,20
 565 721 565 721 546.5 738.5 c 128,-1,21
 528 756 528 756 488 762 c 1,22,-1
 488 794 l 1,23,-1
 894 794 l 1,24,-1
 894 762 l 1,25,26
 847 760 847 760 833.5 749.5 c 128,-1,27
 820 739 820 739 820 720 c 256,28,29
 820 701 820 701 846 637 c 2,30,-1
 957 326 l 1,31,-1
 1059 613 l 2,32,33
 1081 672 1081 672 1081 695 c 0,34,35
 1081 728 1081 728 1065 743.5 c 128,-1,36
 1049 759 1049 759 1002 762 c 1,37,-1
 1002 794 l 1,38,-1
 1238 794 l 1,39,-1
 1238 762 l 1,40,41
 1199 757 1199 757 1175.5 734.5 c 128,-1,42
 1152 712 1152 712 1116 606 c 2,43,-1
 894 -23 l 1,44,-1
 846 -23 l 1,0,-1
EndSplineSet
EndChar

StartChar: x
Encoding: 120 120 82
Width: 869
Flags: W
LayerCount: 2
Fore
SplineSet
529 487 m 1,0,-1
 666 225 l 2,1,2
 736 88 736 88 778 52 c 0,3,4
 801 32 801 32 842 31 c 1,5,-1
 842 0 l 1,6,-1
 400 0 l 1,7,-1
 400 31 l 1,8,9
 452 35 452 35 464 44 c 128,-1,10
 476 53 476 53 476 70 c 0,11,12
 476 93 476 93 447 144 c 2,13,-1
 381 273 l 1,14,-1
 320 188 l 2,15,16
 281 129 281 129 276 118 c 0,17,18
 269 102 269 102 269 89 c 0,19,20
 269 70 269 70 277 56.5 c 128,-1,21
 285 43 285 43 299 37 c 128,-1,22
 313 31 313 31 350 31 c 1,23,-1
 350 0 l 1,24,-1
 40 0 l 1,25,-1
 40 31 l 1,26,27
 98 31 98 31 145.5 62.5 c 128,-1,28
 193 94 193 94 285 230 c 2,29,-1
 350 326 l 1,30,-1
 214 580 l 2,31,32
 146 702 146 702 113.5 730.5 c 128,-1,33
 81 759 81 759 40 762 c 1,34,-1
 40 794 l 1,35,-1
 479 794 l 1,36,-1
 479 762 l 1,37,-1
 456 762 l 1,38,-1
 412 745 l 2,39,40
 405 741 405 741 405 727 c 256,41,42
 405 713 405 713 410 701 c 0,43,44
 412 693 412 693 434 655 c 2,45,-1
 496 540 l 1,46,-1
 529 584 l 2,47,48
 596 678 596 678 596 714 c 0,49,50
 596 734 596 734 581 745.5 c 128,-1,51
 566 757 566 757 529 762 c 1,52,-1
 529 794 l 1,53,-1
 809 794 l 1,54,-1
 809 762 l 1,55,56
 757 761 757 761 712.5 731 c 128,-1,57
 668 701 668 701 612 614 c 2,58,-1
 529 487 l 1,0,-1
EndSplineSet
EndChar

StartChar: y
Encoding: 121 121 83
Width: 869
Flags: W
LayerCount: 2
Fore
SplineSet
423 -32 m 1,0,-1
 166 555 l 2,1,2
 108 690 108 690 80.5 720 c 128,-1,3
 53 750 53 750 15 762 c 1,4,-1
 15 794 l 1,5,-1
 436 794 l 1,6,-1
 436 762 l 1,7,8
 394 761 394 761 377 746.5 c 128,-1,9
 360 732 360 732 360 711 c 0,10,11
 360 679 360 679 403 584 c 2,12,-1
 540 273 l 1,13,-1
 631 513 l 2,14,15
 681 641 681 641 681 691 c 0,16,17
 681 723 681 723 660 742 c 128,-1,18
 639 761 639 761 587 762 c 1,19,-1
 587 794 l 1,20,-1
 852 794 l 1,21,-1
 852 762 l 1,22,23
 814 757 814 757 789.5 732 c 128,-1,24
 765 707 765 707 707 555 c 2,25,-1
 480 -32 l 2,26,27
 394 -252 394 -252 353 -304 c 0,28,29
 295 -375 295 -375 206 -375 c 0,30,31
 136 -375 136 -375 92.5 -335 c 128,-1,32
 49 -295 49 -295 49 -237 c 0,33,34
 49 -189 49 -189 78.5 -156.5 c 128,-1,35
 108 -124 108 -124 153 -124 c 0,36,37
 195 -124 195 -124 221 -151 c 128,-1,38
 247 -178 247 -178 248 -235 c 0,39,40
 248 -267 248 -267 255 -277 c 0,41,42
 263 -286 263 -286 275 -286 c 0,43,44
 295 -286 295 -286 318 -262 c 0,45,46
 352 -226 352 -226 399 -99 c 2,47,-1
 423 -32 l 1,0,-1
EndSplineSet
EndChar

StartChar: z
Encoding: 122 122 84
Width: 772
Flags: W
LayerCount: 2
Fore
SplineSet
709 0 m 1,0,-1
 18 0 l 1,1,-1
 18 19 l 1,2,-1
 455 742 l 1,3,-1
 326 742 l 2,4,5
 244 742 244 742 208.5 727 c 128,-1,6
 173 712 173 712 151 680 c 128,-1,7
 129 648 129 648 105 563 c 1,8,-1
 75 563 l 1,9,-1
 75 794 l 1,10,-1
 744 794 l 1,11,-1
 744 771 l 1,12,-1
 311 54 l 1,13,-1
 365 54 l 2,14,15
 529 54 529 54 600.5 100.5 c 128,-1,16
 672 147 672 147 709 272 c 1,17,-1
 732 272 l 1,18,-1
 709 0 l 1,0,-1
EndSplineSet
EndChar

StartChar: braceleft
Encoding: 123 123 85
Width: 686
Flags: W
LayerCount: 2
Fore
SplineSet
612 1178 m 1,0,-1
 612 1139 l 1,1,2
 527 1123 527 1123 486 1079.5 c 128,-1,3
 445 1036 445 1036 445 979 c 0,4,5
 445 923 445 923 466 838.5 c 128,-1,6
 487 754 487 754 487 691 c 0,7,8
 487 634 487 634 452.5 573.5 c 128,-1,9
 418 513 418 513 353 471 c 0,10,11
 307 442 307 442 210 414 c 1,12,13
 316 382 316 382 363 350 c 0,14,15
 425 306 425 306 456.5 247.5 c 128,-1,16
 488 189 488 189 488 137 c 0,17,18
 488 86 488 86 467 1 c 128,-1,19
 446 -84 446 -84 446 -146 c 256,20,21
 446 -208 446 -208 485 -251.5 c 128,-1,22
 524 -295 524 -295 612 -312 c 1,23,-1
 612 -351 l 1,24,-1
 582 -351 l 2,25,26
 495 -352 495 -352 417 -311.5 c 128,-1,27
 339 -271 339 -271 300.5 -206.5 c 128,-1,28
 262 -142 262 -142 262 -83 c 0,29,30
 262 -23 262 -23 286 78 c 0,31,32
 306 154 306 154 306 213 c 0,33,34
 306 280 306 280 264 327 c 128,-1,35
 222 374 222 374 140 389 c 1,36,-1
 140 439 l 1,37,38
 222 454 222 454 264 503 c 128,-1,39
 306 552 306 552 306 622 c 0,40,41
 306 681 306 681 287 753 c 0,42,43
 262 852 262 852 262 905 c 0,44,45
 262 961 262 961 295 1018 c 128,-1,46
 328 1075 328 1075 377.5 1110.5 c 128,-1,47
 427 1146 427 1146 488 1162 c 0,48,49
 532 1174 532 1174 612 1178 c 1,0,-1
EndSplineSet
EndChar

StartChar: bar
Encoding: 124 124 86
Width: 383
Flags: W
LayerCount: 2
Fore
SplineSet
135 -375 m 1,0,-1
 135 1178 l 1,1,-1
 245 1178 l 1,2,-1
 245 -375 l 1,3,-1
 135 -375 l 1,0,-1
EndSplineSet
EndChar

StartChar: asciitilde
Encoding: 126 126 87
Width: 904
Flags: W
LayerCount: 2
Fore
SplineSet
886 602 m 1,0,-1
 935 602 l 1,1,2
 930 466 930 466 864.5 397 c 128,-1,3
 799 328 799 328 707 328 c 0,4,5
 660 328 660 328 610.5 342.5 c 128,-1,6
 561 357 561 357 389 428 c 0,7,8
 264 480 264 480 209 480 c 0,9,10
 151 480 151 480 112.5 445 c 128,-1,11
 74 410 74 410 59 329 c 1,12,-1
 11 329 l 1,13,14
 17 467 17 467 79.5 535 c 128,-1,15
 142 603 142 603 231 603 c 0,16,17
 276 603 276 603 319 591 c 0,18,19
 405 566 405 566 555 501 c 0,20,21
 638 466 638 466 681 455 c 0,22,23
 707 447 707 447 736 447 c 0,24,25
 796 447 796 447 837.5 487.5 c 128,-1,26
 879 528 879 528 886 602 c 1,0,-1
EndSplineSet
EndChar

StartChar: ccedilla
Encoding: 231 231 90
Width: 805
Flags: W
LayerCount: 2
Fore
SplineSet
775 198 m 1,0,-1
 764 142 l 1,1,2
 616 37 616 37 445 -9 c 1,3,-1
 408 -65 l 1,4,5
 481 -86 481 -86 481 -146 c 0,6,7
 481 -197 481 -197 424.5 -240.5 c 128,-1,8
 368 -284 368 -284 301 -284 c 0,9,10
 272 -284 272 -284 232 -277 c 1,11,-1
 287 -201 l 1,12,13
 322 -223 322 -223 348 -223 c 0,14,15
 412 -223 412 -223 412 -172 c 0,16,17
 412 -117 412 -117 311 -111 c 1,18,-1
 376 -19 l 1,19,20
 145 5 145 5 145 228 c 0,21,22
 145 445 145 445 302 622 c 128,-1,23
 459 799 459 799 652 799 c 0,24,25
 736 799 736 799 819 762 c 1,26,-1
 770 578 l 1,27,-1
 725 578 l 1,28,-1
 728 589 l 2,29,30
 735 622 735 622 735 638 c 0,31,32
 735 737 735 737 599 737 c 0,33,34
 475 737 475 737 382.5 595 c 128,-1,35
 290 453 290 453 290 263 c 0,36,37
 290 62 290 62 446 62 c 0,38,39
 563 62 563 62 775 198 c 1,0,-1
EndSplineSet
EndChar

StartChar: icircumflex
Encoding: 238 238 95
Width: 468
Flags: W
LayerCount: 2
Fore
SplineSet
328 0 m 1,0,-1
 140 0 l 1,1,-1
 140 1117 l 1,2,-1
 328 1117 l 1,3,-1
 328 0 l 1,0,-1
521 1297 m 1,4,-1
 370 1297 l 1,5,-1
 231 1560 l 1,6,-1
 93 1297 l 1,7,-1
 -54 1297 l 1,8,-1
 120 1676 l 1,9,-1
 347 1676 l 1,10,-1
 521 1297 l 1,4,-1
EndSplineSet
EndChar

StartChar: idieresis
Encoding: 239 239 96
Width: 468
Flags: W
LayerCount: 2
Fore
SplineSet
328 0 m 1,0,-1
 140 0 l 1,1,-1
 140 1117 l 1,2,-1
 328 1117 l 1,3,-1
 328 0 l 1,0,-1
506 1304 m 1,4,-1
 317 1304 l 1,5,-1
 317 1499 l 1,6,-1
 506 1499 l 1,7,-1
 506 1304 l 1,4,-1
151 1304 m 1,8,-1
 -38 1304 l 1,9,-1
 -38 1499 l 1,10,-1
 151 1499 l 1,11,-1
 151 1304 l 1,8,-1
EndSplineSet
EndChar

StartChar: dagger
Encoding: 8224 8224 101
Width: 932
Flags: W
LayerCount: 2
Fore
SplineSet
347 -231 m 1,0,-1
 567 622 l 1,1,-1
 248 592 l 1,2,-1
 297 700 l 1,3,-1
 576 668 l 1,4,-1
 607 1066 l 1,5,-1
 755 1093 l 1,6,-1
 621 668 l 1,7,-1
 941 700 l 1,8,-1
 895 592 l 1,9,-1
 612 622 l 1,10,-1
 496 -213 l 1,11,-1
 347 -231 l 1,0,-1
EndSplineSet
EndChar

StartChar: degree
Encoding: 176 176 102
Width: 409
Flags: W
LayerCount: 2
Fore
SplineSet
395 844 m 0,0,1
 344 844 344 844 307.5 880 c 128,-1,2
 271 916 271 916 271 968 c 0,3,4
 271 1021 271 1021 307.5 1057 c 128,-1,5
 344 1093 344 1093 395 1093 c 0,6,7
 447 1093 447 1093 483 1057 c 128,-1,8
 519 1021 519 1021 519 968 c 0,9,10
 519 916 519 916 483 880 c 128,-1,11
 447 844 447 844 395 844 c 0,0,1
395 888 m 256,12,13
 427 888 427 888 450.5 912 c 128,-1,14
 474 936 474 936 474 968 c 256,15,16
 474 1000 474 1000 450.5 1024 c 128,-1,17
 427 1048 427 1048 395 1048 c 256,18,19
 363 1048 363 1048 339 1024 c 128,-1,20
 315 1000 315 1000 315 968 c 256,21,22
 315 936 315 936 339 912 c 128,-1,23
 363 888 363 888 395 888 c 256,12,13
EndSplineSet
EndChar

StartChar: cent
Encoding: 162 162 103
Width: 693
Flags: W
LayerCount: 2
Fore
SplineSet
365 -18 m 1,0,-1
 404 176 l 1,1,2
 142 195 142 195 142 355 c 0,3,4
 142 459 142 459 242 534.5 c 128,-1,5
 342 610 342 610 492 622 c 1,6,-1
 527 799 l 1,7,-1
 572 799 l 1,8,-1
 537 622 l 1,9,10
 637 617 637 617 715 601 c 1,11,-1
 689 471 l 1,12,-1
 644 471 l 1,13,14
 644 477 644 477 645 488 c 0,15,16
 648 509 648 509 648 517 c 0,17,18
 648 572 648 572 528 578 c 1,19,-1
 459 229 l 1,20,21
 567 229 567 229 661 280 c 1,22,-1
 650 229 l 1,23,24
 544 176 544 176 448 176 c 1,25,-1
 409 -18 l 1,26,-1
 365 -18 l 1,0,-1
415 232 m 1,27,-1
 484 578 l 1,28,29
 272 547 272 547 272 383 c 0,30,31
 272 255 272 255 415 232 c 1,27,-1
EndSplineSet
EndChar

StartChar: sterling
Encoding: 163 163 104
Width: 874
Flags: W
LayerCount: 2
Fore
SplineSet
17 0 m 1,0,-1
 109 88 l 1,1,-1
 122 88 l 2,2,3
 229 88 229 88 272.5 136.5 c 128,-1,4
 316 185 316 185 347 343 c 2,5,-1
 356 391 l 1,6,-1
 196 391 l 1,7,-1
 205 436 l 1,8,-1
 365 436 l 1,9,-1
 378 499 l 2,10,11
 407 642 407 642 496.5 721 c 128,-1,12
 586 800 586 800 718 800 c 0,13,14
 797 800 797 800 892 765 c 1,15,-1
 858 586 l 1,16,-1
 808 586 l 1,17,-1
 810 598 l 2,18,19
 812 608 812 608 812 620 c 0,20,21
 812 746 812 746 679 746 c 0,22,23
 614 746 614 746 584.5 710 c 128,-1,24
 555 674 555 674 535 569 c 2,25,-1
 508 436 l 1,26,-1
 748 436 l 1,27,-1
 739 391 l 1,28,-1
 499 391 l 1,29,-1
 492 359 l 2,30,31
 473 265 473 265 427.5 208 c 128,-1,32
 382 151 382 151 275 88 c 1,33,-1
 480 88 l 2,34,35
 617 88 617 88 679 102.5 c 128,-1,36
 741 117 741 117 819 167 c 1,37,-1
 808 113 l 1,38,39
 735 35 735 35 665.5 7.5 c 128,-1,40
 596 -20 596 -20 470 -20 c 1,41,-1
 442 -19 l 1,42,-1
 17 0 l 1,0,-1
EndSplineSet
EndChar

StartChar: section
Encoding: 167 167 105
Width: 932
Flags: W
LayerCount: 2
Fore
SplineSet
107 -153 m 1,0,-1
 232 -80 l 1,1,2
 348 -178 348 -178 481 -178 c 0,3,4
 564 -178 564 -178 621.5 -127.5 c 128,-1,5
 679 -77 679 -77 679 -5 c 0,6,7
 679 48 679 48 645.5 80.5 c 128,-1,8
 612 113 612 113 513 160 c 2,9,-1
 440 193 l 2,10,11
 247 283 247 283 247 409 c 0,12,13
 247 528 247 528 409 652 c 1,14,15
 328 717 328 717 328 815 c 0,16,17
 328 938 328 938 440 1015.5 c 128,-1,18
 552 1093 552 1093 727 1093 c 0,19,20
 814 1093 814 1093 933 1060 c 1,21,-1
 897 879 l 1,22,-1
 853 879 l 1,23,24
 857 904 857 904 857 916 c 0,25,26
 857 1039 857 1039 652 1039 c 0,27,28
 560 1039 560 1039 500.5 987 c 128,-1,29
 441 935 441 935 441 853 c 0,30,31
 441 798 441 798 466 774.5 c 128,-1,32
 491 751 491 751 613 686 c 2,33,-1
 674 652 l 2,34,35
 854 553 854 553 854 444 c 0,36,37
 854 319 854 319 703 200 c 1,38,39
 801 136 801 136 801 40 c 0,40,41
 801 -75 801 -75 684.5 -153 c 128,-1,42
 568 -231 568 -231 397 -231 c 0,43,44
 244 -231 244 -231 107 -153 c 1,0,-1
667 229 m 1,45,46
 747 319 747 319 747 394 c 0,47,48
 747 470 747 470 628 527 c 2,49,-1
 558 562 l 2,50,51
 495 593 495 593 445 625 c 1,52,53
 355 545 355 545 355 456 c 0,54,55
 355 382 355 382 474 326 c 2,56,-1
 571 279 l 2,57,58
 607 263 607 263 667 229 c 1,45,46
EndSplineSet
EndChar

StartChar: bullet
Encoding: 8226 8226 106
Width: 931
Flags: W
LayerCount: 2
Fore
SplineSet
817 662 m 256,0,1
 817 517 817 517 713.5 414 c 128,-1,2
 610 311 610 311 465 311 c 256,3,4
 320 311 320 311 217 414 c 128,-1,5
 114 517 114 517 114 662 c 256,6,7
 114 807 114 807 217 910 c 128,-1,8
 320 1013 320 1013 465 1013 c 256,9,10
 610 1013 610 1013 713.5 910 c 128,-1,11
 817 807 817 807 817 662 c 256,0,1
EndSplineSet
EndChar

StartChar: paragraph
Encoding: 182 182 107
Width: 932
Flags: W
LayerCount: 2
Fore
SplineSet
365 -239 m 1,0,-1
 511 496 l 1,1,2
 241 542 241 542 241 747 c 0,3,4
 241 876 241 876 346.5 968 c 128,-1,5
 452 1060 452 1060 628 1085 c 1,6,-1
 660 1244 l 1,7,-1
 704 1244 l 1,8,-1
 673 1085 l 1,9,-1
 703 1086 l 2,10,11
 744 1086 744 1086 796 1080 c 1,12,-1
 828 1244 l 1,13,-1
 873 1244 l 1,14,-1
 839 1071 l 1,15,16
 891 1057 891 1057 948 1036 c 1,17,-1
 938 988 l 1,18,19
 898 1005 898 1005 830 1024 c 1,20,-1
 742 586 l 1,21,22
 794 603 794 603 869 643 c 1,23,-1
 859 586 l 1,24,25
 794 549 794 549 732 530 c 1,26,-1
 578 -239 l 1,27,-1
 534 -239 l 1,28,-1
 684 514 l 1,29,30
 597 496 597 496 556 496 c 1,31,-1
 409 -239 l 1,32,-1
 365 -239 l 1,0,-1
695 568 m 1,33,-1
 787 1031 l 1,34,35
 738 1040 738 1040 704 1040 c 0,36,37
 691 1040 691 1040 664 1039 c 1,38,-1
 567 553 l 1,39,40
 625 553 625 553 695 568 c 1,33,-1
EndSplineSet
EndChar

StartChar: registered
Encoding: 174 174 108
Width: 897
Flags: W
LayerCount: 2
Fore
SplineSet
580 445 m 0,0,1
 448 445 448 445 354.5 538.5 c 128,-1,2
 261 632 261 632 261 764 c 256,3,4
 261 896 261 896 354.5 990 c 128,-1,5
 448 1084 448 1084 580 1084 c 0,6,7
 714 1084 714 1084 807 990 c 128,-1,8
 900 896 900 896 900 764 c 256,9,10
 900 632 900 632 806.5 538.5 c 128,-1,11
 713 445 713 445 580 445 c 0,0,1
580 484 m 0,12,13
 695 484 695 484 777.5 567 c 128,-1,14
 860 650 860 650 860 764 c 256,15,16
 860 878 860 878 777.5 961 c 128,-1,17
 695 1044 695 1044 580 1044 c 0,18,19
 466 1044 466 1044 383.5 961 c 128,-1,20
 301 878 301 878 301 764 c 256,21,22
 301 650 301 650 383.5 567 c 128,-1,23
 466 484 466 484 580 484 c 0,12,13
529 737 m 1,24,-1
 501 596 l 1,25,-1
 394 596 l 1,26,-1
 403 639 l 1,27,-1
 456 639 l 1,28,-1
 511 915 l 1,29,-1
 458 915 l 1,30,-1
 466 959 l 1,31,-1
 598 959 l 2,32,33
 751 959 751 959 751 875 c 0,34,35
 751 800 751 800 650 750 c 1,36,-1
 685 639 l 1,37,-1
 747 639 l 1,38,-1
 738 596 l 1,39,-1
 641 596 l 1,40,-1
 591 737 l 1,41,-1
 529 737 l 1,24,-1
538 782 m 1,42,-1
 574 782 l 2,43,44
 697 782 697 782 697 866 c 0,45,46
 697 915 697 915 607 915 c 2,47,-1
 564 915 l 1,48,-1
 538 782 l 1,42,-1
EndSplineSet
EndChar

StartChar: copyright
Encoding: 169 169 109
Width: 1244
Flags: W
LayerCount: 2
Fore
SplineSet
725 -27 m 0,0,1
 495 -27 495 -27 330.5 137 c 128,-1,2
 166 301 166 301 166 533 c 256,3,4
 166 765 166 765 330.5 929 c 128,-1,5
 495 1093 495 1093 725 1093 c 0,6,7
 958 1093 958 1093 1122 929 c 128,-1,8
 1286 765 1286 765 1286 533 c 256,9,10
 1286 301 1286 301 1122 137 c 128,-1,11
 958 -27 958 -27 725 -27 c 0,0,1
725 18 m 0,12,13
 939 18 939 18 1090 169 c 128,-1,14
 1241 320 1241 320 1241 533 c 256,15,16
 1241 746 1241 746 1090 897 c 128,-1,17
 939 1048 939 1048 725 1048 c 0,18,19
 513 1048 513 1048 362 897 c 128,-1,20
 211 746 211 746 211 533 c 256,21,22
 211 320 211 320 362 169 c 128,-1,23
 513 18 513 18 725 18 c 0,12,13
890 246 m 1,24,25
 785 213 785 213 704 213 c 0,26,27
 580 213 580 213 508 279.5 c 128,-1,28
 436 346 436 346 436 462 c 0,29,30
 436 625 436 625 541 734.5 c 128,-1,31
 646 844 646 844 805 844 c 0,32,33
 896 844 896 844 1003 814 c 1,34,-1
 967 675 l 1,35,-1
 915 684 l 1,36,-1
 923 766 l 1,37,38
 854 798 854 798 792 798 c 0,39,40
 688 798 688 798 616 700 c 128,-1,41
 544 602 544 602 544 462 c 0,42,43
 544 271 544 271 722 271 c 0,44,45
 823 271 823 271 902 307 c 1,46,-1
 890 246 l 1,24,25
EndSplineSet
EndChar

StartChar: trademark
Encoding: 8482 8482 110
Width: 1333
Flags: W
LayerCount: 2
Fore
SplineSet
440 1021 m 1,0,-1
 307 1021 l 1,1,-1
 288 923 l 1,2,-1
 225 923 l 1,3,-1
 254 1066 l 1,4,-1
 751 1066 l 1,5,-1
 723 923 l 1,6,-1
 661 923 l 1,7,-1
 679 1021 l 1,8,-1
 546 1021 l 1,9,-1
 456 569 l 1,10,-1
 554 569 l 1,11,-1
 545 524 l 1,12,-1
 243 524 l 1,13,-1
 253 569 l 1,14,-1
 350 569 l 1,15,-1
 440 1021 l 1,0,-1
1011 569 m 1,16,-1
 942 956 l 1,17,-1
 857 524 l 1,18,-1
 688 524 l 1,19,-1
 697 569 l 1,20,-1
 794 569 l 1,21,-1
 884 1021 l 1,22,-1
 787 1021 l 1,23,-1
 796 1066 l 1,24,-1
 1036 1066 l 1,25,-1
 1092 747 l 1,26,-1
 1265 1066 l 1,27,-1
 1481 1066 l 1,28,-1
 1473 1021 l 1,29,-1
 1375 1021 l 1,30,-1
 1285 569 l 1,31,-1
 1383 569 l 1,32,-1
 1373 524 l 1,33,-1
 1178 524 l 1,34,-1
 1270 985 l 1,35,-1
 1041 569 l 1,36,-1
 1011 569 l 1,16,-1
EndSplineSet
EndChar

StartChar: acute
Encoding: 180 180 111
Width: 256
Flags: W
LayerCount: 2
Fore
SplineSet
118 999 m 1,0,1
 195 1083 195 1083 192 1046 c 1,2,3
 183 1014 183 1014 135.5 924 c 128,-1,4
 88 834 88 834 66 802 c 1,5,6
 55 796 55 796 62 848 c 1,7,8
 83 919 83 919 118 999 c 1,0,1
EndSplineSet
EndChar

StartChar: dieresis
Encoding: 168 168 112
Width: 862
Flags: W
LayerCount: 2
Fore
SplineSet
495 923 m 1,0,-1
 408 1033 l 1,1,-1
 520 1119 l 1,2,-1
 607 1003 l 1,3,-1
 495 923 l 1,0,-1
841 923 m 1,4,-1
 752 1035 l 1,5,-1
 866 1119 l 1,6,-1
 951 1004 l 1,7,-1
 841 923 l 1,4,-1
EndSplineSet
EndChar

StartChar: plusminus
Encoding: 177 177 113
Width: 932
Flags: W
LayerCount: 2
Fore
SplineSet
76 0 m 1,0,-1
 92 80 l 1,1,-1
 873 80 l 1,2,-1
 858 0 l 1,3,-1
 76 0 l 1,0,-1
469 213 m 1,4,-1
 525 493 l 1,5,-1
 174 493 l 1,6,-1
 189 573 l 1,7,-1
 541 573 l 1,8,-1
 596 852 l 1,9,-1
 676 852 l 1,10,-1
 621 573 l 1,11,-1
 971 573 l 1,12,-1
 956 493 l 1,13,-1
 605 493 l 1,14,-1
 549 213 l 1,15,-1
 469 213 l 1,4,-1
EndSplineSet
EndChar

StartChar: yen
Encoding: 165 165 114
Width: 965
Flags: W
LayerCount: 2
Fore
SplineSet
156 0 m 1,0,-1
 247 99 l 1,1,2
 269 97 269 97 279 97 c 0,3,4
 415 97 415 97 477 257 c 1,5,-1
 272 257 l 1,6,-1
 280 301 l 1,7,-1
 489 301 l 1,8,9
 495 346 495 346 499 409 c 1,10,-1
 301 409 l 1,11,-1
 310 453 l 1,12,-1
 499 453 l 1,13,14
 499 465 499 465 499 470 c 0,15,16
 499 567 499 567 463.5 631 c 128,-1,17
 428 695 428 695 375 695 c 256,18,19
 322 695 322 695 250 638 c 128,-1,20
 178 581 178 581 139 509 c 1,21,-1
 106 534 l 1,22,23
 172 650 172 650 268.5 724.5 c 128,-1,24
 365 799 365 799 452 799 c 0,25,26
 612 799 612 799 612 518 c 1,27,-1
 611 472 l 1,28,29
 736 799 736 799 971 799 c 0,30,31
 1045 799 1045 799 1100 765 c 1,32,-1
 1016 653 l 1,33,34
 967 684 967 684 915 684 c 0,35,36
 742 684 742 684 651 453 c 1,37,-1
 835 453 l 1,38,-1
 826 409 l 1,39,-1
 643 409 l 1,40,-1
 634 369 l 2,41,42
 627 335 627 335 609 301 c 1,43,-1
 805 301 l 1,44,-1
 796 257 l 1,45,-1
 585 257 l 1,46,47
 519 138 519 138 389 91 c 1,48,-1
 624 77 l 1,49,-1
 534 -18 l 1,50,-1
 156 0 l 1,0,-1
EndSplineSet
EndChar

StartChar: mu1
Encoding: 181 181 115
Width: 992
Flags: W
LayerCount: 2
Fore
SplineSet
100 -302 m 1,0,-1
 155 -76 l 1,1,-1
 270 500 l 2,2,3
 282 560 282 560 282 611 c 0,4,5
 282 693 282 693 206 782 c 1,6,-1
 368 790 l 1,7,8
 427 740 427 740 427 623 c 0,9,10
 427 576 427 576 409 481 c 2,11,-1
 355 213 l 2,12,13
 347 176 347 176 347 161 c 0,14,15
 347 106 347 106 391 106 c 0,16,17
 446 106 446 106 553.5 229 c 128,-1,18
 661 352 661 352 753 519 c 1,19,-1
 805 782 l 1,20,-1
 958 790 l 1,21,-1
 905 569 l 1,22,-1
 834 213 l 2,23,24
 818 132 818 132 818 106 c 0,25,26
 818 53 818 53 861 53 c 0,27,28
 931 53 931 53 1075 218 c 1,29,-1
 1062 151 l 1,30,31
 905 -18 905 -18 779 -18 c 0,32,33
 675 -18 675 -18 675 91 c 0,34,35
 675 128 675 128 692 213 c 2,36,-1
 727 391 l 1,37,-1
 717 391 l 1,38,39
 517 0 517 0 312 0 c 1,40,-1
 255 -284 l 1,41,-1
 100 -302 l 1,0,-1
EndSplineSet
EndChar

StartChar: logicalnot
Encoding: 172 172 116
Width: 932
Flags: W
LayerCount: 2
Fore
SplineSet
177 510 m 1,0,-1
 193 590 l 1,1,-1
 975 590 l 1,2,-1
 906 248 l 1,3,-1
 814 248 l 1,4,-1
 866 510 l 1,5,-1
 177 510 l 1,0,-1
EndSplineSet
EndChar

StartChar: florin
Encoding: 402 402 117
Width: 679
Flags: W
LayerCount: 2
Fore
SplineSet
158 -231 m 1,0,-1
 210 -18 l 1,1,-1
 286 364 l 1,2,-1
 108 364 l 1,3,-1
 117 409 l 1,4,-1
 294 409 l 1,5,-1
 298 427 l 2,6,7
 330 586 330 586 463 692.5 c 128,-1,8
 596 799 596 799 761 799 c 0,9,10
 818 799 818 799 860 784 c 1,11,-1
 764 678 l 1,12,13
 712 729 712 729 643 729 c 0,14,15
 500 729 500 729 457 512 c 2,16,-1
 436 409 l 1,17,-1
 623 409 l 1,18,-1
 614 364 l 1,19,-1
 427 364 l 1,20,-1
 313 -213 l 1,21,-1
 158 -231 l 1,0,-1
EndSplineSet
EndChar

StartChar: ellipsis
Encoding: 8230 8230 118
Width: 1474
Flags: W
LayerCount: 2
Fore
SplineSet
178 0 m 1,0,-1
 206 142 l 1,1,-1
 348 142 l 1,2,-1
 319 0 l 1,3,-1
 178 0 l 1,0,-1
667 0 m 1,4,-1
 695 142 l 1,5,-1
 837 142 l 1,6,-1
 808 0 l 1,7,-1
 667 0 l 1,4,-1
1155 0 m 1,8,-1
 1183 142 l 1,9,-1
 1326 142 l 1,10,-1
 1297 0 l 1,11,-1
 1155 0 l 1,8,-1
EndSplineSet
EndChar

StartChar: OE
Encoding: 338 338 119
Width: 1477
Flags: W
LayerCount: 2
Fore
SplineSet
816 0 m 1,0,-1
 831 70 l 1,1,2
 711 -27 711 -27 549 -27 c 0,3,4
 371 -27 371 -27 269 81 c 128,-1,5
 167 189 167 189 167 378 c 0,6,7
 167 661 167 661 358 877 c 128,-1,8
 549 1093 549 1093 799 1093 c 0,9,10
 931 1093 931 1093 1017 1007 c 1,11,-1
 1029 1066 l 1,12,-1
 1593 1066 l 1,13,-1
 1529 862 l 1,14,-1
 1484 862 l 1,15,16
 1490 891 1490 891 1490 913 c 0,17,18
 1490 969 1490 969 1424.5 990.5 c 128,-1,19
 1359 1012 1359 1012 1187 1012 c 2,20,-1
 1165 1012 l 1,21,-1
 1082 586 l 1,22,-1
 1402 586 l 1,23,-1
 1329 512 l 1,24,25
 1165 533 1165 533 1107 533 c 2,26,-1
 1071 533 l 1,27,-1
 1012 218 l 2,28,29
 1002 167 1002 167 1002 156 c 0,30,31
 1002 80 1002 80 1228 80 c 0,32,33
 1348 80 1348 80 1453 160 c 1,34,-1
 1442 103 l 1,35,36
 1318 -23 1318 -23 1203 -23 c 0,37,38
 1183 -23 1183 -23 1161 -21 c 2,39,-1
 816 0 l 1,0,-1
888 361 m 2,40,-1
 961 723 l 2,41,42
 974 786 974 786 974 841 c 0,43,44
 974 933 974 933 916.5 990.5 c 128,-1,45
 859 1048 859 1048 769 1048 c 0,46,47
 604 1048 604 1048 466.5 844 c 128,-1,48
 329 640 329 640 329 395 c 0,49,50
 329 218 329 218 396.5 117.5 c 128,-1,51
 464 17 464 17 585 17 c 0,52,53
 818 17 818 17 888 361 c 2,40,-1
EndSplineSet
EndChar

StartChar: oe
Encoding: 339 339 120
Width: 1350
Flags: W
LayerCount: 2
Fore
SplineSet
706 145 m 1,0,1
 535 -18 535 -18 370 -18 c 0,2,3
 273 -18 273 -18 209 55 c 128,-1,4
 145 128 145 128 145 237 c 0,5,6
 145 448 145 448 302.5 623.5 c 128,-1,7
 460 799 460 799 650 799 c 0,8,9
 794 799 794 799 859 630 c 1,10,11
 1025 799 1025 799 1183 799 c 0,12,13
 1246 799 1246 799 1286.5 758 c 128,-1,14
 1327 717 1327 717 1327 651 c 0,15,16
 1327 508 1327 508 1192.5 414 c 128,-1,17
 1058 320 1058 320 841 311 c 1,18,-1
 840 278 l 1,19,20
 840 66 840 66 998 66 c 0,21,22
 1113 66 1113 66 1327 200 c 1,23,-1
 1316 146 l 1,24,25
 1083 -18 1083 -18 917 -18 c 0,26,27
 758 -18 758 -18 706 145 c 1,0,1
431 35 m 0,28,29
 544 35 544 35 636 178.5 c 128,-1,30
 728 322 728 322 728 499 c 0,31,32
 728 607 728 607 689 672 c 128,-1,33
 650 737 650 737 584 737 c 0,34,35
 472 737 472 737 382 594 c 128,-1,36
 292 451 292 451 292 272 c 0,37,38
 292 35 292 35 431 35 c 0,28,29
844 355 m 1,39,40
 1004 368 1004 368 1097.5 438.5 c 128,-1,41
 1191 509 1191 509 1191 620 c 0,42,43
 1191 733 1191 733 1110 733 c 0,44,45
 1024 733 1024 733 941.5 616 c 128,-1,46
 859 499 859 499 844 355 c 1,39,40
EndSplineSet
EndChar

StartChar: endash
Encoding: 8211 8211 121
Width: 434
Flags: W
LayerCount: 2
Fore
SplineSet
434 154 m 1,0,-1
 0 154 l 1,1,-1
 0 234 l 1,2,-1
 434 234 l 1,3,-1
 434 154 l 1,0,-1
EndSplineSet
EndChar

StartChar: emdash
Encoding: 8212 8212 122
Width: 1862
Flags: W
LayerCount: 2
Fore
SplineSet
1866 572 m 1,0,-1
 -4 572 l 1,1,-1
 -4 732 l 1,2,-1
 1866 732 l 1,3,-1
 1866 572 l 1,0,-1
EndSplineSet
EndChar

StartChar: quotedblleft
Encoding: 8220 8220 123
Width: 703
Flags: W
LayerCount: 2
Fore
SplineSet
321 1261 m 1,0,1
 281 1229 281 1229 253 1191 c 128,-1,2
 225 1153 225 1153 225 1099 c 0,3,4
 225 1083 225 1083 228 1066.5 c 128,-1,5
 231 1050 231 1050 234.5 1032 c 128,-1,6
 238 1014 238 1014 241 994.5 c 128,-1,7
 244 975 244 975 244 953 c 0,8,9
 244 921 244 921 225 896.5 c 128,-1,10
 206 872 206 872 177 872 c 0,11,12
 150 872 150 872 132.5 881 c 128,-1,13
 115 890 115 890 104.5 905.5 c 128,-1,14
 94 921 94 921 90 942 c 128,-1,15
 86 963 86 963 86 986 c 0,16,17
 86 1034 86 1034 105.5 1078.5 c 128,-1,18
 125 1123 125 1123 156.5 1161 c 128,-1,19
 188 1199 188 1199 227.5 1229.5 c 128,-1,20
 267 1260 267 1260 306 1280 c 1,21,-1
 321 1261 l 1,0,1
625 1261 m 1,22,23
 586 1229 586 1229 558.5 1191 c 128,-1,24
 531 1153 531 1153 531 1099 c 0,25,26
 531 1067 531 1067 540 1032.5 c 128,-1,27
 549 998 549 998 549 953 c 0,28,29
 549 921 549 921 530 896.5 c 128,-1,30
 511 872 511 872 479 872 c 0,31,32
 453 872 453 872 435.5 881 c 128,-1,33
 418 890 418 890 407.5 905.5 c 128,-1,34
 397 921 397 921 393 942 c 128,-1,35
 389 963 389 963 389 986 c 0,36,37
 389 1034 389 1034 409 1078.5 c 128,-1,38
 429 1123 429 1123 460.5 1161.5 c 128,-1,39
 492 1200 492 1200 531.5 1230.5 c 128,-1,40
 571 1261 571 1261 611 1280 c 1,41,-1
 625 1261 l 1,22,23
EndSplineSet
EndChar

StartChar: quotedblright
Encoding: 8221 8221 124
Width: 762
Flags: W
LayerCount: 2
Fore
SplineSet
389 891 m 1,0,1
 429 924 429 924 457.5 961.5 c 128,-1,2
 486 999 486 999 486 1053 c 0,3,4
 486 1084 486 1084 476.5 1119.5 c 128,-1,5
 467 1155 467 1155 467 1199 c 0,6,7
 467 1231 467 1231 486 1255.5 c 128,-1,8
 505 1280 505 1280 533 1280 c 0,9,10
 560 1280 560 1280 577.5 1271 c 128,-1,11
 595 1262 595 1262 605.5 1246.5 c 128,-1,12
 616 1231 616 1231 620.5 1210.5 c 128,-1,13
 625 1190 625 1190 625 1167 c 0,14,15
 625 1119 625 1119 605 1074 c 128,-1,16
 585 1029 585 1029 553.5 991 c 128,-1,17
 522 953 522 953 483 922 c 128,-1,18
 444 891 444 891 405 872 c 1,19,-1
 389 891 l 1,0,1
86 891 m 1,20,21
 105 907 105 907 122 924.5 c 128,-1,22
 139 942 139 942 151.5 961.5 c 128,-1,23
 164 981 164 981 171.5 1003.5 c 128,-1,24
 179 1026 179 1026 179 1053 c 0,25,26
 179 1085 179 1085 170.5 1119.5 c 128,-1,27
 162 1154 162 1154 162 1199 c 0,28,29
 162 1231 162 1231 181 1255.5 c 128,-1,30
 200 1280 200 1280 232 1280 c 0,31,32
 258 1280 258 1280 275.5 1271 c 128,-1,33
 293 1262 293 1262 303 1246.5 c 128,-1,34
 313 1231 313 1231 317 1210.5 c 128,-1,35
 321 1190 321 1190 321 1167 c 0,36,37
 321 1119 321 1119 301.5 1074 c 128,-1,38
 282 1029 282 1029 250.5 990.5 c 128,-1,39
 219 952 219 952 179.5 921.5 c 128,-1,40
 140 891 140 891 100 872 c 1,41,-1
 86 891 l 1,20,21
EndSplineSet
EndChar

StartChar: divide
Encoding: 247 247 125
Width: 995
Flags: W
LayerCount: 2
Fore
SplineSet
577 632 m 1,0,-1
 415 632 l 1,1,-1
 415 796 l 1,2,-1
 577 796 l 1,3,-1
 577 632 l 1,0,-1
849 349 m 1,4,-1
 143 349 l 1,5,-1
 143 463 l 1,6,-1
 849 463 l 1,7,-1
 849 349 l 1,4,-1
577 15 m 1,8,-1
 415 15 l 1,9,-1
 415 180 l 1,10,-1
 577 180 l 1,11,-1
 577 15 l 1,8,-1
EndSplineSet
EndChar

StartChar: lozenge
Encoding: 9674 9674 126
Width: 1118
Flags: W
LayerCount: 2
Fore
SplineSet
1003 699 m 1,0,-1
 560 197 l 1,1,-1
 117 699 l 1,2,-1
 560 1202 l 1,3,-1
 1003 699 l 1,0,-1
848 699 m 1,4,-1
 560 1036 l 1,5,-1
 271 699 l 1,6,-1
 560 364 l 1,7,-1
 848 699 l 1,4,-1
EndSplineSet
EndChar

StartChar: Euro
Encoding: 8364 8364 128
Width: 812
Flags: W
LayerCount: 2
Fore
SplineSet
210 464 m 1,0,1
 252 596 252 596 371.5 697.5 c 128,-1,2
 491 799 491 799 674 799 c 0,3,4
 773 799 773 799 885 769 c 1,5,-1
 845 624 l 1,6,-1
 795 624 l 1,7,8
 801 653 801 653 801 665 c 0,9,10
 801 701 801 701 757 726 c 128,-1,11
 713 751 713 751 649 751 c 0,12,13
 445 751 445 751 349 464 c 1,14,-1
 686 464 l 1,15,-1
 677 420 l 1,16,-1
 337 420 l 2,17,18
 335 418 335 418 332 404 c 2,19,-1
 325 365 l 1,20,-1
 325 360 l 1,21,-1
 665 360 l 1,22,-1
 656 315 l 1,23,-1
 319 315 l 1,24,-1
 319 289 l 2,25,26
 319 178 319 178 370 115.5 c 128,-1,27
 421 53 421 53 512 53 c 0,28,29
 636 53 636 53 765 135 c 1,30,-1
 755 72 l 1,31,32
 604 -18 604 -18 459 -18 c 0,33,34
 324 -18 324 -18 249.5 59 c 128,-1,35
 175 136 175 136 175 274 c 0,36,37
 175 300 175 300 175 315 c 1,38,-1
 111 315 l 1,39,-1
 120 360 l 1,40,-1
 182 360 l 1,41,-1
 182 364 l 1,42,43
 189 401 189 401 194 420 c 1,44,-1
 118 420 l 1,45,-1
 127 464 l 1,46,-1
 210 464 l 1,0,1
EndSplineSet
EndChar

StartChar: guilsinglleft
Encoding: 8249 8249 129
Width: 560
Flags: W
LayerCount: 2
Fore
SplineSet
375 71 m 1,0,1
 304 237 304 237 167 391 c 1,2,3
 358 507 358 507 437 653 c 1,4,-1
 587 711 l 1,5,6
 536 589 536 589 315 441 c 1,7,8
 423 310 423 310 499 138 c 1,9,-1
 375 71 l 1,0,1
EndSplineSet
EndChar

StartChar: guilsinglright
Encoding: 8250 8250 130
Width: 560
Flags: W
LayerCount: 2
Fore
SplineSet
339 711 m 1,0,1
 410 545 410 545 546 391 c 1,2,3
 356 275 356 275 276 128 c 1,4,-1
 128 71 l 1,5,6
 178 193 178 193 400 341 c 1,7,8
 293 470 293 470 215 643 c 1,9,-1
 339 711 l 1,0,1
EndSplineSet
EndChar

StartChar: daggerdbl
Encoding: 8225 8225 133
Width: 932
Flags: W
LayerCount: 2
Fore
SplineSet
349 -231 m 1,0,-1
 481 185 l 1,1,-1
 161 154 l 1,2,-1
 211 261 l 1,3,-1
 490 229 l 1,4,-1
 567 616 l 1,5,-1
 247 586 l 1,6,-1
 297 693 l 1,7,-1
 575 661 l 1,8,-1
 608 1066 l 1,9,-1
 758 1093 l 1,10,-1
 620 661 l 1,11,-1
 940 693 l 1,12,-1
 889 586 l 1,13,-1
 611 616 l 1,14,-1
 535 229 l 1,15,-1
 855 261 l 1,16,-1
 804 154 l 1,17,-1
 525 185 l 1,18,-1
 499 -213 l 1,19,-1
 349 -231 l 1,0,-1
EndSplineSet
EndChar

StartChar: middot.001
Encoding: 8729 8729 134
Width: 620
Flags: W
LayerCount: 2
Fore
SplineSet
429 516 m 1,0,-1
 190 516 l 1,1,-1
 190 789 l 1,2,-1
 429 789 l 1,3,-1
 429 516 l 1,0,-1
EndSplineSet
EndChar

StartChar: quotesinglbase
Encoding: 8218 8218 135
Width: 380
Flags: W
LayerCount: 2
Fore
SplineSet
94 116 m 1,0,-1
 225 210 l 1,1,-1
 321 82 l 1,2,3
 314 -51 314 -51 239 -122.5 c 128,-1,4
 164 -194 164 -194 33 -194 c 1,5,-1
 69 -153 l 1,6,7
 172 -144 172 -144 192 -16 c 1,8,-1
 94 116 l 1,0,-1
EndSplineSet
EndChar

StartChar: quotedblbase
Encoding: 8222 8222 136
Width: 684
Flags: W
LayerCount: 2
Fore
SplineSet
91 92 m 1,0,-1
 204 178 l 1,1,-1
 292 64 l 1,2,3
 270 -213 270 -213 31 -213 c 1,4,-1
 60 -168 l 1,5,6
 166 -148 166 -148 179 -16 c 1,7,-1
 91 92 l 1,0,-1
401 92 m 1,8,-1
 516 178 l 1,9,-1
 602 64 l 1,10,11
 581 -213 581 -213 341 -213 c 1,12,-1
 372 -168 l 1,13,14
 476 -148 476 -148 490 -16 c 1,15,-1
 401 92 l 1,8,-1
EndSplineSet
EndChar

StartChar: perthousand
Encoding: 8240 8240 137
Width: 1571
Flags: W
LayerCount: 2
Fore
SplineSet
385 533 m 0,0,1
 304 533 304 533 254.5 584.5 c 128,-1,2
 205 636 205 636 205 722 c 0,3,4
 205 865 205 865 286.5 965.5 c 128,-1,5
 368 1066 368 1066 483 1066 c 0,6,7
 567 1066 567 1066 617.5 1014.5 c 128,-1,8
 668 963 668 963 668 877 c 0,9,10
 668 733 668 733 585.5 633 c 128,-1,11
 503 533 503 533 385 533 c 0,0,1
311 715 m 0,12,13
 311 578 311 578 398 578 c 0,14,15
 463 578 463 578 517 671.5 c 128,-1,16
 571 765 571 765 571 881 c 0,17,18
 571 1022 571 1022 483 1022 c 0,19,20
 416 1022 416 1022 363.5 928 c 128,-1,21
 311 834 311 834 311 715 c 0,12,13
850 0 m 0,22,23
 769 0 769 0 719.5 51.5 c 128,-1,24
 670 103 670 103 670 189 c 0,25,26
 670 331 670 331 751 432 c 128,-1,27
 832 533 832 533 947 533 c 0,28,29
 1031 533 1031 533 1081.5 481.5 c 128,-1,30
 1132 430 1132 430 1132 344 c 0,31,32
 1132 200 1132 200 1049.5 100 c 128,-1,33
 967 0 967 0 850 0 c 0,22,23
776 182 m 0,34,35
 776 44 776 44 862 44 c 0,36,37
 929 44 929 44 982 138 c 128,-1,38
 1035 232 1035 232 1035 348 c 0,39,40
 1035 490 1035 490 948 490 c 0,41,42
 880 490 880 490 828 395.5 c 128,-1,43
 776 301 776 301 776 182 c 0,34,35
131 -27 m 1,44,-1
 1111 1093 l 1,45,-1
 1206 1093 l 1,46,-1
 225 -27 l 1,47,-1
 131 -27 l 1,44,-1
1376 0 m 0,48,49
 1294 0 1294 0 1244.5 51.5 c 128,-1,50
 1195 103 1195 103 1195 189 c 0,51,52
 1195 331 1195 331 1276.5 432 c 128,-1,53
 1358 533 1358 533 1473 533 c 0,54,55
 1557 533 1557 533 1607.5 481.5 c 128,-1,56
 1658 430 1658 430 1658 344 c 0,57,58
 1658 200 1658 200 1575.5 100 c 128,-1,59
 1493 0 1493 0 1376 0 c 0,48,49
1301 183 m 0,60,61
 1301 44 1301 44 1389 44 c 0,62,63
 1453 44 1453 44 1507 138 c 128,-1,64
 1561 232 1561 232 1561 347 c 0,65,66
 1561 490 1561 490 1473 490 c 0,67,68
 1406 490 1406 490 1353.5 395.5 c 128,-1,69
 1301 301 1301 301 1301 183 c 0,60,61
EndSplineSet
EndChar

StartChar: circumflex
Encoding: 710 710 139
Width: 862
Flags: W
LayerCount: 2
Fore
SplineSet
870 976 m 1,0,-1
 783 923 l 1,1,2
 729 984 729 984 693 1082 c 1,3,4
 652 1032 652 1032 574 953 c 0,5,6
 571 949 571 949 553 931 c 1,7,-1
 452 923 l 1,8,9
 607 1037 607 1037 674 1120 c 1,10,-1
 772 1182 l 1,11,12
 805 1069 805 1069 870 976 c 1,0,-1
EndSplineSet
EndChar

StartChar: cedilla
Encoding: 184 184 140
Width: 862
Flags: W
LayerCount: 2
Fore
SplineSet
456 0 m 1,0,-1
 414 -64 l 1,1,2
 485 -86 485 -86 485 -147 c 0,3,4
 485 -198 485 -198 428.5 -241 c 128,-1,5
 372 -284 372 -284 303 -284 c 0,6,7
 272 -284 272 -284 237 -277 c 1,8,-1
 292 -201 l 1,9,10
 326 -223 326 -223 352 -223 c 0,11,12
 416 -223 416 -223 416 -171 c 0,13,14
 416 -112 416 -112 318 -112 c 1,15,-1
 394 0 l 1,16,-1
 456 0 l 1,0,-1
EndSplineSet
EndChar

StartChar: brokenbar
Encoding: 166 166 141
Width: 355
Flags: W
LayerCount: 2
Fore
SplineSet
86 -213 m 1,0,-1
 203 373 l 1,1,-1
 301 373 l 1,2,-1
 184 -213 l 1,3,-1
 86 -213 l 1,0,-1
238 551 m 1,4,-1
 355 1137 l 1,5,-1
 453 1137 l 1,6,-1
 337 551 l 1,7,-1
 238 551 l 1,4,-1
EndSplineSet
EndChar

StartChar: minus
Encoding: 8722 8722 142
Width: 1490
Flags: W
LayerCount: 2
Fore
SplineSet
1308 572 m 1,0,-1
 182 572 l 1,1,-1
 182 732 l 1,2,-1
 1308 732 l 1,3,-1
 1308 572 l 1,0,-1
EndSplineSet
EndChar

StartChar: multiply
Encoding: 215 215 143
Width: 866
Flags: W
LayerCount: 2
Fore
SplineSet
348 531 m 1,0,-1
 152 725 l 1,1,-1
 246 819 l 1,2,-1
 440 624 l 1,3,-1
 638 822 l 1,4,-1
 731 729 l 1,5,-1
 533 531 l 1,6,-1
 737 328 l 1,7,-1
 643 234 l 1,8,-1
 440 438 l 1,9,-1
 243 241 l 1,10,-1
 150 334 l 1,11,-1
 348 531 l 1,0,-1
EndSplineSet
EndChar

StartChar: onesuperior
Encoding: 185 185 144
Width: 596
Flags: W
LayerCount: 2
Fore
SplineSet
573 1093 m 1,0,-1
 487 657 l 2,1,2
 476 607 476 607 476 589 c 0,3,4
 476 570 476 570 532 563 c 1,5,-1
 591 560 l 1,6,-1
 582 516 l 1,7,-1
 210 516 l 1,8,-1
 218 560 l 1,9,-1
 279 563 l 2,10,11
 328 567 328 567 337.5 578 c 128,-1,12
 347 589 347 589 362 657 c 2,13,-1
 418 938 l 2,14,15
 423 960 423 960 423 978 c 0,16,17
 423 1004 423 1004 355 1013 c 2,18,-1
 310 1021 l 1,19,-1
 319 1066 l 1,20,-1
 573 1093 l 1,0,-1
EndSplineSet
EndChar

StartChar: twosuperior
Encoding: 178 178 145
Width: 596
Flags: W
LayerCount: 2
Fore
SplineSet
187 516 m 1,0,-1
 207 617 l 1,1,2
 362 712 362 712 454.5 803.5 c 128,-1,3
 547 895 547 895 547 952 c 0,4,5
 547 1046 547 1046 463 1046 c 0,6,7
 352 1046 352 1046 331 928 c 1,8,-1
 278 928 l 1,9,-1
 304 1059 l 1,10,11
 400 1093 400 1093 484 1093 c 0,12,13
 674 1093 674 1093 674 959 c 0,14,15
 674 887 674 887 624.5 842 c 128,-1,16
 575 797 575 797 297 617 c 1,17,-1
 607 617 l 1,18,-1
 587 516 l 1,19,-1
 187 516 l 1,0,-1
EndSplineSet
EndChar

StartChar: threesuperior
Encoding: 179 179 146
Width: 596
Flags: W
LayerCount: 2
Fore
SplineSet
185 545 m 1,0,-1
 257 620 l 1,1,2
 337 556 337 556 418 556 c 0,3,4
 460 556 460 556 490.5 587 c 128,-1,5
 521 618 521 618 521 661 c 0,6,7
 521 776 521 776 345 776 c 0,8,9
 323 776 323 776 301 773 c 1,10,-1
 331 859 l 1,11,12
 350 860 350 860 365 860 c 0,13,14
 412 860 412 860 466 849 c 1,15,16
 547 886 547 886 547 961 c 0,17,18
 547 1046 547 1046 454 1046 c 0,19,20
 365 1046 365 1046 342 941 c 1,21,-1
 289 941 l 1,22,-1
 311 1057 l 1,23,24
 398 1093 398 1093 484 1093 c 0,25,26
 662 1093 662 1093 662 984 c 0,27,28
 662 893 662 893 520 829 c 1,29,30
 625 790 625 790 625 693 c 0,31,32
 625 616 625 616 554.5 563 c 128,-1,33
 484 510 484 510 378 510 c 0,34,35
 289 510 289 510 185 545 c 1,0,-1
EndSplineSet
EndChar

StartChar: onehalf
Encoding: 189 189 147
Width: 1262
Flags: W
LayerCount: 2
Fore
SplineSet
528 1093 m 1,0,-1
 442 657 l 2,1,2
 432 606 432 606 432 589 c 0,3,4
 432 570 432 570 488 563 c 1,5,-1
 547 560 l 1,6,-1
 538 516 l 1,7,-1
 165 516 l 1,8,-1
 174 560 l 1,9,-1
 235 563 l 2,10,11
 283 567 283 567 293 578 c 128,-1,12
 303 589 303 589 318 657 c 2,13,-1
 373 938 l 2,14,15
 378 960 378 960 378 978 c 0,16,17
 378 1004 378 1004 310 1013 c 2,18,-1
 265 1021 l 1,19,-1
 274 1066 l 1,20,-1
 528 1093 l 1,0,-1
160 -27 m 1,21,-1
 1180 1093 l 1,22,-1
 1280 1093 l 1,23,-1
 257 -27 l 1,24,-1
 160 -27 l 1,21,-1
778 0 m 1,25,-1
 797 103 l 1,26,27
 952 197 952 197 1045 288 c 128,-1,28
 1138 379 1138 379 1138 436 c 0,29,30
 1138 530 1138 530 1053 530 c 0,31,32
 942 530 942 530 922 413 c 1,33,-1
 868 413 l 1,34,-1
 895 544 l 1,35,36
 989 578 989 578 1075 578 c 0,37,38
 1264 578 1264 578 1264 445 c 0,39,40
 1264 373 1264 373 1214.5 328 c 128,-1,41
 1165 283 1165 283 887 103 c 1,42,-1
 1197 103 l 1,43,-1
 1177 0 l 1,44,-1
 778 0 l 1,25,-1
EndSplineSet
EndChar

StartChar: onequarter
Encoding: 188 188 148
Width: 1262
Flags: W
LayerCount: 2
Fore
SplineSet
546 1093 m 1,0,-1
 460 657 l 2,1,2
 450 606 450 606 450 589 c 0,3,4
 450 570 450 570 506 563 c 1,5,-1
 565 560 l 1,6,-1
 556 516 l 1,7,-1
 183 516 l 1,8,-1
 192 560 l 1,9,-1
 253 563 l 2,10,11
 301 567 301 567 311 578 c 128,-1,12
 321 589 321 589 336 657 c 2,13,-1
 391 938 l 2,14,15
 396 960 396 960 396 978 c 0,16,17
 396 1004 396 1004 328 1013 c 2,18,-1
 283 1021 l 1,19,-1
 292 1066 l 1,20,-1
 546 1093 l 1,0,-1
178 -27 m 1,21,-1
 1198 1093 l 1,22,-1
 1298 1093 l 1,23,-1
 275 -27 l 1,24,-1
 178 -27 l 1,21,-1
981 164 m 1,25,-1
 732 182 l 1,26,-1
 747 261 l 1,27,-1
 1102 578 l 1,28,-1
 1170 578 l 1,29,-1
 1102 236 l 1,30,-1
 1212 229 l 1,31,-1
 1168 149 l 1,32,-1
 1086 157 l 1,33,34
 1076 102 1076 102 1076 74 c 0,35,36
 1076 52 1076 52 1129 49 c 2,37,-1
 1189 45 l 1,38,-1
 1180 0 l 1,39,-1
 820 0 l 1,40,-1
 829 45 l 1,41,-1
 886 49 l 2,42,43
 937 52 937 52 952 64 c 128,-1,44
 967 76 967 76 973 117 c 0,45,46
 976 134 976 134 981 164 c 1,25,-1
997 244 m 1,47,-1
 1038 446 l 1,48,-1
 823 255 l 1,49,-1
 997 244 l 1,47,-1
EndSplineSet
EndChar

StartChar: threequarters
Encoding: 190 190 149
Width: 1262
Flags: W
LayerCount: 2
Fore
SplineSet
174 545 m 1,0,-1
 247 620 l 1,1,2
 326 556 326 556 407 556 c 0,3,4
 448 556 448 556 478.5 587 c 128,-1,5
 509 618 509 618 509 661 c 0,6,7
 509 776 509 776 333 776 c 0,8,9
 311 776 311 776 289 773 c 1,10,-1
 319 859 l 1,11,12
 338 860 338 860 355 860 c 0,13,14
 401 860 401 860 455 849 c 1,15,16
 535 886 535 886 535 961 c 0,17,18
 535 1046 535 1046 442 1046 c 0,19,20
 354 1046 354 1046 330 941 c 1,21,-1
 277 941 l 1,22,-1
 301 1057 l 1,23,24
 387 1093 387 1093 472 1093 c 0,25,26
 651 1093 651 1093 651 984 c 0,27,28
 651 893 651 893 508 829 c 1,29,30
 614 790 614 790 614 693 c 0,31,32
 614 616 614 616 543 563 c 128,-1,33
 472 510 472 510 366 510 c 0,34,35
 277 510 277 510 174 545 c 1,0,-1
178 -27 m 1,36,-1
 1198 1093 l 1,37,-1
 1298 1093 l 1,38,-1
 275 -27 l 1,39,-1
 178 -27 l 1,36,-1
981 164 m 1,40,-1
 732 182 l 1,41,-1
 747 261 l 1,42,-1
 1102 578 l 1,43,-1
 1170 578 l 1,44,-1
 1102 236 l 1,45,-1
 1212 229 l 1,46,-1
 1168 149 l 1,47,-1
 1086 157 l 1,48,49
 1076 102 1076 102 1076 74 c 0,50,51
 1076 52 1076 52 1129 49 c 2,52,-1
 1189 45 l 1,53,-1
 1180 0 l 1,54,-1
 820 0 l 1,55,-1
 829 45 l 1,56,-1
 886 49 l 2,57,58
 938 52 938 52 952.5 64 c 128,-1,59
 967 76 967 76 973 117 c 0,60,61
 976 134 976 134 981 164 c 1,40,-1
997 244 m 1,62,-1
 1038 446 l 1,63,-1
 823 255 l 1,64,-1
 997 244 l 1,62,-1
EndSplineSet
EndChar

StartChar: macron
Encoding: 175 175 150
Width: 1118
Flags: W
LayerCount: 2
Fore
SplineSet
1134 1659 m 1,0,-1
 -16 1659 l 1,1,-1
 -16 1789 l 1,2,-1
 1134 1789 l 1,3,-1
 1134 1659 l 1,0,-1
EndSplineSet
EndChar

StartChar: periodcentered
Encoding: 183 183 151
Width: 724
Flags: W
LayerCount: 2
Fore
SplineSet
482 832 m 1,0,-1
 243 832 l 1,1,-1
 243 1117 l 1,2,-1
 482 1117 l 1,3,-1
 482 832 l 1,0,-1
EndSplineSet
EndChar

StartChar: H22073
Encoding: 9633 9633 152
Width: 1237
Flags: W
LayerCount: 2
Fore
SplineSet
146 944 m 1,0,-1
 1090 944 l 1,1,-1
 1090 0 l 1,2,-1
 146 0 l 1,3,-1
 146 944 l 1,0,-1
222 868 m 1,4,-1
 222 76 l 1,5,-1
 1014 76 l 1,6,-1
 1014 868 l 1,7,-1
 222 868 l 1,4,-1
EndSplineSet
EndChar

StartChar: H18543
Encoding: 9642 9642 153
Width: 1089
Flags: W
LayerCount: 2
Fore
SplineSet
886 994 m 1,0,-1
 886 300 l 1,1,-1
 192 300 l 1,2,-1
 192 994 l 1,3,-1
 886 994 l 1,0,-1
EndSplineSet
EndChar

StartChar: H18551
Encoding: 9643 9643 154
Width: 1089
Flags: W
LayerCount: 2
Fore
SplineSet
888 996 m 1,0,-1
 888 301 l 1,1,-1
 193 301 l 1,2,-1
 193 996 l 1,3,-1
 888 996 l 1,0,-1
774 882 m 1,4,-1
 307 882 l 1,5,-1
 307 415 l 1,6,-1
 774 415 l 1,7,-1
 774 882 l 1,4,-1
EndSplineSet
EndChar

StartChar: H18533
Encoding: 9679 9679 155
Width: 1339
Flags: W
LayerCount: 2
Fore
SplineSet
204 719 m 0,0,1
 204 920 204 920 345 1061 c 128,-1,2
 486 1202 486 1202 685 1202 c 0,3,4
 885 1202 885 1202 1026 1061 c 128,-1,5
 1167 920 1167 920 1167 719 c 0,6,7
 1167 521 1167 521 1026 380 c 128,-1,8
 885 239 885 239 685 239 c 0,9,10
 486 239 486 239 345 380 c 128,-1,11
 204 521 204 521 204 719 c 0,0,1
EndSplineSet
EndChar

StartChar: openbullet
Encoding: 9702 9702 156
Width: 1089
Flags: W
LayerCount: 2
Fore
SplineSet
544 1171 m 0,0,1
 700 1171 700 1171 810.5 1060.5 c 128,-1,2
 921 950 921 950 921 794 c 256,3,4
 921 638 921 638 810.5 528 c 128,-1,5
 700 418 700 418 544 418 c 256,6,7
 388 418 388 418 278 528 c 128,-1,8
 168 638 168 638 168 794 c 256,9,10
 168 950 168 950 277.5 1060.5 c 128,-1,11
 387 1171 387 1171 544 1171 c 0,0,1
544 1057 m 0,12,13
 435 1057 435 1057 358.5 979.5 c 128,-1,14
 282 902 282 902 282 794 c 0,15,16
 282 685 282 685 359 608.5 c 128,-1,17
 436 532 436 532 544 532 c 256,18,19
 652 532 652 532 729.5 608.5 c 128,-1,20
 807 685 807 685 807 794 c 0,21,22
 807 902 807 902 730.5 979.5 c 128,-1,23
 654 1057 654 1057 544 1057 c 0,12,13
EndSplineSet
EndChar

StartChar: currency
Encoding: 164 164 157
Width: 932
Flags: W
LayerCount: 2
Fore
SplineSet
769 322 m 1,0,-1
 879 184 l 1,1,-1
 841 153 l 1,2,-1
 732 292 l 1,3,4
 616 214 616 214 504 214 c 0,5,6
 394 214 394 214 310 292 c 1,7,-1
 145 153 l 1,8,-1
 120 184 l 1,9,-1
 286 322 l 1,10,11
 243 397 243 397 243 470 c 0,12,13
 243 613 243 613 369 743 c 1,14,-1
 259 882 l 1,15,-1
 297 913 l 1,16,-1
 407 775 l 1,17,18
 521 852 521 852 634 852 c 0,19,20
 744 852 744 852 828 775 c 1,21,-1
 994 913 l 1,22,-1
 1019 882 l 1,23,-1
 852 743 l 1,24,25
 895 668 895 668 895 596 c 0,26,27
 895 455 895 455 769 322 c 1,0,-1
818 579 m 0,28,29
 818 666 818 666 762 721.5 c 128,-1,30
 706 777 706 777 620 777 c 0,31,32
 502 777 502 777 411 688 c 128,-1,33
 320 599 320 599 320 485 c 0,34,35
 320 400 320 400 376.5 344.5 c 128,-1,36
 433 289 433 289 519 289 c 0,37,38
 635 289 635 289 726.5 377.5 c 128,-1,39
 818 466 818 466 818 579 c 0,28,29
EndSplineSet
EndChar

StartChar: uniFFFC
Encoding: 65532 65532 158
Width: 2048
Flags: W
LayerCount: 2
Fore
SplineSet
2048 1150 m 1,0,-1
 1948 1150 l 1,1,-1
 1948 1373 l 1,2,-1
 1725 1373 l 1,3,-1
 1725 1473 l 1,4,-1
 2048 1473 l 1,5,-1
 2048 1150 l 1,0,-1
1473 1373 m 1,6,-1
 1150 1373 l 1,7,-1
 1150 1473 l 1,8,-1
 1473 1473 l 1,9,-1
 1473 1373 l 1,6,-1
2048 575 m 1,10,-1
 1948 575 l 1,11,-1
 1948 898 l 1,12,-1
 2048 898 l 1,13,-1
 2048 575 l 1,10,-1
1782 611 m 2,14,15
 1782 370 1782 370 1571 370 c 0,16,17
 1485 370 1485 370 1433 415 c 1,18,-1
 1506 494 l 1,19,20
 1531 468 1531 468 1571 468 c 0,21,22
 1666 468 1666 468 1666 606 c 2,23,-1
 1666 1090 l 1,24,-1
 1782 1090 l 1,25,-1
 1782 611 l 2,14,15
898 1373 m 1,26,-1
 575 1373 l 1,27,-1
 575 1473 l 1,28,-1
 898 1473 l 1,29,-1
 898 1373 l 1,26,-1
2048 0 m 1,30,-1
 1725 0 l 1,31,-1
 1725 100 l 1,32,-1
 1948 100 l 1,33,-1
 1948 323 l 1,34,-1
 2048 323 l 1,35,-1
 2048 0 l 1,30,-1
1423 591 m 0,36,37
 1423 382 1423 382 1149 382 c 2,38,-1
 909 382 l 1,39,-1
 909 1090 l 1,40,-1
 1144 1090 l 2,41,42
 1393 1090 1393 1090 1393 904 c 0,43,44
 1393 813 1393 813 1304 759 c 1,45,46
 1423 713 1423 713 1423 591 c 0,36,37
323 1373 m 1,47,-1
 100 1373 l 1,48,-1
 100 1150 l 1,49,-1
 0 1150 l 1,50,-1
 0 1473 l 1,51,-1
 323 1473 l 1,52,-1
 323 1373 l 1,47,-1
1473 0 m 1,53,-1
 1150 0 l 1,54,-1
 1150 100 l 1,55,-1
 1473 100 l 1,56,-1
 1473 0 l 1,53,-1
854 735 m 0,57,58
 854 562 854 562 772 466 c 128,-1,59
 690 370 690 370 537 370 c 256,60,61
 384 370 384 370 303.5 466 c 128,-1,62
 223 562 223 562 223 735 c 0,63,64
 223 910 223 910 303.5 1006 c 128,-1,65
 384 1102 384 1102 537 1102 c 256,66,67
 690 1102 690 1102 772 1006 c 128,-1,68
 854 910 854 910 854 735 c 0,57,58
100 575 m 1,69,-1
 0 575 l 1,70,-1
 0 898 l 1,71,-1
 100 898 l 1,72,-1
 100 575 l 1,69,-1
898 0 m 1,73,-1
 575 0 l 1,74,-1
 575 100 l 1,75,-1
 898 100 l 1,76,-1
 898 0 l 1,73,-1
323 0 m 1,77,-1
 0 0 l 1,78,-1
 0 323 l 1,79,-1
 100 323 l 1,80,-1
 100 100 l 1,81,-1
 323 100 l 1,82,-1
 323 0 l 1,77,-1
1277 893 m 0,83,84
 1277 992 1277 992 1114 992 c 2,85,-1
 1025 992 l 1,86,-1
 1025 798 l 1,87,-1
 1126 798 l 2,88,89
 1277 798 1277 798 1277 893 c 0,83,84
1307 591 m 0,90,91
 1307 700 1307 700 1136 700 c 2,92,-1
 1025 700 l 1,93,-1
 1025 480 l 1,94,-1
 1149 480 l 2,95,96
 1307 480 1307 480 1307 591 c 0,90,91
738 735 m 0,97,98
 738 1004 738 1004 537 1004 c 0,99,100
 339 1004 339 1004 339 735 c 0,101,102
 339 468 339 468 537 468 c 0,103,104
 738 468 738 468 738 735 c 0,97,98
EndSplineSet
EndChar

StartChar: dotbelowcomb
Encoding: 65538 -1 160
Width: 0
Flags: W
LayerCount: 2
Fore
SplineSet
666 -382 m 1,0,-1
 452 -382 l 1,1,-1
 452 -187 l 1,2,-1
 666 -187 l 1,3,-1
 666 -382 l 1,0,-1
EndSplineSet
EndChar

StartChar: zerowidthnonjoiner
Encoding: 8204 8204 175
Width: 0
GlyphClass: 2
Flags: W
LayerCount: 2
Fore
SplineSet
36 1289 m 1,0,-1
 36 -275 l 1,1,-1
 -36 -275 l 1,2,-1
 -36 1289 l 1,3,-1
 36 1289 l 1,0,-1
EndSplineSet
EndChar

StartChar: zerowidthjoiner
Encoding: 8205 8205 176
Width: 0
GlyphClass: 2
Flags: W
LayerCount: 2
Fore
SplineSet
36 -275 m 1,0,-1
 -36 -275 l 1,1,-1
 -36 1114 l 1,2,-1
 -170 978 l 1,3,-1
 -219 1027 l 1,4,-1
 -48 1196 l 1,5,-1
 -219 1364 l 1,6,-1
 -170 1413 l 1,7,-1
 0 1242 l 1,8,-1
 170 1413 l 1,9,-1
 219 1364 l 1,10,-1
 48 1196 l 1,11,-1
 219 1027 l 1,12,-1
 170 978 l 1,13,-1
 36 1114 l 1,14,-1
 36 -275 l 1,0,-1
EndSplineSet
EndChar

StartChar: lefttorightmark
Encoding: 8206 8206 177
Width: 0
GlyphClass: 2
Flags: W
LayerCount: 2
Fore
SplineSet
430 1198 m 1,0,-1
 213 984 l 1,1,-1
 164 1033 l 1,2,-1
 301 1163 l 1,3,-1
 35 1163 l 1,4,-1
 35 -275 l 1,5,-1
 -36 -275 l 1,6,-1
 -36 1234 l 1,7,-1
 301 1234 l 1,8,-1
 164 1364 l 1,9,-1
 213 1413 l 1,10,-1
 430 1198 l 1,0,-1
EndSplineSet
EndChar

StartChar: righttoleftmark
Encoding: 8207 8207 178
Width: 0
GlyphClass: 2
Flags: W
LayerCount: 2
Fore
SplineSet
35 -275 m 1,0,-1
 -36 -275 l 1,1,-1
 -36 1163 l 1,2,-1
 -302 1163 l 1,3,-1
 -165 1033 l 1,4,-1
 -214 984 l 1,5,-1
 -431 1198 l 1,6,-1
 -214 1413 l 1,7,-1
 -165 1364 l 1,8,-1
 -302 1234 l 1,9,-1
 35 1234 l 1,10,-1
 35 -275 l 1,0,-1
EndSplineSet
EndChar

StartChar: afii57388.001
Encoding: 1644 1644 179
Width: 321
GlyphClass: 2
Flags: W
LayerCount: 2
Fore
SplineSet
191 595 m 0,0,1
 186 583 186 583 180.5 571 c 128,-1,2
 175 559 175 559 168 549 c 0,3,4
 159 537 159 537 147.5 536.5 c 128,-1,5
 136 536 136 536 141 549 c 0,6,7
 170 600 170 600 184 649 c 128,-1,8
 198 698 198 698 198 728 c 1,9,10
 176 733 176 733 162.5 742.5 c 128,-1,11
 149 752 149 752 141 762.5 c 128,-1,12
 133 773 133 773 130 782 c 128,-1,13
 127 791 127 791 127 795 c 0,14,15
 127 810 127 810 132 825 c 128,-1,16
 137 840 137 840 146 852.5 c 128,-1,17
 155 865 155 865 167.5 873 c 128,-1,18
 180 881 180 881 194 881 c 0,19,20
 248 881 248 881 248 795 c 0,21,22
 248 781 248 781 244 759.5 c 128,-1,23
 240 738 240 738 233 711 c 128,-1,24
 226 684 226 684 215 654.5 c 128,-1,25
 204 625 204 625 191 595 c 0,0,1
EndSplineSet
EndChar

StartChar: afii57409
Encoding: 1569 1569 180
Width: 725
GlyphClass: 2
Flags: W
AnchorPoint: "Anchor-1" 390 -345 basechar 0
AnchorPoint: "Anchor-0" 345 810 basechar 0
LayerCount: 2
Fore
SplineSet
598 166 m 1,0,-1
 445 132 l 2,1,2
 246 88 246 88 101 -13 c 1,3,4
 96 4 96 4 93.5 19 c 128,-1,5
 91 34 91 34 91 48 c 0,6,7
 91 69 91 69 99.5 93 c 128,-1,8
 108 117 108 117 121.5 139 c 128,-1,9
 135 161 135 161 151.5 178 c 128,-1,10
 168 195 168 195 185 201 c 1,11,12
 123 260 123 260 123 358 c 0,13,14
 123 436 123 436 212 531 c 0,15,16
 310 633 310 633 412 633 c 0,17,18
 453 633 453 633 483.5 623.5 c 128,-1,19
 514 614 514 614 537 592 c 0,20,21
 578 558 578 558 578 500 c 0,22,23
 578 454 578 454 539 414 c 1,24,25
 474 470 474 470 389 470 c 0,26,27
 349 470 349 470 306 453 c 0,28,29
 259 434 259 434 259 406 c 0,30,31
 259 363 259 363 306 328 c 0,32,33
 330 310 330 310 354 300 c 128,-1,34
 378 290 378 290 404 290 c 0,35,36
 513 290 513 290 630 343 c 1,37,-1
 598 166 l 1,0,-1
EndSplineSet
EndChar

StartChar: afii57440
Encoding: 1600 1600 181
Width: 409
GlyphClass: 2
Flags: W
LayerCount: 2
Fore
SplineSet
455 35 m 1,0,1
 455 0 455 0 414 0 c 2,2,-1
 -5 0 l 2,3,4
 -46 0 -46 0 -46 35 c 2,5,-1
 -46 215 l 2,6,7
 -46 249 -46 249 -5 249 c 2,8,-1
 414 249 l 2,9,10
 455 249 455 249 455 215 c 2,11,-1
 455 35 l 1,12,-1
 455 35 l 1,0,1
EndSplineSet
EndChar

StartChar: afii57453
Encoding: 1613 1613 182
Width: 0
GlyphClass: 4
Flags: W
AnchorPoint: "Anchor-3" 0 0 mark 0
AnchorPoint: "Anchor-1" 0 0 mark 0
LayerCount: 2
Fore
SplineSet
162 169 m 1,0,-1
 -185 -7 l 1,1,-1
 -165 78 l 1,2,-1
 182 256 l 1,3,-1
 162 169 l 1,0,-1
162 30 m 1,4,-1
 -185 -147 l 1,5,-1
 -165 -61 l 1,6,-1
 182 116 l 1,7,-1
 162 30 l 1,4,-1
EndSplineSet
EndChar

StartChar: afii57455.001
Encoding: 65539 -1 183
Width: 473
GlyphClass: 4
Flags: W
LayerCount: 2
Fore
SplineSet
450 1484 m 1,0,1
 440 1469 440 1469 423.5 1449.5 c 128,-1,2
 407 1430 407 1430 387 1406 c 1,3,-1
 327 1431 l 1,4,5
 247 1330 247 1330 94 1330 c 0,6,7
 39 1330 39 1330 25 1363 c 1,8,9
 79 1374 79 1374 156 1404 c 0,10,11
 201 1421 201 1421 230 1435 c 128,-1,12
 259 1449 259 1449 273 1462 c 1,13,14
 243 1473 243 1473 215 1500 c 0,15,16
 181 1531 181 1531 181 1564 c 0,17,18
 181 1623 181 1623 238 1676 c 0,19,20
 296 1730 296 1730 351 1730 c 0,21,22
 416 1730 416 1730 416 1628 c 0,23,24
 416 1558 416 1558 389 1509 c 1,25,-1
 450 1484 l 1,0,1
351 1572 m 0,26,27
 351 1639 351 1639 318 1639 c 0,28,29
 258 1639 258 1639 258 1603 c 0,30,31
 258 1584 258 1584 291 1559 c 0,32,33
 319 1540 319 1540 344 1531 c 1,34,35
 351 1546 351 1546 351 1572 c 0,26,27
EndSplineSet
EndChar

StartChar: afii57458.001
Encoding: 65540 -1 184
Width: 0
GlyphClass: 4
Flags: W
LayerCount: 2
Fore
SplineSet
155 1456 m 0,0,1
 155 1421 155 1421 140 1390.5 c 128,-1,2
 125 1360 125 1360 99 1336.5 c 128,-1,3
 73 1313 73 1313 38.5 1299.5 c 128,-1,4
 4 1286 4 1286 -35 1286 c 0,5,6
 -81 1286 -81 1286 -110 1320.5 c 128,-1,7
 -139 1355 -139 1355 -139 1410 c 0,8,9
 -139 1481 -139 1481 -100 1549 c 0,10,11
 -53 1629 -53 1629 15 1629 c 0,12,13
 76 1629 76 1629 117 1575 c 0,14,15
 155 1525 155 1525 155 1456 c 0,0,1
90 1431 m 1,16,17
 88 1448 88 1448 78.5 1465 c 128,-1,18
 69 1482 69 1482 54 1495.5 c 128,-1,19
 39 1509 39 1509 21 1517.5 c 128,-1,20
 3 1526 3 1526 -16 1526 c 0,21,22
 -43 1526 -43 1526 -58.5 1503.5 c 128,-1,23
 -74 1481 -74 1481 -74 1454 c 0,24,25
 -74 1441 -74 1441 -69.5 1431 c 128,-1,26
 -65 1421 -65 1421 -57 1410 c 0,27,28
 -48 1399 -48 1399 -34 1394 c 128,-1,29
 -20 1389 -20 1389 -5 1389 c 0,30,31
 54 1389 54 1389 90 1431 c 1,16,17
EndSplineSet
EndChar

StartChar: afii57381
Encoding: 1642 1642 185
Width: 932
GlyphClass: 2
Flags: W
LayerCount: 2
Fore
SplineSet
200 -120 m 1,0,-1
 711 1215 l 1,1,-1
 789 1184 l 1,2,-1
 279 -151 l 1,3,-1
 200 -120 l 1,0,-1
854 47 m 0,4,5
 854 10 854 10 827.5 -17 c 128,-1,6
 801 -44 801 -44 763 -44 c 256,7,8
 725 -44 725 -44 698.5 -17 c 128,-1,9
 672 10 672 10 672 48 c 256,10,11
 672 86 672 86 698.5 112.5 c 128,-1,12
 725 139 725 139 763 139 c 0,13,14
 802 139 802 139 828 112.5 c 128,-1,15
 854 86 854 86 854 47 c 0,4,5
292 1033 m 0,16,17
 292 996 292 996 265 969.5 c 128,-1,18
 238 943 238 943 201 943 c 0,19,20
 163 943 163 943 136 969.5 c 128,-1,21
 109 996 109 996 109 1035 c 0,22,23
 109 1072 109 1072 136 1099 c 128,-1,24
 163 1126 163 1126 200 1126 c 0,25,26
 239 1126 239 1126 265.5 1099 c 128,-1,27
 292 1072 292 1072 292 1033 c 0,16,17
EndSplineSet
EndChar

StartChar: afii57461
Encoding: 1643 1643 186
Width: 896
GlyphClass: 2
Flags: W
LayerCount: 2
Fore
SplineSet
107 -474 m 1,0,-1
 702 457 l 1,1,-1
 805 457 l 1,2,-1
 211 -474 l 1,3,-1
 107 -474 l 1,0,-1
EndSplineSet
EndChar

StartChar: afii63167
Encoding: 1645 1645 187
Width: 1017
GlyphClass: 2
Flags: W
LayerCount: 2
Fore
SplineSet
632 663 m 1,0,-1
 962 667 l 1,1,-1
 962 555 l 1,2,-1
 639 557 l 1,3,-1
 884 320 l 1,4,-1
 804 240 l 1,5,-1
 561 490 l 1,6,-1
 567 153 l 1,7,-1
 453 153 l 1,8,-1
 457 490 l 1,9,-1
 215 240 l 1,10,-1
 134 320 l 1,11,-1
 384 559 l 1,12,-1
 57 555 l 1,13,-1
 57 667 l 1,14,-1
 382 663 l 1,15,-1
 155 887 l 1,16,-1
 235 969 l 1,17,-1
 457 743 l 1,18,-1
 453 1070 l 1,19,-1
 567 1070 l 1,20,-1
 561 740 l 1,21,-1
 783 969 l 1,22,-1
 863 887 l 1,23,-1
 632 663 l 1,0,-1
EndSplineSet
EndChar

StartChar: afii57459
Encoding: 65541 -1 188
Width: 692
GlyphClass: 2
Flags: W
LayerCount: 2
Fore
SplineSet
639 384 m 0,0,1
 639 167 639 167 514 78 c 0,2,3
 407 0 407 0 183 0 c 2,4,-1
 -5 0 l 2,5,6
 -46 0 -46 0 -46 35 c 2,7,-1
 -46 215 l 2,8,9
 -46 249 -46 249 -5 249 c 2,10,-1
 231 249 l 2,11,12
 281 249 281 249 329 255 c 128,-1,13
 377 261 377 261 427 272 c 0,14,15
 546 299 546 299 546 347 c 0,16,17
 546 373 546 373 531 393 c 1,18,19
 472 383 472 383 424.5 379 c 128,-1,20
 377 375 377 375 339 375 c 0,21,22
 288 375 288 375 252 379 c 128,-1,23
 216 383 216 383 192 393 c 0,24,25
 117 424 117 424 117 507 c 0,26,27
 117 571 117 571 132.5 635 c 128,-1,28
 148 699 148 699 177 764 c 0,29,30
 251 919 251 919 361 919 c 0,31,32
 639 919 639 919 639 384 c 0,0,1
480 581 m 1,33,34
 473 619 473 619 434 663 c 0,35,36
 410 690 410 690 386.5 702.5 c 128,-1,37
 363 715 363 715 338 715 c 0,38,39
 293 715 293 715 261 693 c 128,-1,40
 229 671 229 671 229 633 c 0,41,42
 229 567 229 567 367 567 c 0,43,44
 441 567 441 567 480 581 c 1,33,34
EndSplineSet
EndChar

StartChar: afii57543
Encoding: 65542 -1 189
Width: 725
Flags: W
LayerCount: 2
Fore
SplineSet
772 35 m 1,0,1
 772 0 772 0 731 0 c 2,2,-1
 669 0 l 2,3,4
 543 0 543 0 436 155 c 1,5,6
 402 89 402 89 322 45 c 0,7,8
 241 0 241 0 167 0 c 2,9,-1
 -5 0 l 2,10,11
 -46 0 -46 0 -46 35 c 2,12,-1
 -46 215 l 2,13,14
 -46 249 -46 249 -5 249 c 2,15,-1
 106 249 l 2,16,17
 182 249 182 249 236 261.5 c 128,-1,18
 290 274 290 274 324.5 300.5 c 128,-1,19
 359 327 359 327 375 368.5 c 128,-1,20
 391 410 391 410 391 468 c 0,21,22
 391 514 391 514 438 514 c 0,23,24
 455 514 455 514 467.5 499.5 c 128,-1,25
 480 485 480 485 480 468 c 0,26,27
 480 249 480 249 706 249 c 2,28,-1
 731 249 l 2,29,30
 772 249 772 249 772 215 c 2,31,-1
 772 35 l 1,32,-1
 772 35 l 1,0,1
EndSplineSet
EndChar

StartChar: afii57534
Encoding: 1749 1749 190
Width: 732
GlyphClass: 2
Flags: W
LayerCount: 2
Fore
SplineSet
695 302 m 0,0,1
 695 148 695 148 606 67 c 0,2,3
 520 -13 520 -13 367 -13 c 0,4,5
 229 -13 229 -13 160 50 c 0,6,7
 101 109 101 109 101 205 c 0,8,9
 101 338 101 338 183 490 c 0,10,11
 257 630 257 630 347 699 c 1,12,13
 417 685 417 685 475 654.5 c 128,-1,14
 533 624 533 624 581 578 c 0,15,16
 695 467 695 467 695 302 c 0,0,1
589 279 m 0,17,18
 589 323 589 323 479 399 c 0,19,20
 375 468 375 468 304 482 c 1,21,22
 266 451 266 451 246.5 411 c 128,-1,23
 227 371 227 371 227 320 c 0,24,25
 227 210 227 210 427 210 c 0,26,27
 481 210 481 210 535 233 c 0,28,29
 589 255 589 255 589 279 c 0,17,18
EndSplineSet
EndChar

StartChar: afii64240
Encoding: 65543 -1 191
Width: 295
Flags: W
LayerCount: 2
Fore
SplineSet
147 6 m 1,0,-1
 15 139 l 1,1,-1
 147 269 l 1,2,-1
 279 139 l 1,3,-1
 147 6 l 1,0,-1
EndSplineSet
EndChar

StartChar: afii64241
Encoding: 65544 -1 192
Width: 543
Flags: W
LayerCount: 2
Fore
SplineSet
412 2 m 1,0,-1
 293 121 l 1,1,-1
 412 242 l 1,2,-1
 531 121 l 1,3,-1
 412 2 l 1,0,-1
140 2 m 1,4,-1
 21 121 l 1,5,-1
 140 242 l 1,6,-1
 259 121 l 1,7,-1
 140 2 l 1,4,-1
EndSplineSet
EndChar

StartChar: afii63954
Encoding: 65545 -1 193
Width: 561
Flags: W
LayerCount: 2
Fore
SplineSet
283 244 m 1,0,-1
 164 364 l 1,1,-1
 283 485 l 1,2,-1
 402 364 l 1,3,-1
 283 244 l 1,0,-1
419 7 m 1,4,-1
 299 126 l 1,5,-1
 419 248 l 1,6,-1
 538 126 l 1,7,-1
 419 7 l 1,4,-1
147 7 m 1,8,-1
 27 126 l 1,9,-1
 147 248 l 1,10,-1
 266 126 l 1,11,-1
 147 7 l 1,8,-1
EndSplineSet
EndChar

StartChar: afii57382
Encoding: 65546 -1 194
Width: 558
Flags: W
LayerCount: 2
Fore
SplineSet
141 -245 m 1,0,-1
 22 -124 l 1,1,-1
 141 -5 l 1,2,-1
 260 -124 l 1,3,-1
 141 -245 l 1,0,-1
277 -481 m 1,4,-1
 157 -360 l 1,5,-1
 277 -241 l 1,6,-1
 396 -360 l 1,7,-1
 277 -481 l 1,4,-1
413 -245 m 1,8,-1
 294 -124 l 1,9,-1
 413 -5 l 1,10,-1
 532 -124 l 1,11,-1
 413 -245 l 1,8,-1
EndSplineSet
EndChar

StartChar: afii64242
Encoding: 65547 -1 195
Width: 465
Flags: W
LayerCount: 2
Fore
SplineSet
430 386 m 0,0,1
 430 0 430 0 82 0 c 2,2,-1
 -5 0 l 2,3,4
 -46 0 -46 0 -46 35 c 2,5,-1
 -46 215 l 2,6,7
 -46 249 -46 249 -5 249 c 0,8,9
 304 249 304 249 304 315 c 0,10,11
 304 352 304 352 187 496 c 1,12,-1
 318 699 l 1,13,14
 430 574 430 574 430 386 c 0,0,1
EndSplineSet
EndChar

StartChar: afii62881
Encoding: 59416 59416 196
Width: 0
GlyphClass: 4
Flags: W
AnchorPoint: "Anchor-2" 0 0 mark 0
AnchorPoint: "Anchor-0" 0 0 mark 0
LayerCount: 2
Fore
SplineSet
151 200 m 2,0,1
 149 176 149 176 140.5 155 c 128,-1,2
 132 134 132 134 117 113 c 0,3,4
 81 68 81 68 39 68 c 0,5,6
 26 68 26 68 15 70.5 c 128,-1,7
 4 73 4 73 -5 77 c 1,8,9
 -40 1 -40 1 -112 1 c 0,10,11
 -187 1 -187 1 -187 85 c 0,12,13
 -187 118 -187 118 -180 142.5 c 128,-1,14
 -173 167 -173 167 -162 183 c 128,-1,15
 -151 199 -151 199 -137.5 205 c 128,-1,16
 -124 211 -124 211 -110 206 c 1,17,18
 -121 171 -121 171 -121 143 c 0,19,20
 -121 104 -121 104 -97 104 c 0,21,22
 -52 104 -52 104 -25 238 c 1,23,-1
 15 260 l 1,24,25
 15 182 15 182 57 182 c 0,26,27
 96 182 96 182 96 211 c 0,28,29
 96 282 96 282 110 296 c 0,30,31
 117 303 117 303 128.5 310.5 c 128,-1,32
 140 318 140 318 157 325 c 1,33,-1
 151 200 l 2,0,1
157 593 m 1,34,-1
 -190 417 l 1,35,-1
 -170 502 l 1,36,-1
 177 680 l 1,37,-1
 157 593 l 1,34,-1
157 454 m 1,38,-1
 -190 277 l 1,39,-1
 -170 363 l 1,40,-1
 177 540 l 1,41,-1
 157 454 l 1,38,-1
EndSplineSet
Ligature2: "'ccmp' Glyph Composition/Decomposition in Arabic lookup 4 subtable" afii57457 afii57451
EndChar

StartChar: afii57373
Encoding: 65548 -1 200
Width: 539
Flags: W
LayerCount: 2
Fore
SplineSet
420 948 m 1,0,1
 376 944 376 944 309 925 c 0,2,3
 168 885 168 885 121 818 c 1,4,5
 117 828 117 828 114.5 838 c 128,-1,6
 112 848 112 848 112 861 c 0,7,8
 112 918 112 918 181 956 c 1,9,10
 123 992 123 992 123 1051 c 0,11,12
 123 1111 123 1111 185 1170 c 0,13,14
 248 1230 248 1230 311 1230 c 0,15,16
 402 1230 402 1230 402 1158 c 0,17,18
 402 1125 402 1125 384 1107 c 1,19,20
 355 1137 355 1137 297 1137 c 0,21,22
 192 1137 192 1137 192 1083 c 0,23,24
 192 1071 192 1071 201 1058.5 c 128,-1,25
 210 1046 210 1046 224 1036.5 c 128,-1,26
 238 1027 238 1027 255 1020.5 c 128,-1,27
 272 1014 272 1014 288 1014 c 0,28,29
 330 1014 330 1014 370 1023.5 c 128,-1,30
 410 1033 410 1033 451 1055 c 1,31,-1
 420 948 l 1,0,1
EndSplineSet
EndChar

StartChar: afii57374
Encoding: 65549 -1 201
Width: 827
GlyphClass: 2
Flags: W
LayerCount: 2
Fore
SplineSet
875 35 m 2,0,1
 875 0 875 0 833 0 c 2,2,-1
 794 0 l 2,3,4
 717 0 717 0 628.5 27.5 c 128,-1,5
 540 55 540 55 440 112 c 1,6,7
 392 80 392 80 346.5 58.5 c 128,-1,8
 301 37 301 37 258 25 c 0,9,10
 211 11 211 11 152.5 5.5 c 128,-1,11
 94 0 94 0 23 0 c 2,12,-1
 -5 0 l 2,13,14
 -46 0 -46 0 -46 35 c 2,15,-1
 -46 215 l 2,16,17
 -46 249 -46 249 -5 249 c 2,18,-1
 82 249 l 2,19,20
 134 249 134 249 178.5 253.5 c 128,-1,21
 223 258 223 258 261 265 c 1,22,23
 192 337 192 337 192 440 c 0,24,25
 192 540 192 540 267 654 c 0,26,27
 356 794 356 794 480 794 c 0,28,29
 525 794 525 794 560 772 c 128,-1,30
 595 750 595 750 624 706 c 0,31,32
 653 663 653 663 667.5 608 c 128,-1,33
 682 553 682 553 682 487 c 0,34,35
 682 454 682 454 675 421.5 c 128,-1,36
 668 389 668 389 654 354 c 0,37,38
 641 325 641 325 628.5 303 c 128,-1,39
 616 281 616 281 600 268 c 1,40,41
 642 259 642 259 677 254 c 128,-1,42
 712 249 712 249 738 249 c 2,43,-1
 833 249 l 2,44,45
 875 249 875 249 875 215 c 2,46,-1
 875 35 l 2,0,1
589 438 m 0,47,48
 589 484 589 484 544 531 c 0,49,50
 521 554 521 554 498.5 567 c 128,-1,51
 476 580 476 580 453 580 c 256,52,53
 430 580 430 580 404 571.5 c 128,-1,54
 378 563 378 563 349 544 c 0,55,56
 285 508 285 508 285 470 c 0,57,58
 285 426 285 426 345 369 c 0,59,60
 405 315 405 315 436 315 c 0,61,62
 452 315 452 315 474.5 326 c 128,-1,63
 497 337 497 337 528 361 c 0,64,65
 589 409 589 409 589 438 c 0,47,48
EndSplineSet
EndChar

StartChar: afii57375
Encoding: 1619 1619 202
Width: 560
GlyphClass: 2
Flags: W
LayerCount: 2
Fore
SplineSet
517 1530 m 1,0,1
 501 1438 501 1438 413 1389 c 0,2,3
 385 1373 385 1373 337.5 1366 c 128,-1,4
 290 1359 290 1359 223 1359 c 0,5,6
 123 1359 123 1359 93 1280 c 1,7,8
 56 1293 56 1293 56 1351 c 0,9,10
 56 1394 56 1394 85 1430 c 0,11,12
 123 1475 123 1475 187 1472 c 2,13,-1
 287 1469 l 2,14,15
 332 1467 332 1467 365.5 1472 c 128,-1,16
 399 1477 399 1477 424 1490 c 128,-1,17
 449 1503 449 1503 467 1523 c 128,-1,18
 485 1543 485 1543 499 1571 c 1,19,-1
 517 1530 l 1,20,-1
 517 1530 l 1,0,1
EndSplineSet
EndChar

StartChar: afii57471
Encoding: 65550 -1 203
Width: 1653
Flags: W
LayerCount: 2
Fore
SplineSet
1700 35 m 1,0,1
 1700 0 1700 0 1659 0 c 0,2,3
 1534 0 1534 0 1472 37 c 0,4,5
 1413 75 1413 75 1362 181 c 1,6,7
 1114 -23 1114 -23 654 -23 c 0,8,9
 515 -23 515 -23 414.5 -3 c 128,-1,10
 314 17 314 17 248 57 c 0,11,12
 105 146 105 146 105 343 c 0,13,14
 105 395 105 395 116 444 c 128,-1,15
 127 493 127 493 151 542 c 0,16,17
 193 630 193 630 224 630 c 0,18,19
 265 630 265 630 265 592 c 0,20,21
 265 589 265 589 259.5 576.5 c 128,-1,22
 254 564 254 564 248 544.5 c 128,-1,23
 242 525 242 525 236.5 501 c 128,-1,24
 231 477 231 477 231 451 c 0,25,26
 231 395 231 395 262 351.5 c 128,-1,27
 293 308 293 308 356 279 c 0,28,29
 412 253 412 253 486 240 c 128,-1,30
 560 227 560 227 652 227 c 0,31,32
 974 227 974 227 1168 300 c 0,33,34
 1301 351 1301 351 1375 436 c 0,35,36
 1442 509 1442 509 1446 509 c 0,37,38
 1491 509 1491 509 1491 464 c 0,39,40
 1491 433 1491 433 1481.5 399.5 c 128,-1,41
 1472 366 1472 366 1453 328 c 1,42,43
 1494 249 1494 249 1659 249 c 0,44,45
 1700 249 1700 249 1700 215 c 2,46,-1
 1700 35 l 1,47,-1
 1700 35 l 1,0,1
EndSplineSet
EndChar

StartChar: afii52258
Encoding: 65551 -1 204
Width: 1613
GlyphClass: 2
Flags: W
LayerCount: 2
Fore
SplineSet
1659 35 m 2,0,1
 1659 0 1659 0 1618 0 c 2,2,-1
 1595 0 l 2,3,4
 1486 0 1486 0 1393 29 c 128,-1,5
 1300 58 1300 58 1218 116 c 1,6,7
 1158 71 1158 71 1003 28 c 0,8,9
 912 3 912 3 824.5 -10 c 128,-1,10
 737 -23 737 -23 654 -23 c 0,11,12
 515 -23 515 -23 414.5 -3 c 128,-1,13
 314 17 314 17 248 57 c 0,14,15
 105 146 105 146 105 343 c 0,16,17
 105 395 105 395 116 444 c 128,-1,18
 127 493 127 493 151 542 c 0,19,20
 193 630 193 630 224 630 c 0,21,22
 265 630 265 630 265 592 c 0,23,24
 265 589 265 589 259.5 576.5 c 128,-1,25
 254 564 254 564 248 544.5 c 128,-1,26
 242 525 242 525 236.5 501 c 128,-1,27
 231 477 231 477 231 451 c 0,28,29
 231 395 231 395 262 351.5 c 128,-1,30
 293 308 293 308 356 279 c 0,31,32
 412 253 412 253 486 240 c 128,-1,33
 560 227 560 227 652 227 c 0,34,35
 915 227 915 227 1047 265 c 1,36,37
 978 331 978 331 978 440 c 0,38,39
 978 540 978 540 1053 654 c 0,40,41
 1143 794 1143 794 1268 794 c 0,42,43
 1351 794 1351 794 1410 706 c 0,44,45
 1440 663 1440 663 1454.5 608 c 128,-1,46
 1469 553 1469 553 1469 487 c 0,47,48
 1469 422 1469 422 1441 354 c 0,49,50
 1428 325 1428 325 1415 303 c 128,-1,51
 1402 281 1402 281 1387 268 c 1,52,53
 1425 259 1425 259 1458.5 254 c 128,-1,54
 1492 249 1492 249 1524 249 c 2,55,-1
 1618 249 l 2,56,57
 1659 249 1659 249 1659 215 c 2,58,-1
 1659 35 l 2,0,1
1375 438 m 0,59,60
 1375 484 1375 484 1330 531 c 0,61,62
 1308 554 1308 554 1285.5 567 c 128,-1,63
 1263 580 1263 580 1239 580 c 0,64,65
 1216 580 1216 580 1190 571.5 c 128,-1,66
 1164 563 1164 563 1135 544 c 0,67,68
 1103 526 1103 526 1087.5 507 c 128,-1,69
 1072 488 1072 488 1072 470 c 0,70,71
 1072 425 1072 425 1131 369 c 0,72,73
 1191 315 1191 315 1222 315 c 0,74,75
 1238 315 1238 315 1260.5 326 c 128,-1,76
 1283 337 1283 337 1314 361 c 0,77,78
 1375 409 1375 409 1375 438 c 0,59,60
EndSplineSet
EndChar

StartChar: afii62889
Encoding: 65552 -1 210
Width: 1327
Flags: W
LayerCount: 2
Fore
SplineSet
1373 35 m 2,0,1
 1373 0 1373 0 1332 0 c 2,2,-1
 1181 0 l 1,3,-1
 1181 -56 l 2,4,5
 1181 -507 1181 -507 514 -507 c 0,6,7
 316 -507 316 -507 203 -412 c 0,8,9
 82 -308 82 -308 82 -101 c 0,10,11
 82 22 82 22 166 190 c 0,12,13
 218 293 218 293 254 293 c 0,14,15
 288 293 288 293 288 259 c 1,16,-1
 248 151 l 2,17,18
 228 96 228 96 218 54.5 c 128,-1,19
 208 13 208 13 208 -18 c 0,20,21
 208 -258 208 -258 561 -258 c 0,22,23
 743 -258 743 -258 893 -217 c 0,24,25
 1088 -163 1088 -163 1088 -54 c 0,26,27
 1088 -44 1088 -44 1085.5 -30 c 128,-1,28
 1083 -16 1083 -16 1077 5 c 1,29,30
 1029 3 1029 3 979 1.5 c 128,-1,31
 929 0 929 0 876 0 c 0,32,33
 628 0 628 0 628 160 c 0,34,35
 628 223 628 223 644.5 290 c 128,-1,36
 661 357 661 357 693 429 c 0,37,38
 769 600 769 600 878 600 c 0,39,40
 1004 600 1004 600 1085 484 c 0,41,42
 1146 393 1146 393 1170 249 c 1,43,-1
 1332 249 l 2,44,45
 1373 249 1373 249 1373 215 c 2,46,-1
 1373 35 l 2,0,1
1017 242 m 1,47,48
 999 309 999 309 948 354 c 0,49,50
 900 397 900 397 854 397 c 0,51,52
 835 397 835 397 817 390 c 128,-1,53
 799 383 799 383 785 371 c 128,-1,54
 771 359 771 359 762.5 344 c 128,-1,55
 754 329 754 329 754 313 c 0,56,57
 754 231 754 231 855 231 c 0,58,59
 905 231 905 231 945 234 c 128,-1,60
 985 237 985 237 1017 242 c 1,47,48
EndSplineSet
EndChar

StartChar: afii62887
Encoding: 65553 -1 211
Width: 1555
Flags: W
LayerCount: 2
Fore
SplineSet
1383 699 m 1,0,1
 1443 624 1443 624 1468.5 549 c 128,-1,2
 1494 474 1494 474 1494 386 c 0,3,4
 1494 330 1494 330 1479.5 275 c 128,-1,5
 1465 220 1465 220 1437 173 c 128,-1,6
 1409 126 1409 126 1367 92 c 128,-1,7
 1325 58 1325 58 1271 45 c 0,8,9
 1214 30 1214 30 1138 17.5 c 128,-1,10
 1062 5 1062 5 979 -4 c 128,-1,11
 896 -13 896 -13 811.5 -18 c 128,-1,12
 727 -23 727 -23 654 -23 c 0,13,14
 522 -23 522 -23 419.5 -4.5 c 128,-1,15
 317 14 317 14 247.5 57 c 128,-1,16
 178 100 178 100 141.5 170 c 128,-1,17
 105 240 105 240 105 343 c 0,18,19
 105 398 105 398 118.5 450 c 128,-1,20
 132 502 132 502 150.5 542 c 128,-1,21
 169 582 169 582 189.5 606 c 128,-1,22
 210 630 210 630 224 630 c 0,23,24
 244 630 244 630 254.5 619 c 128,-1,25
 265 608 265 608 265 592 c 0,26,27
 265 583 265 583 259.5 572 c 128,-1,28
 254 561 254 561 248 545 c 128,-1,29
 242 529 242 529 236.5 506.5 c 128,-1,30
 231 484 231 484 231 451 c 0,31,32
 231 392 231 392 264.5 350 c 128,-1,33
 298 308 298 308 355.5 280.5 c 128,-1,34
 413 253 413 253 489.5 240 c 128,-1,35
 566 227 566 227 652 227 c 0,36,37
 703 227 703 227 776 229.5 c 128,-1,38
 849 232 849 232 928.5 237.5 c 128,-1,39
 1008 243 1008 243 1086.5 251 c 128,-1,40
 1165 259 1165 259 1227.5 270.5 c 128,-1,41
 1290 282 1290 282 1329 296 c 128,-1,42
 1368 310 1368 310 1368 328 c 0,43,44
 1368 335 1368 335 1365 342.5 c 128,-1,45
 1362 350 1362 350 1349.5 366.5 c 128,-1,46
 1337 383 1337 383 1312.5 414 c 128,-1,47
 1288 445 1288 445 1245 500 c 1,48,-1
 1383 699 l 1,49,-1
 1383 699 l 1,0,1
EndSplineSet
EndChar

StartChar: afii62888
Encoding: 1697 1697 212
Width: 1562
GlyphClass: 2
Flags: W
LayerCount: 2
Fore
SplineSet
1471 384 m 0,0,1
 1471 194 1471 194 1364 105 c 0,2,3
 1332 78 1332 78 1258 54.5 c 128,-1,4
 1184 31 1184 31 1068 13 c 0,5,6
 855 -23 855 -23 654 -23 c 0,7,8
 515 -23 515 -23 414.5 -3 c 128,-1,9
 314 17 314 17 248 57 c 0,10,11
 105 146 105 146 105 343 c 0,12,13
 105 395 105 395 116 444 c 128,-1,14
 127 493 127 493 151 542 c 0,15,16
 193 630 193 630 224 630 c 0,17,18
 265 630 265 630 265 592 c 0,19,20
 265 589 265 589 259.5 576.5 c 128,-1,21
 254 564 254 564 248 544.5 c 128,-1,22
 242 525 242 525 236.5 501 c 128,-1,23
 231 477 231 477 231 451 c 0,24,25
 231 395 231 395 262 351.5 c 128,-1,26
 293 308 293 308 356 279 c 0,27,28
 412 253 412 253 486 240 c 128,-1,29
 560 227 560 227 652 227 c 0,30,31
 844 227 844 227 987.5 238 c 128,-1,32
 1131 249 1131 249 1228 270 c 0,33,34
 1377 305 1377 305 1377 347 c 0,35,36
 1377 361 1377 361 1373 372 c 128,-1,37
 1369 383 1369 383 1362 393 c 1,38,39
 1303 383 1303 383 1255.5 379 c 128,-1,40
 1208 375 1208 375 1170 375 c 0,41,42
 1119 375 1119 375 1083 379 c 128,-1,43
 1047 383 1047 383 1023 393 c 0,44,45
 948 424 948 424 948 507 c 0,46,47
 948 571 948 571 963.5 635 c 128,-1,48
 979 699 979 699 1008 764 c 0,49,50
 1082 919 1082 919 1193 919 c 0,51,52
 1471 919 1471 919 1471 384 c 0,0,1
1312 581 m 1,53,54
 1308 601 1308 601 1295.5 621.5 c 128,-1,55
 1283 642 1283 642 1266 663 c 0,56,57
 1220 715 1220 715 1168 715 c 0,58,59
 1146 715 1146 715 1126.5 709.5 c 128,-1,60
 1107 704 1107 704 1092 693.5 c 128,-1,61
 1077 683 1077 683 1068.5 667.5 c 128,-1,62
 1060 652 1060 652 1060 633 c 0,63,64
 1060 567 1060 567 1198 567 c 0,65,66
 1275 567 1275 567 1312 581 c 1,53,54
EndSplineSet
Substitution2: "'fina' Terminal Forms in Arabic lookup 3 subtable" afii52258
Substitution2: "'medi' Medial Forms in Arabic lookup 2 subtable" afii57374
Substitution2: "'init' Initial Forms in Arabic lookup 1 subtable" afii57459
EndChar

StartChar: afii57567
Encoding: 1705 1705 219
Width: 1680
GlyphClass: 2
Flags: W
AnchorPoint: "Anchor-1" 645 -555 basechar 0
AnchorPoint: "Anchor-0" 645 1140 basechar 0
LayerCount: 2
Fore
SplineSet
1691 1042 m 1,0,1
 1623 1021 1623 1021 1494 976.5 c 128,-1,2
 1365 932 1365 932 1172 861 c 1,3,-1
 1172 854 l 1,4,5
 1245 778 1245 778 1293.5 718 c 128,-1,6
 1342 658 1342 658 1368 613 c 0,7,8
 1397 559 1397 559 1412.5 496.5 c 128,-1,9
 1428 434 1428 434 1428 365 c 0,10,11
 1428 -23 1428 -23 809 -23 c 2,12,-1
 654 -23 l 2,13,14
 515 -23 515 -23 414.5 -3 c 128,-1,15
 314 17 314 17 248 57 c 0,16,17
 105 146 105 146 105 343 c 0,18,19
 105 395 105 395 116 444 c 128,-1,20
 127 493 127 493 151 542 c 0,21,22
 193 630 193 630 224 630 c 0,23,24
 265 630 265 630 265 592 c 0,25,26
 265 589 265 589 259.5 576.5 c 128,-1,27
 254 564 254 564 248 544.5 c 128,-1,28
 242 525 242 525 236.5 501 c 128,-1,29
 231 477 231 477 231 451 c 0,30,31
 231 395 231 395 262 351.5 c 128,-1,32
 293 308 293 308 356 279 c 0,33,34
 412 253 412 253 486 240 c 128,-1,35
 560 227 560 227 652 227 c 2,36,-1
 854 227 l 2,37,38
 1083 227 1083 227 1209 265 c 0,39,40
 1318 298 1318 298 1321 347 c 0,41,42
 1324 457 1324 457 982 742 c 1,43,-1
 1028 997 l 1,44,-1
 1332 1122 l 1,45,-1
 1741 1284 l 1,46,-1
 1691 1042 l 1,0,1
EndSplineSet
Substitution2: "'fina' Terminal Forms in Arabic lookup 3 subtable" afii62964
Substitution2: "'medi' Medial Forms in Arabic lookup 2 subtable" afii52306
Substitution2: "'init' Initial Forms in Arabic lookup 1 subtable" afii52305
EndChar

StartChar: afii62964
Encoding: 64399 64399 220
Width: 1967
GlyphClass: 2
Flags: W
AnchorPoint: "Anchor-1" 735 -525 basechar 0
AnchorPoint: "Anchor-0" 660 1140 basechar 0
LayerCount: 2
Fore
SplineSet
2013 35 m 1,0,1
 2013 0 2013 0 1972 0 c 2,2,-1
 1897 0 l 2,3,4
 1730 0 1730 0 1502 249 c 2,5,-1
 1431 328 l 1,6,7
 1384 -23 1384 -23 809 -23 c 2,8,-1
 654 -23 l 2,9,10
 515 -23 515 -23 414.5 -3 c 128,-1,11
 314 17 314 17 248 57 c 0,12,13
 105 146 105 146 105 343 c 0,14,15
 105 395 105 395 116 444 c 128,-1,16
 127 493 127 493 151 542 c 0,17,18
 193 630 193 630 224 630 c 0,19,20
 265 630 265 630 265 592 c 0,21,22
 265 589 265 589 259.5 576.5 c 128,-1,23
 254 564 254 564 248 544.5 c 128,-1,24
 242 525 242 525 236.5 501 c 128,-1,25
 231 477 231 477 231 451 c 0,26,27
 231 395 231 395 262 351.5 c 128,-1,28
 293 308 293 308 356 279 c 0,29,30
 412 253 412 253 486 240 c 128,-1,31
 560 227 560 227 652 227 c 2,32,-1
 854 227 l 2,33,34
 1082 227 1082 227 1211 265 c 0,35,36
 1321 295 1321 295 1321 343 c 0,37,38
 1321 458 1321 458 982 742 c 1,39,-1
 1028 997 l 1,40,41
 1089 1026 1089 1026 1175 1060.5 c 128,-1,42
 1261 1095 1261 1095 1371 1137 c 0,43,44
 1511 1191 1511 1191 1618.5 1227 c 128,-1,45
 1726 1263 1726 1263 1806 1284 c 1,46,-1
 1741 1049 l 1,47,48
 1592 1007 1592 1007 1450.5 960 c 128,-1,49
 1309 913 1309 913 1172 859 c 1,50,-1
 1172 850 l 1,51,-1
 1478 535 l 2,52,53
 1618 392 1618 392 1728 320.5 c 128,-1,54
 1838 249 1838 249 1924 249 c 2,55,-1
 1972 249 l 2,56,57
 2013 249 2013 249 2013 215 c 2,58,-1
 2013 35 l 1,59,-1
 2013 35 l 1,0,1
EndSplineSet
EndChar

StartChar: afii52305
Encoding: 64400 64400 221
Width: 767
GlyphClass: 2
Flags: W
AnchorPoint: "Anchor-1" 285 -480 basechar 0
AnchorPoint: "Anchor-0" 210 1185 basechar 0
LayerCount: 2
Fore
SplineSet
347 1099 m 2,0,1
 486 1156 486 1156 609.5 1202.5 c 128,-1,2
 733 1249 733 1249 839 1284 c 1,3,-1
 768 1047 l 1,4,5
 649 1007 649 1007 515.5 960.5 c 128,-1,6
 382 914 382 914 242 859 c 1,7,-1
 242 848 l 1,8,9
 311 779 311 779 361 721.5 c 128,-1,10
 411 664 411 664 443 608 c 128,-1,11
 475 552 475 552 490 490 c 128,-1,12
 505 428 505 428 505 350 c 0,13,14
 505 255 505 255 469.5 188.5 c 128,-1,15
 434 122 434 122 377 80 c 128,-1,16
 320 38 320 38 248.5 19 c 128,-1,17
 177 0 177 0 105 0 c 2,18,-1
 -5 0 l 2,19,20
 -46 0 -46 0 -46 35 c 2,21,-1
 -46 215 l 2,22,23
 -46 249 -46 249 -5 249 c 2,24,-1
 82 249 l 2,25,26
 104 249 104 249 136 251 c 128,-1,27
 168 253 168 253 203 257.5 c 128,-1,28
 238 262 238 262 273 269.5 c 128,-1,29
 308 277 308 277 336 288 c 128,-1,30
 364 299 364 299 381.5 314.5 c 128,-1,31
 399 330 399 330 399 350 c 0,32,33
 399 400 399 400 309.5 499.5 c 128,-1,34
 220 599 220 599 52 742 c 1,35,-1
 99 997 l 1,36,-1
 347 1099 l 2,0,1
EndSplineSet
EndChar

StartChar: afii52306
Encoding: 64401 64401 222
Width: 1036
GlyphClass: 2
Flags: W
AnchorPoint: "Anchor-1" 420 -555 basechar 0
AnchorPoint: "Anchor-0" 240 1275 basechar 0
LayerCount: 2
Fore
SplineSet
105 997 m 1,0,1
 135 1010 135 1010 187.5 1032 c 128,-1,2
 240 1054 240 1054 306 1081 c 128,-1,3
 372 1108 372 1108 448 1137.5 c 128,-1,4
 524 1167 524 1167 600.5 1194.5 c 128,-1,5
 677 1222 677 1222 749.5 1245.5 c 128,-1,6
 822 1269 822 1269 882 1284 c 1,7,-1
 816 1049 l 1,8,9
 749 1030 749 1030 675.5 1007.5 c 128,-1,10
 602 985 602 985 528.5 960 c 128,-1,11
 455 935 455 935 383.5 909.5 c 128,-1,12
 312 884 312 884 248 859 c 1,13,-1
 248 850 l 1,14,-1
 553 535 l 2,15,16
 640 443 640 443 710.5 387 c 128,-1,17
 781 331 781 331 835 300 c 128,-1,18
 889 269 889 269 928.5 259 c 128,-1,19
 968 249 968 249 994 249 c 2,20,-1
 1042 249 l 2,21,22
 1083 249 1083 249 1083 215 c 2,23,-1
 1083 35 l 2,24,25
 1083 0 1083 0 1042 0 c 2,26,-1
 967 0 l 2,27,28
 882 0 882 0 787 62 c 128,-1,29
 692 124 692 124 578 249 c 2,30,-1
 503 328 l 1,31,32
 500 233 500 233 461.5 170 c 128,-1,33
 423 107 423 107 365 69.5 c 128,-1,34
 307 32 307 32 237.5 16 c 128,-1,35
 168 0 168 0 105 0 c 2,36,-1
 -5 0 l 2,37,38
 -46 0 -46 0 -46 35 c 2,39,-1
 -46 215 l 2,40,41
 -46 249 -46 249 -5 249 c 2,42,-1
 96 249 l 2,43,44
 112 249 112 249 140 251 c 128,-1,45
 168 253 168 253 200.5 257.5 c 128,-1,46
 233 262 233 262 267.5 269.5 c 128,-1,47
 302 277 302 277 330 287.5 c 128,-1,48
 358 298 358 298 376.5 311.5 c 128,-1,49
 395 325 395 325 397 343 c 0,50,51
 397 369 397 369 379.5 405.5 c 128,-1,52
 362 442 362 442 321.5 491 c 128,-1,53
 281 540 281 540 216 602 c 128,-1,54
 151 664 151 664 57 742 c 1,55,-1
 105 997 l 1,56,-1
 105 997 l 1,0,1
EndSplineSet
EndChar

StartChar: afii57509
Encoding: 1711 1711 223
Width: 1764
GlyphClass: 2
Flags: W
AnchorPoint: "Anchor-1" 705 -525 basechar 0
AnchorPoint: "Anchor-0" 600 1080 basechar 0
LayerCount: 2
Fore
SplineSet
1767 919 m 1,0,1
 1726 913 1726 913 1671.5 902.5 c 128,-1,2
 1617 892 1617 892 1558 879.5 c 128,-1,3
 1499 867 1499 867 1439.5 853.5 c 128,-1,4
 1380 840 1380 840 1330 828 c 128,-1,5
 1280 816 1280 816 1243 807 c 128,-1,6
 1206 798 1206 798 1191 794 c 1,7,8
 1241 747 1241 747 1284.5 704.5 c 128,-1,9
 1328 662 1328 662 1360 613.5 c 128,-1,10
 1392 565 1392 565 1410 505.5 c 128,-1,11
 1428 446 1428 446 1428 365 c 256,12,13
 1428 284 1428 284 1402 224 c 128,-1,14
 1376 164 1376 164 1331 120.5 c 128,-1,15
 1286 77 1286 77 1226 49.5 c 128,-1,16
 1166 22 1166 22 1097 5.5 c 128,-1,17
 1028 -11 1028 -11 954.5 -17 c 128,-1,18
 881 -23 881 -23 809 -23 c 2,19,-1
 654 -23 l 2,20,21
 522 -23 522 -23 419.5 -4.5 c 128,-1,22
 317 14 317 14 247.5 57 c 128,-1,23
 178 100 178 100 141.5 170 c 128,-1,24
 105 240 105 240 105 343 c 0,25,26
 105 398 105 398 118.5 450 c 128,-1,27
 132 502 132 502 150.5 542 c 128,-1,28
 169 582 169 582 189.5 606 c 128,-1,29
 210 630 210 630 224 630 c 0,30,31
 244 630 244 630 254.5 619 c 128,-1,32
 265 608 265 608 265 592 c 0,33,34
 265 583 265 583 259.5 572 c 128,-1,35
 254 561 254 561 248 545 c 128,-1,36
 242 529 242 529 236.5 506.5 c 128,-1,37
 231 484 231 484 231 451 c 0,38,39
 231 392 231 392 264.5 350 c 128,-1,40
 298 308 298 308 355.5 280.5 c 128,-1,41
 413 253 413 253 489.5 240 c 128,-1,42
 566 227 566 227 652 227 c 2,43,-1
 854 227 l 2,44,45
 978 227 978 227 1066 237.5 c 128,-1,46
 1154 248 1154 248 1210 264.5 c 128,-1,47
 1266 281 1266 281 1292.5 302.5 c 128,-1,48
 1319 324 1319 324 1321 347 c 0,49,50
 1321 366 1321 366 1307.5 391.5 c 128,-1,51
 1294 417 1294 417 1271 447.5 c 128,-1,52
 1248 478 1248 478 1217 511 c 128,-1,53
 1186 544 1186 544 1151.5 577 c 128,-1,54
 1117 610 1117 610 1080.5 641 c 128,-1,55
 1044 672 1044 672 1010 699 c 1,56,-1
 1053 935 l 1,57,58
 1074 941 1074 941 1122.5 954.5 c 128,-1,59
 1171 968 1171 968 1236.5 986.5 c 128,-1,60
 1302 1005 1302 1005 1379.5 1026 c 128,-1,61
 1457 1047 1457 1047 1535.5 1067 c 128,-1,62
 1614 1087 1614 1087 1688.5 1104.5 c 128,-1,63
 1763 1122 1763 1122 1823 1133 c 1,64,-1
 1767 919 l 1,0,1
1763 1232 m 1,65,66
 1711 1221 1711 1221 1648.5 1206 c 128,-1,67
 1586 1191 1586 1191 1520.5 1174.5 c 128,-1,68
 1455 1158 1455 1158 1391 1141 c 128,-1,69
 1327 1124 1327 1124 1272 1108.5 c 128,-1,70
 1217 1093 1217 1093 1175 1080 c 128,-1,71
 1133 1067 1133 1067 1113 1060 c 1,72,-1
 1138 1170 l 1,73,74
 1158 1177 1158 1177 1199.5 1189.5 c 128,-1,75
 1241 1202 1241 1202 1296 1217.5 c 128,-1,76
 1351 1233 1351 1233 1415 1249.5 c 128,-1,77
 1479 1266 1479 1266 1544.5 1282.5 c 128,-1,78
 1610 1299 1610 1299 1673 1314 c 128,-1,79
 1736 1329 1736 1329 1789 1340 c 1,80,-1
 1763 1232 l 1,65,66
EndSplineSet
Substitution2: "'fina' Terminal Forms in Arabic lookup 3 subtable" afii62967
Substitution2: "'medi' Medial Forms in Arabic lookup 2 subtable" afii62966
Substitution2: "'init' Initial Forms in Arabic lookup 1 subtable" afii62965
EndChar

StartChar: afii62967
Encoding: 64403 64403 224
Width: 1967
GlyphClass: 2
Flags: W
AnchorPoint: "Anchor-1" 750 -495 basechar 0
AnchorPoint: "Anchor-0" 675 1110 basechar 0
LayerCount: 2
Fore
SplineSet
1763 1232 m 1,0,1
 1711 1221 1711 1221 1648.5 1206 c 128,-1,2
 1586 1191 1586 1191 1520.5 1174.5 c 128,-1,3
 1455 1158 1455 1158 1391 1141 c 128,-1,4
 1327 1124 1327 1124 1272 1108.5 c 128,-1,5
 1217 1093 1217 1093 1175 1080 c 128,-1,6
 1133 1067 1133 1067 1113 1060 c 1,7,-1
 1138 1170 l 1,8,9
 1158 1177 1158 1177 1199.5 1189.5 c 128,-1,10
 1241 1202 1241 1202 1296 1217.5 c 128,-1,11
 1351 1233 1351 1233 1415 1249.5 c 128,-1,12
 1479 1266 1479 1266 1544.5 1282.5 c 128,-1,13
 1610 1299 1610 1299 1673 1314 c 128,-1,14
 1736 1329 1736 1329 1789 1340 c 1,15,-1
 1763 1232 l 1,0,1
2013 35 m 2,16,17
 2013 0 2013 0 1972 0 c 2,18,-1
 1897 0 l 2,19,20
 1809 0 1809 0 1712.5 62 c 128,-1,21
 1616 124 1616 124 1502 249 c 2,22,-1
 1431 328 l 1,23,24
 1422 254 1422 254 1392 199 c 128,-1,25
 1362 144 1362 144 1316.5 105 c 128,-1,26
 1271 66 1271 66 1213 41.5 c 128,-1,27
 1155 17 1155 17 1089 2.5 c 128,-1,28
 1023 -12 1023 -12 951.5 -17.5 c 128,-1,29
 880 -23 880 -23 809 -23 c 2,30,-1
 654 -23 l 2,31,32
 522 -23 522 -23 419.5 -4.5 c 128,-1,33
 317 14 317 14 247.5 57 c 128,-1,34
 178 100 178 100 141.5 170 c 128,-1,35
 105 240 105 240 105 343 c 0,36,37
 105 398 105 398 118.5 450 c 128,-1,38
 132 502 132 502 150.5 542 c 128,-1,39
 169 582 169 582 189.5 606 c 128,-1,40
 210 630 210 630 224 630 c 0,41,42
 244 630 244 630 254.5 619 c 128,-1,43
 265 608 265 608 265 592 c 0,44,45
 265 583 265 583 259.5 572 c 128,-1,46
 254 561 254 561 248 545 c 128,-1,47
 242 529 242 529 236.5 506.5 c 128,-1,48
 231 484 231 484 231 451 c 0,49,50
 231 392 231 392 264.5 350 c 128,-1,51
 298 308 298 308 355.5 280.5 c 128,-1,52
 413 253 413 253 489.5 240 c 128,-1,53
 566 227 566 227 652 227 c 2,54,-1
 854 227 l 2,55,56
 977 227 977 227 1067.5 237.5 c 128,-1,57
 1158 248 1158 248 1217.5 264.5 c 128,-1,58
 1277 281 1277 281 1305.5 302.5 c 128,-1,59
 1334 324 1334 324 1334 347 c 0,60,61
 1334 372 1334 372 1315.5 404.5 c 128,-1,62
 1297 437 1297 437 1267.5 471.5 c 128,-1,63
 1238 506 1238 506 1201 540.5 c 128,-1,64
 1164 575 1164 575 1128 606 c 128,-1,65
 1092 637 1092 637 1060.5 661 c 128,-1,66
 1029 685 1029 685 1010 699 c 1,67,-1
 1053 935 l 1,68,69
 1074 941 1074 941 1122.5 954.5 c 128,-1,70
 1171 968 1171 968 1236.5 986.5 c 128,-1,71
 1302 1005 1302 1005 1379.5 1026 c 128,-1,72
 1457 1047 1457 1047 1535.5 1067 c 128,-1,73
 1614 1087 1614 1087 1688.5 1104.5 c 128,-1,74
 1763 1122 1763 1122 1823 1133 c 1,75,-1
 1767 919 l 1,76,77
 1727 913 1727 913 1673.5 902.5 c 128,-1,78
 1620 892 1620 892 1561 879.5 c 128,-1,79
 1502 867 1502 867 1443 853.5 c 128,-1,80
 1384 840 1384 840 1333.5 828 c 128,-1,81
 1283 816 1283 816 1246 807 c 128,-1,82
 1209 798 1209 798 1195 794 c 1,83,84
 1263 741 1263 741 1328.5 683.5 c 128,-1,85
 1394 626 1394 626 1452.5 570.5 c 128,-1,86
 1511 515 1511 515 1562 465.5 c 128,-1,87
 1613 416 1613 416 1652 380 c 0,88,89
 1719 318 1719 318 1791 283.5 c 128,-1,90
 1863 249 1863 249 1924 249 c 2,91,-1
 1972 249 l 2,92,93
 2013 249 2013 249 2013 215 c 2,94,-1
 2013 35 l 2,16,17
EndSplineSet
EndChar

StartChar: afii62965
Encoding: 64404 64404 225
Width: 831
GlyphClass: 2
Flags: W
AnchorPoint: "Anchor-1" 270 -510 basechar 0
AnchorPoint: "Anchor-0" 300 1380 basechar 0
LayerCount: 2
Fore
SplineSet
-46 215 m 2,0,1
 -46 249 -46 249 -5 249 c 2,2,-1
 82 249 l 2,3,4
 104 249 104 249 136 251 c 128,-1,5
 168 253 168 253 203 257.5 c 128,-1,6
 238 262 238 262 273 269.5 c 128,-1,7
 308 277 308 277 336 288 c 128,-1,8
 364 299 364 299 381.5 313.5 c 128,-1,9
 399 328 399 328 399 347 c 0,10,11
 399 375 399 375 369.5 418.5 c 128,-1,12
 340 462 340 462 294.5 511 c 128,-1,13
 249 560 249 560 193.5 609.5 c 128,-1,14
 138 659 138 659 87 699 c 1,15,-1
 130 935 l 1,16,17
 151 941 151 941 200 954.5 c 128,-1,18
 249 968 249 968 314.5 986.5 c 128,-1,19
 380 1005 380 1005 457.5 1026 c 128,-1,20
 535 1047 535 1047 613.5 1067 c 128,-1,21
 692 1087 692 1087 766 1104.5 c 128,-1,22
 840 1122 840 1122 900 1133 c 1,23,-1
 844 919 l 1,24,25
 804 913 804 913 749 902.5 c 128,-1,26
 694 892 694 892 635 879.5 c 128,-1,27
 576 867 576 867 516.5 853.5 c 128,-1,28
 457 840 457 840 406.5 828 c 128,-1,29
 356 816 356 816 319 807 c 128,-1,30
 282 798 282 798 268 794 c 1,31,32
 317 748 317 748 360.5 705.5 c 128,-1,33
 404 663 404 663 436 614.5 c 128,-1,34
 468 566 468 566 486.5 506 c 128,-1,35
 505 446 505 446 505 365 c 0,36,37
 505 264 505 264 469.5 194.5 c 128,-1,38
 434 125 434 125 377 81.5 c 128,-1,39
 320 38 320 38 248.5 19 c 128,-1,40
 177 0 177 0 105 0 c 2,41,-1
 -5 0 l 2,42,43
 -46 0 -46 0 -46 35 c 2,44,-1
 -46 215 l 2,0,1
841 1232 m 1,45,46
 789 1221 789 1221 726 1206 c 128,-1,47
 663 1191 663 1191 597.5 1174.5 c 128,-1,48
 532 1158 532 1158 468 1141 c 128,-1,49
 404 1124 404 1124 349 1108.5 c 128,-1,50
 294 1093 294 1093 252 1080 c 128,-1,51
 210 1067 210 1067 190 1060 c 1,52,-1
 217 1170 l 1,53,54
 236 1177 236 1177 277 1189.5 c 128,-1,55
 318 1202 318 1202 372.5 1217.5 c 128,-1,56
 427 1233 427 1233 491.5 1249.5 c 128,-1,57
 556 1266 556 1266 621.5 1282.5 c 128,-1,58
 687 1299 687 1299 750 1314 c 128,-1,59
 813 1329 813 1329 866 1340 c 1,60,-1
 841 1232 l 1,45,46
EndSplineSet
EndChar

StartChar: afii62966
Encoding: 64405 64405 226
Width: 1036
GlyphClass: 2
Flags: W
AnchorPoint: "Anchor-1" 495 -555 basechar 0
AnchorPoint: "Anchor-0" 330 1380 basechar 0
LayerCount: 2
Fore
SplineSet
-46 215 m 2,0,1
 -46 249 -46 249 -5 249 c 2,2,-1
 96 249 l 2,3,4
 111 249 111 249 139.5 251 c 128,-1,5
 168 253 168 253 201.5 257.5 c 128,-1,6
 235 262 235 262 269.5 269.5 c 128,-1,7
 304 277 304 277 332.5 287.5 c 128,-1,8
 361 298 361 298 379 311.5 c 128,-1,9
 397 325 397 325 397 343 c 0,10,11
 397 363 397 363 380.5 391 c 128,-1,12
 364 419 364 419 337.5 452 c 128,-1,13
 311 485 311 485 277 520 c 128,-1,14
 243 555 243 555 208 588.5 c 128,-1,15
 173 622 173 622 139.5 650.5 c 128,-1,16
 106 679 106 679 80 699 c 1,17,-1
 123 935 l 1,18,19
 144 941 144 941 192.5 954.5 c 128,-1,20
 241 968 241 968 306.5 986.5 c 128,-1,21
 372 1005 372 1005 449.5 1026 c 128,-1,22
 527 1047 527 1047 605.5 1067 c 128,-1,23
 684 1087 684 1087 758.5 1104.5 c 128,-1,24
 833 1122 833 1122 893 1133 c 1,25,-1
 837 919 l 1,26,27
 797 913 797 913 743 902.5 c 128,-1,28
 689 892 689 892 630 879.5 c 128,-1,29
 571 867 571 867 512 853.5 c 128,-1,30
 453 840 453 840 402.5 828 c 128,-1,31
 352 816 352 816 315.5 807 c 128,-1,32
 279 798 279 798 265 794 c 1,33,34
 332 741 332 741 397 683 c 128,-1,35
 462 625 462 625 521.5 569.5 c 128,-1,36
 581 514 581 514 632 464.5 c 128,-1,37
 683 415 683 415 722 380 c 0,38,39
 789 318 789 318 861.5 283.5 c 128,-1,40
 934 249 934 249 994 249 c 2,41,-1
 1042 249 l 2,42,43
 1083 249 1083 249 1083 215 c 2,44,-1
 1083 35 l 2,45,46
 1083 0 1083 0 1042 0 c 2,47,-1
 967 0 l 2,48,49
 879 0 879 0 777 64 c 128,-1,50
 675 128 675 128 557 268 c 1,51,-1
 503 328 l 1,52,53
 500 233 500 233 461.5 170 c 128,-1,54
 423 107 423 107 365 69.5 c 128,-1,55
 307 32 307 32 237.5 16 c 128,-1,56
 168 0 168 0 105 0 c 2,57,-1
 -5 0 l 2,58,59
 -46 0 -46 0 -46 35 c 2,60,-1
 -46 215 l 2,0,1
833 1232 m 1,61,62
 781 1221 781 1221 718.5 1206 c 128,-1,63
 656 1191 656 1191 590.5 1174.5 c 128,-1,64
 525 1158 525 1158 461 1141 c 128,-1,65
 397 1124 397 1124 342 1108.5 c 128,-1,66
 287 1093 287 1093 245 1080 c 128,-1,67
 203 1067 203 1067 183 1060 c 1,68,-1
 208 1170 l 1,69,70
 227 1177 227 1177 268.5 1189.5 c 128,-1,71
 310 1202 310 1202 364.5 1217.5 c 128,-1,72
 419 1233 419 1233 483.5 1249.5 c 128,-1,73
 548 1266 548 1266 614 1282.5 c 128,-1,74
 680 1299 680 1299 743 1314 c 128,-1,75
 806 1329 806 1329 859 1340 c 1,76,-1
 833 1232 l 1,61,62
EndSplineSet
EndChar

StartChar: afii57555
Encoding: 1740 1740 227
Width: 1377
GlyphClass: 2
Flags: W
AnchorPoint: "Anchor-1" 585 -960 basechar 0
AnchorPoint: "Anchor-0" 495 780 basechar 0
LayerCount: 2
Fore
SplineSet
1314 455 m 0,0,1
 1314 441 1314 441 1303 441 c 1,2,3
 1305 441 1305 441 1288 447 c 128,-1,4
 1271 453 1271 453 1236 462 c 0,5,6
 1166 484 1166 484 1113 484 c 0,7,8
 994 484 994 484 895 406 c 0,9,10
 807 335 807 335 807 281 c 0,11,12
 807 235 807 235 864 217 c 0,13,14
 890 206 890 206 944 195 c 128,-1,15
 998 184 998 184 1081 171 c 0,16,17
 1175 158 1175 158 1211 114 c 0,18,19
 1249 65 1249 65 1249 -52 c 0,20,21
 1249 -316 1249 -316 992 -430 c 0,22,23
 906 -468 906 -468 804 -487.5 c 128,-1,24
 702 -507 702 -507 581 -507 c 0,25,26
 91 -507 91 -507 91 -112 c 0,27,28
 91 55 91 55 177 231 c 0,29,30
 210 302 210 302 251 302 c 0,31,32
 290 302 290 302 290 263 c 1,33,34
 290 268 290 268 256 167 c 0,35,36
 218 64 218 64 218 -9 c 0,37,38
 218 -146 218 -146 336 -207 c 0,39,40
 386 -232 386 -232 462.5 -245 c 128,-1,41
 539 -258 539 -258 642 -258 c 0,42,43
 732 -258 732 -258 812 -248 c 128,-1,44
 892 -238 892 -238 967 -220 c 0,45,46
 1137 -175 1137 -175 1137 -106 c 0,47,48
 1137 -72 1137 -72 1103 -57 c 0,49,50
 1089 -52 1089 -52 1056 -45.5 c 128,-1,51
 1023 -39 1023 -39 971 -32 c 0,52,53
 830 -11 830 -11 772 16 c 0,54,55
 681 59 681 59 681 146 c 0,56,57
 681 231 681 231 708.5 318.5 c 128,-1,58
 736 406 736 406 794 496 c 0,59,60
 922 699 922 699 1090 699 c 0,61,62
 1203 699 1203 699 1268 591 c 0,63,64
 1291 553 1291 553 1302.5 518.5 c 128,-1,65
 1314 484 1314 484 1314 455 c 0,0,1
EndSplineSet
Substitution2: "'fina' Terminal Forms in Arabic lookup 3 subtable" afii52364
Substitution2: "'medi' Medial Forms in Arabic lookup 2 subtable" afii62832
Substitution2: "'init' Initial Forms in Arabic lookup 1 subtable" uniFBFE
EndChar

StartChar: afii52364
Encoding: 64509 64509 228
Width: 1390
GlyphClass: 2
Flags: W
AnchorPoint: "Anchor-1" 630 -1020 basechar 0
AnchorPoint: "Anchor-0" 540 615 basechar 0
LayerCount: 2
Fore
SplineSet
1437 35 m 1,0,1
 1437 0 1437 0 1396 0 c 0,2,3
 1333 0 1333 0 1269.5 4 c 128,-1,4
 1206 8 1206 8 1140 18 c 0,5,6
 1074 29 1074 29 1029.5 33 c 128,-1,7
 985 37 985 37 958 37 c 0,8,9
 926 37 926 37 900.5 31.5 c 128,-1,10
 875 26 875 26 855 13 c 0,11,12
 820 -9 820 -9 820 -34 c 0,13,14
 820 -67 820 -67 863 -73 c 2,15,-1
 1137 -116 l 2,16,17
 1179 -120 1179 -120 1208 -153 c 0,18,19
 1244 -189 1244 -189 1241 -242 c 0,20,21
 1234 -440 1234 -440 1012 -512 c 0,22,23
 938 -538 938 -538 824 -550 c 128,-1,24
 710 -562 710 -562 553 -562 c 0,25,26
 85 -562 85 -562 82 -217 c 0,27,28
 82 -153 82 -153 105.5 -73.5 c 128,-1,29
 129 6 129 6 177 106 c 0,30,31
 210 177 210 177 249 177 c 256,32,33
 288 177 288 177 288 138 c 1,34,35
 288 143 288 143 258 56 c 0,36,37
 227 -30 227 -30 227 -91 c 0,38,39
 227 -247 227 -247 409 -311 c 0,40,41
 517 -349 517 -349 667 -349 c 0,42,43
 1115 -349 1115 -349 1115 -279 c 0,44,45
 1115 -253 1115 -253 1057 -246 c 2,46,-1
 816 -203 l 2,47,48
 695 -180 695 -180 695 -108 c 0,49,50
 695 -46 695 -46 723 12 c 128,-1,51
 751 70 751 70 805 126 c 0,52,53
 936 261 936 261 1135 261 c 0,54,55
 1146 261 1146 261 1172.5 259.5 c 128,-1,56
 1199 258 1199 258 1239 256 c 0,57,58
 1281 252 1281 252 1320.5 250.5 c 128,-1,59
 1360 249 1360 249 1396 249 c 0,60,61
 1437 249 1437 249 1437 215 c 2,62,-1
 1437 35 l 1,63,-1
 1437 35 l 1,0,1
EndSplineSet
EndChar

StartChar: afii62882
Encoding: 64606 64606 229
Width: 0
GlyphClass: 4
Flags: W
AnchorPoint: "Anchor-2" 0 0 mark 0
AnchorPoint: "Anchor-0" 0 0 mark 0
LayerCount: 2
Fore
SplineSet
137 392 m 1,0,1
 106 392 106 392 78 399 c 1,2,3
 64 373 64 373 36 348 c 128,-1,4
 8 323 8 323 -35 302 c 0,5,6
 -77 283 -77 283 -118 271.5 c 128,-1,7
 -159 260 -159 260 -201 258 c 1,8,9
 -191 296 -191 296 -186 322.5 c 128,-1,10
 -181 349 -181 349 -181 368 c 0,11,12
 -181 423 -181 423 -235 423 c 0,13,14
 -275 423 -275 423 -317 396 c 1,15,16
 -314 454 -314 454 -278 490 c 0,17,18
 -248 524 -248 524 -196 524 c 0,19,20
 -167 524 -167 524 -146 499 c 128,-1,21
 -125 474 -125 474 -125 435 c 0,22,23
 -125 414 -125 414 -127.5 393 c 128,-1,24
 -130 372 -130 372 -135 350 c 1,25,26
 -121 349 -121 349 -104.5 353.5 c 128,-1,27
 -88 358 -88 358 -64 368 c 0,28,29
 -35 377 -35 377 -13.5 390.5 c 128,-1,30
 8 404 8 404 22 420 c 1,31,32
 3 424 3 424 -13.5 433 c 128,-1,33
 -30 442 -30 442 -42.5 454.5 c 128,-1,34
 -55 467 -55 467 -62 481.5 c 128,-1,35
 -69 496 -69 496 -69 511 c 0,36,37
 -69 565 -69 565 -21 619 c 0,38,39
 28 673 28 673 76 673 c 0,40,41
 147 673 147 673 147 569 c 0,42,43
 147 542 147 542 141.5 518.5 c 128,-1,44
 136 495 136 495 126 476 c 1,45,-1
 185 469 l 1,46,-1
 137 392 l 1,0,1
153 188 m 2,47,48
 151 165 151 165 142.5 143.5 c 128,-1,49
 134 122 134 122 119 101 c 0,50,51
 83 56 83 56 41 56 c 0,52,53
 14 56 14 56 -4 66 c 1,54,55
 -51 -5 -51 -5 -110 -5 c 0,56,57
 -185 -5 -185 -5 -185 78 c 0,58,59
 -185 127 -185 127 -160 168 c 0,60,61
 -140 201 -140 201 -108 197 c 1,62,63
 -114 180 -114 180 -116.5 163 c 128,-1,64
 -119 146 -119 146 -119 131 c 0,65,66
 -119 97 -119 97 -96 97 c 0,67,68
 -49 97 -49 97 -25 233 c 1,69,-1
 15 256 l 1,70,71
 12 170 12 170 59 170 c 0,72,73
 98 170 98 170 98 200 c 0,74,75
 98 264 98 264 104 275 c 0,76,77
 111 298 111 298 158 323 c 1,78,-1
 153 188 l 2,47,48
91 530 m 0,79,80
 91 593 91 593 48 593 c 0,81,82
 -4 593 -4 593 -4 556 c 0,83,84
 -4 518 -4 518 84 487 c 1,85,86
 91 509 91 509 91 530 c 0,79,80
EndSplineSet
Ligature2: "'ccmp' Glyph Composition/Decomposition in Arabic lookup 4 subtable" afii57457 afii57452
EndChar

StartChar: afii62883
Encoding: 64607 64607 230
Width: 0
GlyphClass: 4
Flags: W
AnchorPoint: "Anchor-2" 0 0 mark 0
AnchorPoint: "Anchor-0" 0 0 mark 0
LayerCount: 2
Fore
SplineSet
144 541 m 2,0,1
 142 517 142 517 133.5 495.5 c 128,-1,2
 125 474 125 474 110 453 c 0,3,4
 75 409 75 409 32 409 c 0,5,6
 6 409 6 409 -13 418 c 1,7,8
 -47 341 -47 341 -119 341 c 0,9,10
 -194 341 -194 341 -194 425 c 0,11,12
 -194 458 -194 458 -187.5 483 c 128,-1,13
 -181 508 -181 508 -170 523.5 c 128,-1,14
 -159 539 -159 539 -145 545 c 128,-1,15
 -131 551 -131 551 -117 546 c 1,16,17
 -123 529 -123 529 -125.5 513.5 c 128,-1,18
 -128 498 -128 498 -128 483 c 0,19,20
 -128 444 -128 444 -105 444 c 0,21,22
 -59 444 -59 444 -32 578 c 1,23,-1
 7 601 l 1,24,25
 7 522 7 522 50 522 c 0,26,27
 89 522 89 522 89 551 c 0,28,29
 89 622 89 622 103 636 c 0,30,31
 110 643 110 643 121 650.5 c 128,-1,32
 132 658 132 658 149 665 c 1,33,-1
 144 541 l 2,0,1
151 318 m 1,34,-1
 -196 142 l 1,35,-1
 -176 227 l 1,36,-1
 171 405 l 1,37,-1
 151 318 l 1,34,-1
151 179 m 1,38,-1
 -196 2 l 1,39,-1
 -176 88 l 1,40,-1
 171 265 l 1,41,-1
 151 179 l 1,38,-1
EndSplineSet
Ligature2: "'ccmp' Glyph Composition/Decomposition in Arabic lookup 4 subtable" afii57457 afii57453
EndChar

StartChar: afii62884
Encoding: 64608 64608 231
Width: 0
GlyphClass: 4
Flags: W
AnchorPoint: "Anchor-2" 0 0 mark 0
AnchorPoint: "Anchor-0" 0 0 mark 0
LayerCount: 2
Fore
SplineSet
172 443 m 1,0,-1
 -175 267 l 1,1,-1
 -155 352 l 1,2,-1
 192 530 l 1,3,-1
 172 443 l 1,0,-1
167 196 m 2,4,5
 165 172 165 172 156.5 150.5 c 128,-1,6
 148 129 148 129 133 108 c 0,7,8
 96 64 96 64 55 64 c 0,9,10
 26 64 26 64 10 73 c 1,11,12
 -41 2 -41 2 -96 2 c 0,13,14
 -171 2 -171 2 -171 86 c 0,15,16
 -171 109 -171 109 -165.5 131.5 c 128,-1,17
 -160 154 -160 154 -147 176 c 0,18,19
 -127 208 -127 208 -95 204 c 1,20,21
 -106 168 -106 168 -106 138 c 0,22,23
 -106 105 -106 105 -82 105 c 0,24,25
 -32 105 -32 105 -11 247 c 1,26,-1
 28 268 l 1,27,28
 25 177 25 177 73 177 c 0,29,30
 112 177 112 177 112 207 c 0,31,32
 112 272 112 272 117 282 c 0,33,34
 125 305 125 305 172 330 c 1,35,-1
 167 196 l 2,4,5
EndSplineSet
Ligature2: "'ccmp' Glyph Composition/Decomposition in Arabic lookup 4 subtable" afii57457 afii57454
EndChar

StartChar: afii62885
Encoding: 64609 64609 232
Width: 0
GlyphClass: 4
Flags: W
AnchorPoint: "Anchor-2" 0 0 mark 0
AnchorPoint: "Anchor-0" 0 0 mark 0
LayerCount: 2
Fore
SplineSet
172 440 m 1,0,1
 159 399 159 399 124 364 c 1,2,3
 68 375 68 375 55 382 c 1,4,5
 6 322 6 322 -76 293 c 0,6,7
 -136 270 -136 270 -180 270 c 0,8,9
 -209 270 -209 270 -227 277.5 c 128,-1,10
 -245 285 -245 285 -249 300 c 1,11,12
 -166 320 -166 320 -106 345.5 c 128,-1,13
 -46 371 -46 371 -5 403 c 1,14,15
 -96 443 -96 443 -96 501 c 0,16,17
 -96 558 -96 558 -45 612 c 0,18,19
 10 665 10 665 60 665 c 0,20,21
 136 665 136 665 136 571 c 0,22,23
 136 521 136 521 110 455 c 1,24,25
 121 451 121 451 136 448 c 128,-1,26
 151 445 151 445 172 440 c 1,0,1
161 194 m 2,27,28
 159 170 159 170 150.5 149 c 128,-1,29
 142 128 142 128 127 106 c 0,30,31
 92 62 92 62 49 62 c 0,32,33
 36 62 36 62 25 64.5 c 128,-1,34
 14 67 14 67 5 71 c 1,35,36
 -44 0 -44 0 -102 0 c 0,37,38
 -177 0 -177 0 -177 84 c 0,39,40
 -177 133 -177 133 -152 174 c 0,41,42
 -132 208 -132 208 -100 202 c 1,43,44
 -111 166 -111 166 -111 136 c 0,45,46
 -111 103 -111 103 -87 103 c 0,47,48
 -41 103 -41 103 -16 238 c 1,49,-1
 23 261 l 1,50,51
 20 176 20 176 67 176 c 0,52,53
 106 176 106 176 106 206 c 0,54,55
 106 271 106 271 112 280 c 0,56,57
 118 301 118 301 167 329 c 1,58,-1
 161 194 l 2,27,28
73 524 m 0,59,60
 73 585 73 585 34 585 c 0,61,62
 -20 585 -20 585 -20 546 c 0,63,64
 -20 500 -20 500 62 476 c 1,65,66
 73 493 73 493 73 524 c 0,59,60
EndSplineSet
Ligature2: "'ccmp' Glyph Composition/Decomposition in Arabic lookup 4 subtable" afii57457 afii57455
EndChar

StartChar: afii62886
Encoding: 64610 64610 233
Width: 0
GlyphClass: 4
Flags: W
AnchorPoint: "Anchor-2" 0 0 mark 0
AnchorPoint: "Anchor-0" 0 0 mark 0
LayerCount: 2
Fore
SplineSet
157 414 m 2,0,1
 154 367 154 367 123 327 c 0,2,3
 85 281 85 281 45 281 c 0,4,5
 32 281 32 281 21 284 c 128,-1,6
 10 287 10 287 0 291 c 1,7,8
 -48 220 -48 220 -106 220 c 0,9,10
 -181 220 -181 220 -181 304 c 0,11,12
 -181 370 -181 370 -160 400 c 0,13,14
 -133 432 -133 432 -105 432 c 1,15,16
 -110 406 -110 406 -113 387.5 c 128,-1,17
 -116 369 -116 369 -116 356 c 0,18,19
 -116 322 -116 322 -92 322 c 0,20,21
 -71 322 -71 322 -51.5 357 c 128,-1,22
 -32 392 -32 392 -17 462 c 1,23,-1
 22 485 l 1,24,25
 17 440 17 440 28.5 417.5 c 128,-1,26
 40 395 40 395 63 395 c 0,27,28
 102 395 102 395 102 425 c 0,29,30
 102 457 102 457 104 476 c 128,-1,31
 106 495 106 495 108 500 c 0,32,33
 121 528 121 528 162 548 c 1,34,-1
 157 414 l 2,0,1
157 183 m 1,35,-1
 -190 5 l 1,36,-1
 -170 92 l 1,37,-1
 177 268 l 1,38,-1
 157 183 l 1,35,-1
EndSplineSet
Ligature2: "'ccmp' Glyph Composition/Decomposition in Arabic lookup 4 subtable" afii57457 afii57456
EndChar

StartChar: afii62945
Encoding: 65554 -1 234
Width: 1633
GlyphClass: 3
Flags: W
LayerCount: 2
Fore
SplineSet
1567 297 m 0,0,1
 1567 150 1567 150 1491 75 c 0,2,3
 1416 0 1416 0 1284 0 c 0,4,5
 1096 0 1096 0 1016 125 c 1,6,7
 946 0 946 0 777 0 c 0,8,9
 602 0 602 0 544 226 c 1,10,-1
 541 226 l 1,11,-1
 479 142 l 2,12,13
 453 103 453 103 418 103 c 0,14,15
 373 103 373 103 326.5 109.5 c 128,-1,16
 280 116 280 116 226 128 c 0,17,18
 95 159 95 159 95 201 c 0,19,20
 95 374 95 374 222 468 c 0,21,22
 258 494 258 494 314 527.5 c 128,-1,23
 370 561 370 561 448 602 c 1,24,-1
 434 693 l 1,25,-1
 578 833 l 1,26,-1
 647 354 l 2,27,28
 663 229 663 229 805 229 c 0,29,30
 978 229 978 229 978 339 c 0,31,32
 978 345 978 345 978 350.5 c 128,-1,33
 978 356 978 356 976 363 c 2,34,-1
 902 829 l 1,35,-1
 1028 966 l 1,36,-1
 1122 334 l 2,37,38
 1136 229 1136 229 1279 229 c 0,39,40
 1319 229 1319 229 1347 231.5 c 128,-1,41
 1375 234 1375 234 1389 238 c 0,42,43
 1442 258 1442 258 1442 322 c 0,44,45
 1442 336 1442 336 1441 359 c 128,-1,46
 1440 382 1440 382 1435 414 c 2,47,-1
 1357 953 l 1,48,-1
 1504 1077 l 1,49,50
 1506 1063 1506 1063 1514.5 964 c 128,-1,51
 1523 865 1523 865 1542 678 c 0,52,53
 1554 544 1554 544 1560.5 449 c 128,-1,54
 1567 354 1567 354 1567 297 c 0,0,1
479 490 m 1,55,56
 438 476 438 476 400.5 459.5 c 128,-1,57
 363 443 363 443 326 421 c 0,58,59
 237 373 237 373 237 350 c 0,60,61
 237 336 237 336 290 317 c 0,62,63
 314 310 314 310 338 305 c 128,-1,64
 362 300 362 300 386 298 c 0,65,66
 425 294 425 294 459.5 292 c 128,-1,67
 494 290 494 290 523 290 c 1,68,-1
 479 490 l 1,55,56
EndSplineSet
EndChar

StartChar: afii64184
Encoding: 65010 65010 235
Width: 1628
GlyphClass: 3
Flags: W
AnchorPoint: "Anchor-3" 1425 -360 baselig 0
AnchorPoint: "Anchor-2" 1395 1215 baselig 0
AnchorPoint: "Anchor-3" 975 -420 baselig 1
AnchorPoint: "Anchor-2" 975 1035 baselig 1
AnchorPoint: "Anchor-3" 435 -405 baselig 2
AnchorPoint: "Anchor-2" 300 855 baselig 2
LayerCount: 2
Fore
SplineSet
1567 297 m 0,0,1
 1567 150 1567 150 1491 75 c 0,2,3
 1416 0 1416 0 1284 0 c 0,4,5
 1096 0 1096 0 1016 125 c 1,6,7
 946 0 946 0 777 0 c 0,8,9
 602 0 602 0 544 226 c 1,10,-1
 541 226 l 1,11,-1
 479 142 l 2,12,13
 453 103 453 103 418 103 c 0,14,15
 373 103 373 103 326.5 109.5 c 128,-1,16
 280 116 280 116 226 128 c 0,17,18
 95 159 95 159 95 201 c 0,19,20
 95 374 95 374 222 468 c 0,21,22
 258 494 258 494 314 527.5 c 128,-1,23
 370 561 370 561 448 602 c 1,24,-1
 434 693 l 1,25,-1
 578 833 l 1,26,-1
 647 354 l 2,27,28
 663 229 663 229 805 229 c 0,29,30
 978 229 978 229 978 339 c 0,31,32
 978 345 978 345 978 350.5 c 128,-1,33
 978 356 978 356 976 363 c 2,34,-1
 902 829 l 1,35,-1
 1028 966 l 1,36,-1
 1122 334 l 2,37,38
 1136 229 1136 229 1279 229 c 0,39,40
 1319 229 1319 229 1347 231.5 c 128,-1,41
 1375 234 1375 234 1389 238 c 0,42,43
 1442 258 1442 258 1442 322 c 0,44,45
 1442 336 1442 336 1441 359 c 128,-1,46
 1440 382 1440 382 1435 414 c 2,47,-1
 1357 953 l 1,48,-1
 1504 1077 l 1,49,50
 1506 1063 1506 1063 1514.5 964 c 128,-1,51
 1523 865 1523 865 1542 678 c 0,52,53
 1554 544 1554 544 1560.5 449 c 128,-1,54
 1567 354 1567 354 1567 297 c 0,0,1
479 490 m 1,55,56
 438 476 438 476 400.5 459.5 c 128,-1,57
 363 443 363 443 326 421 c 0,58,59
 237 373 237 373 237 350 c 0,60,61
 237 336 237 336 290 317 c 0,62,63
 314 310 314 310 338 305 c 128,-1,64
 362 300 362 300 386 298 c 0,65,66
 425 294 425 294 459.5 292 c 128,-1,67
 494 290 494 290 523 290 c 1,68,-1
 479 490 l 1,55,56
1097 1198 m 2,69,70
 1095 1151 1095 1151 1064 1111 c 0,71,72
 1031 1066 1031 1066 986 1066 c 0,73,74
 973 1066 973 1066 962.5 1068.5 c 128,-1,75
 952 1071 952 1071 941 1076 c 1,76,77
 894 1005 894 1005 835 1005 c 0,78,79
 761 1005 761 1005 761 1088 c 0,80,81
 761 1117 761 1117 767.5 1141.5 c 128,-1,82
 774 1166 774 1166 786 1188 c 0,83,84
 808 1219 808 1219 841 1213 c 1,85,86
 825 1175 825 1175 825 1147 c 0,87,88
 825 1107 825 1107 852 1107 c 0,89,90
 873 1107 873 1107 891.5 1143 c 128,-1,91
 910 1179 910 1179 928 1250 c 1,92,-1
 967 1275 l 1,93,94
 956 1179 956 1179 1006 1179 c 0,95,96
 1046 1179 1046 1179 1046 1209 c 0,97,98
 1046 1275 1046 1275 1049 1289 c 0,99,100
 1054 1303 1054 1303 1067 1314 c 128,-1,101
 1080 1325 1080 1325 1103 1338 c 1,102,-1
 1097 1198 l 2,69,70
964 1431 m 0,103,104
 964 1302 964 1302 893 1299 c 1,105,106
 895 1310 895 1310 896.5 1324 c 128,-1,107
 898 1338 898 1338 898 1355 c 0,108,109
 898 1449 898 1449 850 1556 c 1,110,-1
 919 1647 l 1,111,112
 941 1578 941 1578 952.5 1524 c 128,-1,113
 964 1470 964 1470 964 1431 c 0,103,104
EndSplineSet
Ligature2: "'rlig' Required Ligatures in Arabic lookup 6 subtable" afii62817 afii62818 uni06C1
Ligature2: "'rlig' Required Ligatures in Arabic lookup 5 subtable" afii62817 afii62818 uniFC63 afii62828
Ligature2: "'rlig' Required Ligatures in Arabic lookup 5 subtable" afii62817 afii62818 afii57457 uni0670 afii62828
EndChar

StartChar: afii57415.001
Encoding: 1575 1575 249
Width: 412
GlyphClass: 2
Flags: W
AnchorPoint: "Anchor-1" 225 -465 basechar 0
AnchorPoint: "Anchor-0" 195 1380 basechar 0
LayerCount: 2
Fore
SplineSet
311 265 m 1,0,1
 311 194 311 194 268 69 c 0,2,3
 226 -56 226 -56 199 -56 c 0,4,5
 190 -56 190 -56 181 0 c 0,6,7
 177 32 177 32 169.5 120 c 128,-1,8
 162 208 162 208 151 354 c 2,9,-1
 91 1120 l 1,10,-1
 166 1183 l 2,11,12
 287 1284 287 1284 290 1284 c 0,13,14
 303 1284 303 1284 306 1081 c 2,15,-1
 311 265 l 1,16,-1
 311 265 l 1,0,1
EndSplineSet
Substitution2: "'fina' Terminal Forms in Arabic lookup 3 subtable" afii62760
PairPos2: "'kern' Horizontal Kerning in Arabic lookup 0 subtable" uni06B4.init dx=70 dy=0 dh=0 dv=0 dx=0 dy=0 dh=0 dv=0
PairPos2: "'kern' Horizontal Kerning in Arabic lookup 0 subtable" uni06B4 dx=70 dy=0 dh=70 dv=0 dx=0 dy=0 dh=0 dv=0
PairPos2: "'kern' Horizontal Kerning in Arabic lookup 0 subtable" uniFB98 dx=70 dy=0 dh=0 dv=0 dx=0 dy=0 dh=0 dv=0
PairPos2: "'kern' Horizontal Kerning in Arabic lookup 0 subtable" uni06B3 dx=70 dy=0 dh=70 dv=0 dx=0 dy=0 dh=0 dv=0
PairPos2: "'kern' Horizontal Kerning in Arabic lookup 0 subtable" uni06B2.init dx=70 dy=0 dh=0 dv=0 dx=0 dy=0 dh=0 dv=0
PairPos2: "'kern' Horizontal Kerning in Arabic lookup 0 subtable" uniFB9C dx=70 dy=0 dh=0 dv=0 dx=0 dy=0 dh=0 dv=0
PairPos2: "'kern' Horizontal Kerning in Arabic lookup 0 subtable" uni06B1 dx=70 dy=0 dh=70 dv=0 dx=0 dy=0 dh=0 dv=0
PairPos2: "'kern' Horizontal Kerning in Arabic lookup 0 subtable" uni06B0.init dx=70 dy=0 dh=0 dv=0 dx=0 dy=0 dh=0 dv=0
PairPos2: "'kern' Horizontal Kerning in Arabic lookup 0 subtable" uni06B0 dx=70 dy=0 dh=70 dv=0 dx=0 dy=0 dh=0 dv=0
PairPos2: "'kern' Horizontal Kerning in Arabic lookup 0 subtable" uni06AE.init dx=70 dy=0 dh=70 dv=0 dx=0 dy=0 dh=0 dv=0
PairPos2: "'kern' Horizontal Kerning in Arabic lookup 0 subtable" uniFBD5 dx=70 dy=0 dh=70 dv=0 dx=0 dy=0 dh=0 dv=0
PairPos2: "'kern' Horizontal Kerning in Arabic lookup 0 subtable" uni06AB.init dx=70 dy=0 dh=70 dv=0 dx=0 dy=0 dh=0 dv=0
PairPos2: "'kern' Horizontal Kerning in Arabic lookup 0 subtable" uni06AB.init dx=70 dy=0 dh=70 dv=0 dx=0 dy=0 dh=0 dv=0
PairPos2: "'kern' Horizontal Kerning in Arabic lookup 0 subtable" uni06AB.001 dx=70 dy=0 dh=70 dv=0 dx=0 dy=0 dh=0 dv=0
PairPos2: "'kern' Horizontal Kerning in Arabic lookup 0 subtable" afii57410 dx=70 dy=0 dh=70 dv=0 dx=0 dy=0 dh=0 dv=0
PairPos2: "'kern' Horizontal Kerning in Arabic lookup 0 subtable" afii62965 dx=70 dy=0 dh=0 dv=0 dx=0 dy=0 dh=0 dv=0
PairPos2: "'kern' Horizontal Kerning in Arabic lookup 0 subtable" afii57509 dx=70 dy=0 dh=70 dv=0 dx=0 dy=0 dh=0 dv=0
PairPos2: "'kern' Horizontal Kerning in Arabic lookup 0 subtable" afii52305 dx=70 dy=0 dh=70 dv=0 dx=0 dy=0 dh=0 dv=0
PairPos2: "'kern' Horizontal Kerning in Arabic lookup 0 subtable" afii57567 dx=70 dy=0 dh=70 dv=0 dx=0 dy=0 dh=0 dv=0
EndChar

StartChar: afii62760.001
Encoding: 65555 -1 250
Width: 470
GlyphClass: 2
Flags: W
LayerCount: 2
Fore
SplineSet
518 35 m 1,0,1
 518 0 518 0 482 0 c 2,2,-1
 423 0 l 2,3,4
 357 0 357 0 305 21 c 128,-1,5
 253 42 253 42 215 86 c 0,6,7
 155 157 155 157 155 237 c 0,8,9
 155 303 155 303 150.5 406.5 c 128,-1,10
 146 510 146 510 138 652 c 0,11,12
 127 813 127 813 115.5 929 c 128,-1,13
 104 1045 104 1045 91 1120 c 1,14,-1
 140 1167 l 2,15,16
 260 1284 260 1284 272 1284 c 0,17,18
 283 1284 283 1284 290 1081 c 2,19,-1
 311 382 l 2,20,21
 313 344 313 344 321.5 318 c 128,-1,22
 330 292 330 292 349 276 c 0,23,24
 381 249 381 249 455 249 c 0,25,26
 518 249 518 249 518 215 c 2,27,-1
 518 35 l 1,28,-1
 518 35 l 1,0,1
EndSplineSet
EndChar

StartChar: afii57421
Encoding: 1581 1581 269
Width: 1259
GlyphClass: 2
Flags: W
AnchorPoint: "Anchor-1" 555 -1005 basechar 0
AnchorPoint: "Anchor-0" 675 1110 basechar 0
LayerCount: 2
Fore
SplineSet
1083 438 m 1,0,-1
 1042 438 l 2,1,2
 789 438 789 438 591 336 c 0,3,4
 324 194 324 194 324 -78 c 0,5,6
 324 -218 324 -218 427 -302 c 0,7,8
 556 -410 556 -410 843 -410 c 0,9,10
 897 -410 897 -410 943.5 -407 c 128,-1,11
 990 -404 990 -404 1035 -399 c 0,12,13
 1064 -394 1064 -394 1090.5 -390 c 128,-1,14
 1117 -386 1117 -386 1140 -379 c 0,15,16
 1149 -376 1149 -376 1156 -374 c 128,-1,17
 1163 -372 1163 -372 1168 -370 c 256,18,19
 1173 -368 1173 -368 1178 -367 c 0,20,21
 1191 -367 1191 -367 1191 -382 c 0,22,23
 1191 -396 1191 -396 1138 -436 c 0,24,25
 1105 -462 1105 -462 1066 -483.5 c 128,-1,26
 1027 -505 1027 -505 980 -520 c 0,27,28
 860 -562 860 -562 717 -562 c 0,29,30
 583 -562 583 -562 474.5 -537.5 c 128,-1,31
 366 -513 366 -513 283 -462 c 0,32,33
 91 -348 91 -348 91 -126 c 0,34,35
 91 272 91 272 652 457 c 1,36,-1
 652 466 l 1,37,38
 629 468 629 468 593 473 c 128,-1,39
 557 478 557 478 505 489 c 0,40,41
 458 497 458 497 421 501 c 128,-1,42
 384 505 384 505 358 505 c 0,43,44
 293 505 293 505 249 473 c 0,45,46
 240 466 240 466 226 451 c 128,-1,47
 212 436 212 436 194 416 c 0,48,49
 168 384 168 384 151 384 c 0,50,51
 119 384 119 384 119 421 c 0,52,53
 119 456 119 456 137 501 c 128,-1,54
 155 546 155 546 190 600 c 0,55,56
 276 736 276 736 386 736 c 0,57,58
 482 736 482 736 658 697 c 0,59,60
 833 658 833 658 934 658 c 0,61,62
 957 658 957 658 990 659 c 128,-1,63
 1023 660 1023 660 1068 662 c 2,64,-1
 1197 669 l 1,65,-1
 1083 438 l 1,0,-1
EndSplineSet
Substitution2: "'fina' Terminal Forms in Arabic lookup 3 subtable" afii62776
Substitution2: "'medi' Medial Forms in Arabic lookup 2 subtable" afii62775
Substitution2: "'init' Initial Forms in Arabic lookup 1 subtable" afii62774
EndChar

StartChar: afii62776
Encoding: 65186 65186 270
Width: 1282
GlyphClass: 2
Flags: W
AnchorPoint: "Anchor-1" 600 -1050 basechar 0
AnchorPoint: "Anchor-0" 675 1065 basechar 0
LayerCount: 2
Fore
SplineSet
1329 35 m 1,0,1
 1329 0 1329 0 1288 0 c 2,2,-1
 1138 0 l 2,3,4
 1018 0 1018 0 925 73 c 1,5,6
 814 154 814 154 814 295 c 0,7,8
 814 306 814 306 814 322.5 c 128,-1,9
 814 339 814 339 816 361 c 0,10,11
 818 385 818 385 819 399.5 c 128,-1,12
 820 414 820 414 820 420 c 1,13,14
 693 385 693 385 601.5 338.5 c 128,-1,15
 510 292 510 292 450 235 c 0,16,17
 324 116 324 116 324 -78 c 0,18,19
 324 -218 324 -218 427 -302 c 0,20,21
 556 -410 556 -410 843 -410 c 0,22,23
 912 -410 912 -410 973.5 -405.5 c 128,-1,24
 1035 -401 1035 -401 1090 -391 c 0,25,26
 1186 -378 1186 -378 1181 -373 c 1,27,28
 1191 -376 1191 -376 1191 -382 c 0,29,30
 1191 -400 1191 -400 1152 -436 c 0,31,32
 1124 -462 1124 -462 1087.5 -483.5 c 128,-1,33
 1051 -505 1051 -505 1006 -520 c 0,34,35
 886 -562 886 -562 717 -562 c 0,36,37
 583 -562 583 -562 474.5 -537.5 c 128,-1,38
 366 -513 366 -513 283 -462 c 0,39,40
 91 -348 91 -348 91 -126 c 0,41,42
 91 272 91 272 652 457 c 1,43,-1
 652 466 l 1,44,45
 560 486 560 486 486 495.5 c 128,-1,46
 412 505 412 505 358 505 c 0,47,48
 293 505 293 505 249 473 c 0,49,50
 240 466 240 466 226 451 c 128,-1,51
 212 436 212 436 194 416 c 0,52,53
 168 384 168 384 151 384 c 0,54,55
 119 384 119 384 119 421 c 0,56,57
 119 456 119 456 137 501 c 128,-1,58
 155 546 155 546 190 600 c 0,59,60
 276 736 276 736 386 736 c 0,61,62
 418 736 418 736 485 726 c 128,-1,63
 552 716 552 716 658 695 c 0,64,65
 868 656 868 656 934 656 c 0,66,67
 1009 656 1009 656 1074 659 c 128,-1,68
 1139 662 1139 662 1197 669 c 1,69,-1
 1083 441 l 1,70,71
 1029 441 1029 441 988.5 438.5 c 128,-1,72
 948 436 948 436 919 430 c 1,73,-1
 919 397 l 2,74,75
 919 312 919 312 999 276 c 0,76,77
 1031 263 1031 263 1080 256 c 128,-1,78
 1129 249 1129 249 1197 249 c 2,79,-1
 1288 249 l 2,80,81
 1329 249 1329 249 1329 215 c 2,82,-1
 1329 35 l 1,83,-1
 1329 35 l 1,0,1
EndSplineSet
EndChar

StartChar: afii62774
Encoding: 65187 65187 271
Width: 1216
GlyphClass: 2
Flags: W
AnchorPoint: "Anchor-1" 495 -495 basechar 0
AnchorPoint: "Anchor-0" 630 1035 basechar 0
LayerCount: 2
Fore
SplineSet
1057 288 m 1,0,1
 1047 290 1047 290 1038 290 c 128,-1,2
 1029 290 1029 290 1021 290 c 0,3,4
 954 290 954 290 863 258 c 0,5,6
 761 221 761 221 528 103 c 0,7,8
 323 0 323 0 99 0 c 2,9,-1
 -5 0 l 2,10,11
 -46 0 -46 0 -46 35 c 2,12,-1
 -46 215 l 2,13,14
 -46 249 -46 249 -5 249 c 2,15,-1
 89 249 l 2,16,17
 274 249 274 249 412 279 c 0,18,19
 463 293 463 293 541.5 317.5 c 128,-1,20
 620 342 620 342 729 380 c 1,21,-1
 729 388 l 1,22,23
 478 505 478 505 379 505 c 0,24,25
 316 505 316 505 256 445 c 0,26,27
 200 388 200 388 187 388 c 0,28,29
 151 388 151 388 151 425 c 0,30,31
 151 483 151 483 224 591 c 0,32,33
 315 725 315 725 432 725 c 0,34,35
 466 725 466 725 544 696 c 128,-1,36
 622 667 622 667 747 610 c 0,37,38
 873 552 873 552 968.5 524 c 128,-1,39
 1064 496 1064 496 1133 496 c 2,40,-1
 1183 496 l 1,41,-1
 1057 288 l 1,0,1
EndSplineSet
EndChar

StartChar: afii62775
Encoding: 65188 65188 272
Width: 1243
GlyphClass: 2
Flags: W
AnchorPoint: "Anchor-1" 555 -525 basechar 0
AnchorPoint: "Anchor-0" 570 1020 basechar 0
LayerCount: 2
Fore
SplineSet
1289 35 m 1,0,1
 1289 0 1289 0 1249 0 c 2,2,-1
 1140 0 l 2,3,4
 948 0 948 0 861 103 c 0,5,6
 793 185 793 185 800 315 c 1,7,8
 576 127 576 127 412 64 c 0,9,10
 248 0 248 0 -5 0 c 0,11,12
 -46 0 -46 0 -46 35 c 2,13,-1
 -46 215 l 2,14,15
 -46 249 -46 249 -5 249 c 0,16,17
 230 249 230 249 391 290 c 0,18,19
 484 313 484 313 571.5 352.5 c 128,-1,20
 659 392 659 392 742 450 c 1,21,-1
 742 457 l 1,22,23
 705 468 705 468 655 480.5 c 128,-1,24
 605 493 605 493 541 507 c 0,25,26
 478 521 478 521 437.5 528 c 128,-1,27
 397 535 397 535 382 535 c 0,28,29
 319 535 319 535 259 475 c 0,30,31
 205 418 205 418 190 418 c 0,32,33
 155 418 155 418 155 455 c 0,34,35
 155 514 155 514 227 621 c 0,36,37
 318 754 318 754 436 754 c 0,38,39
 528 754 528 754 658 701 c 0,40,41
 759 657 759 657 859 637 c 128,-1,42
 959 617 959 617 1062 619 c 2,43,-1
 1181 621 l 1,44,-1
 1079 393 l 1,45,46
 1026 399 1026 399 984 399 c 0,47,48
 931 399 931 399 893 380 c 1,49,50
 890 291 890 291 1001 267 c 0,51,52
 1033 259 1033 259 1095 254 c 128,-1,53
 1157 249 1157 249 1249 249 c 0,54,55
 1289 249 1289 249 1289 215 c 2,56,-1
 1289 35 l 1,57,-1
 1289 35 l 1,0,1
EndSplineSet
EndChar

StartChar: afii57423
Encoding: 1583 1583 277
Width: 891
GlyphClass: 2
Flags: W
AnchorPoint: "Anchor-1" 435 -420 basechar 0
AnchorPoint: "Anchor-0" 480 1065 basechar 0
LayerCount: 2
Fore
SplineSet
848 359 m 0,0,1
 848 178 848 178 745 91 c 0,2,3
 635 0 635 0 380 0 c 0,4,5
 101 0 101 0 101 226 c 0,6,7
 101 266 101 266 106.5 301.5 c 128,-1,8
 112 337 112 337 125 369 c 0,9,10
 150 429 150 429 177 429 c 0,11,12
 212 429 212 429 212 363 c 0,13,14
 212 298 212 298 258 274 c 0,15,16
 305 249 305 249 427 249 c 0,17,18
 736 249 736 249 736 336 c 0,19,20
 736 367 736 367 702.5 411.5 c 128,-1,21
 669 456 669 456 600 516 c 0,22,23
 537 570 537 570 481 607.5 c 128,-1,24
 425 645 425 645 375 669 c 1,25,-1
 448 905 l 1,26,27
 618 802 618 802 729 660 c 0,28,29
 848 504 848 504 848 359 c 0,0,1
EndSplineSet
Substitution2: "'fina' Terminal Forms in Arabic lookup 3 subtable" afii62780
PairPos2: "'kern' Horizontal Kerning in Arabic lookup 0 subtable" uni06B50627.isol dx=-50 dy=0 dh=-50 dv=0 dx=0 dy=0 dh=0 dv=0
PairPos2: "'kern' Horizontal Kerning in Arabic lookup 0 subtable" uni06B8.init dx=-50 dy=0 dh=-50 dv=0 dx=0 dy=0 dh=0 dv=0
PairPos2: "'kern' Horizontal Kerning in Arabic lookup 0 subtable" uni06B7.init dx=-50 dy=0 dh=-50 dv=0 dx=0 dy=0 dh=0 dv=0
PairPos2: "'kern' Horizontal Kerning in Arabic lookup 0 subtable" uni06B6.init dx=-50 dy=0 dh=-50 dv=0 dx=0 dy=0 dh=0 dv=0
PairPos2: "'kern' Horizontal Kerning in Arabic lookup 0 subtable" uni06B5.init dx=-50 dy=0 dh=-50 dv=0 dx=0 dy=0 dh=0 dv=0
PairPos2: "'kern' Horizontal Kerning in Arabic lookup 0 subtable" uni06B4.init dx=-100 dy=0 dh=-100 dv=0 dx=0 dy=0 dh=0 dv=0
PairPos2: "'kern' Horizontal Kerning in Arabic lookup 0 subtable" uni06B4 dx=-100 dy=0 dh=-100 dv=0 dx=0 dy=0 dh=0 dv=0
PairPos2: "'kern' Horizontal Kerning in Arabic lookup 0 subtable" uniFB98 dx=-100 dy=0 dh=-100 dv=0 dx=0 dy=0 dh=0 dv=0
PairPos2: "'kern' Horizontal Kerning in Arabic lookup 0 subtable" uni06B3 dx=-100 dy=0 dh=-100 dv=0 dx=0 dy=0 dh=0 dv=0
PairPos2: "'kern' Horizontal Kerning in Arabic lookup 0 subtable" uni06B2.init dx=-100 dy=0 dh=-100 dv=0 dx=0 dy=0 dh=0 dv=0
PairPos2: "'kern' Horizontal Kerning in Arabic lookup 0 subtable" uniFB9C dx=-100 dy=0 dh=-100 dv=0 dx=0 dy=0 dh=0 dv=0
PairPos2: "'kern' Horizontal Kerning in Arabic lookup 0 subtable" uni06B1 dx=-100 dy=0 dh=-100 dv=0 dx=0 dy=0 dh=0 dv=0
PairPos2: "'kern' Horizontal Kerning in Arabic lookup 0 subtable" uni06B0.init dx=-100 dy=0 dh=-100 dv=0 dx=0 dy=0 dh=0 dv=0
PairPos2: "'kern' Horizontal Kerning in Arabic lookup 0 subtable" uni06B0 dx=-100 dy=0 dh=-100 dv=0 dx=0 dy=0 dh=0 dv=0
PairPos2: "'kern' Horizontal Kerning in Arabic lookup 0 subtable" uni06AE.init dx=-100 dy=0 dh=-100 dv=0 dx=0 dy=0 dh=0 dv=0
PairPos2: "'kern' Horizontal Kerning in Arabic lookup 0 subtable" uni06AE dx=-50 dy=0 dh=-50 dv=0 dx=0 dy=0 dh=0 dv=0
PairPos2: "'kern' Horizontal Kerning in Arabic lookup 0 subtable" uniFBD5 dx=-100 dy=0 dh=-100 dv=0 dx=0 dy=0 dh=0 dv=0
PairPos2: "'kern' Horizontal Kerning in Arabic lookup 0 subtable" uni06AD dx=-50 dy=0 dh=-50 dv=0 dx=0 dy=0 dh=0 dv=0
PairPos2: "'kern' Horizontal Kerning in Arabic lookup 0 subtable" uni06AB.init dx=-100 dy=0 dh=-100 dv=0 dx=0 dy=0 dh=0 dv=0
PairPos2: "'kern' Horizontal Kerning in Arabic lookup 0 subtable" uni06AB dx=-50 dy=0 dh=-50 dv=0 dx=0 dy=0 dh=0 dv=0
PairPos2: "'kern' Horizontal Kerning in Arabic lookup 0 subtable" uni06AB.init dx=-100 dy=0 dh=-100 dv=0 dx=0 dy=0 dh=0 dv=0
PairPos2: "'kern' Horizontal Kerning in Arabic lookup 0 subtable" uni06AB.001 dx=-100 dy=0 dh=-100 dv=0 dx=0 dy=0 dh=0 dv=0
PairPos2: "'kern' Horizontal Kerning in Arabic lookup 0 subtable" afii62840 dx=-50 dy=0 dh=-50 dv=0 dx=0 dy=0 dh=0 dv=0
PairPos2: "'kern' Horizontal Kerning in Arabic lookup 0 subtable" afii62838 dx=-50 dy=0 dh=-50 dv=0 dx=0 dy=0 dh=0 dv=0
PairPos2: "'kern' Horizontal Kerning in Arabic lookup 0 subtable" afii62836 dx=-50 dy=0 dh=-50 dv=0 dx=0 dy=0 dh=0 dv=0
PairPos2: "'kern' Horizontal Kerning in Arabic lookup 0 subtable" afii62834 dx=-50 dy=0 dh=-50 dv=0 dx=0 dy=0 dh=0 dv=0
PairPos2: "'kern' Horizontal Kerning in Arabic lookup 0 subtable" afii62817 dx=-50 dy=0 dh=-50 dv=0 dx=0 dy=0 dh=0 dv=0
PairPos2: "'kern' Horizontal Kerning in Arabic lookup 0 subtable" afii57410 dx=-100 dy=0 dh=-100 dv=0 dx=0 dy=0 dh=0 dv=0
PairPos2: "'kern' Horizontal Kerning in Arabic lookup 0 subtable" afii57443 dx=-50 dy=0 dh=-50 dv=0 dx=0 dy=0 dh=0 dv=0
PairPos2: "'kern' Horizontal Kerning in Arabic lookup 0 subtable" afii62965 dx=-100 dy=0 dh=-100 dv=0 dx=0 dy=0 dh=0 dv=0
PairPos2: "'kern' Horizontal Kerning in Arabic lookup 0 subtable" afii57509 dx=-100 dy=0 dh=-100 dv=0 dx=0 dy=0 dh=0 dv=0
PairPos2: "'kern' Horizontal Kerning in Arabic lookup 0 subtable" afii52305 dx=-100 dy=0 dh=-100 dv=0 dx=0 dy=0 dh=0 dv=0
PairPos2: "'kern' Horizontal Kerning in Arabic lookup 0 subtable" afii57567 dx=-100 dy=0 dh=-100 dv=0 dx=0 dy=0 dh=0 dv=0
EndChar

StartChar: afii62780
Encoding: 65194 65194 278
Width: 1047
GlyphClass: 2
Flags: W
AnchorPoint: "Anchor-1" 405 -420 basechar 0
AnchorPoint: "Anchor-0" 585 1110 basechar 0
LayerCount: 2
Fore
SplineSet
1094 35 m 1,0,1
 1094 0 1094 0 1053 0 c 0,2,3
 930 0 930 0 854 62 c 0,4,5
 827 82 827 82 802.5 116.5 c 128,-1,6
 778 151 778 151 754 197 c 1,7,8
 629 0 629 0 380 0 c 0,9,10
 101 0 101 0 101 226 c 0,11,12
 101 266 101 266 106.5 301.5 c 128,-1,13
 112 337 112 337 125 369 c 0,14,15
 150 429 150 429 177 429 c 0,16,17
 212 429 212 429 212 363 c 0,18,19
 212 298 212 298 258 274 c 0,20,21
 305 249 305 249 427 249 c 0,22,23
 479 249 479 249 523.5 256.5 c 128,-1,24
 568 264 568 264 610 278 c 0,25,26
 688 308 688 308 688 338 c 0,27,28
 688 375 688 375 669 420 c 2,29,-1
 539 733 l 1,30,-1
 667 905 l 1,31,-1
 854 393 l 2,32,33
 868 352 868 352 884.5 325.5 c 128,-1,34
 901 299 901 299 921 283 c 0,35,36
 963 252 963 252 1053 249 c 0,37,38
 1094 249 1094 249 1094 215 c 2,39,-1
 1094 35 l 1,40,-1
 1094 35 l 1,0,1
EndSplineSet
PairPos2: "'kern' Horizontal Kerning in Arabic lookup 0 subtable" uni06B50627.isol dx=-50 dy=0 dh=-50 dv=0 dx=0 dy=0 dh=0 dv=0
PairPos2: "'kern' Horizontal Kerning in Arabic lookup 0 subtable" uni06B8.init dx=-50 dy=0 dh=-50 dv=0 dx=0 dy=0 dh=0 dv=0
PairPos2: "'kern' Horizontal Kerning in Arabic lookup 0 subtable" uni06B7.init dx=-50 dy=0 dh=-50 dv=0 dx=0 dy=0 dh=0 dv=0
PairPos2: "'kern' Horizontal Kerning in Arabic lookup 0 subtable" uni06B6.init dx=-50 dy=0 dh=-50 dv=0 dx=0 dy=0 dh=0 dv=0
PairPos2: "'kern' Horizontal Kerning in Arabic lookup 0 subtable" uni06B5.init dx=-50 dy=0 dh=-50 dv=0 dx=0 dy=0 dh=0 dv=0
PairPos2: "'kern' Horizontal Kerning in Arabic lookup 0 subtable" uni06B4.init dx=-150 dy=0 dh=-150 dv=0 dx=0 dy=0 dh=0 dv=0
PairPos2: "'kern' Horizontal Kerning in Arabic lookup 0 subtable" uni06B4 dx=-150 dy=0 dh=-150 dv=0 dx=0 dy=0 dh=0 dv=0
PairPos2: "'kern' Horizontal Kerning in Arabic lookup 0 subtable" uniFB98 dx=-150 dy=0 dh=-150 dv=0 dx=0 dy=0 dh=0 dv=0
PairPos2: "'kern' Horizontal Kerning in Arabic lookup 0 subtable" uni06B3 dx=-150 dy=0 dh=-150 dv=0 dx=0 dy=0 dh=0 dv=0
PairPos2: "'kern' Horizontal Kerning in Arabic lookup 0 subtable" uni06B2.init dx=-150 dy=0 dh=-150 dv=0 dx=0 dy=0 dh=0 dv=0
PairPos2: "'kern' Horizontal Kerning in Arabic lookup 0 subtable" uniFB9C dx=-150 dy=0 dh=-150 dv=0 dx=0 dy=0 dh=0 dv=0
PairPos2: "'kern' Horizontal Kerning in Arabic lookup 0 subtable" uni06B1 dx=-150 dy=0 dh=-150 dv=0 dx=0 dy=0 dh=0 dv=0
PairPos2: "'kern' Horizontal Kerning in Arabic lookup 0 subtable" uni06B0.init dx=-150 dy=0 dh=-150 dv=0 dx=0 dy=0 dh=0 dv=0
PairPos2: "'kern' Horizontal Kerning in Arabic lookup 0 subtable" uni06B0 dx=-150 dy=0 dh=-150 dv=0 dx=0 dy=0 dh=0 dv=0
PairPos2: "'kern' Horizontal Kerning in Arabic lookup 0 subtable" uni06AE.init dx=-150 dy=0 dh=-150 dv=0 dx=0 dy=0 dh=0 dv=0
PairPos2: "'kern' Horizontal Kerning in Arabic lookup 0 subtable" uni06AE dx=-50 dy=0 dh=-50 dv=0 dx=0 dy=0 dh=0 dv=0
PairPos2: "'kern' Horizontal Kerning in Arabic lookup 0 subtable" uniFBD5 dx=-150 dy=0 dh=-150 dv=0 dx=0 dy=0 dh=0 dv=0
PairPos2: "'kern' Horizontal Kerning in Arabic lookup 0 subtable" uni06AD dx=-50 dy=0 dh=-50 dv=0 dx=0 dy=0 dh=0 dv=0
PairPos2: "'kern' Horizontal Kerning in Arabic lookup 0 subtable" uni06AB.init dx=-150 dy=0 dh=-150 dv=0 dx=0 dy=0 dh=0 dv=0
PairPos2: "'kern' Horizontal Kerning in Arabic lookup 0 subtable" uni06AB dx=-50 dy=0 dh=-50 dv=0 dx=0 dy=0 dh=0 dv=0
PairPos2: "'kern' Horizontal Kerning in Arabic lookup 0 subtable" uni06AB.init dx=-150 dy=0 dh=-150 dv=0 dx=0 dy=0 dh=0 dv=0
PairPos2: "'kern' Horizontal Kerning in Arabic lookup 0 subtable" uni06AB.001 dx=-150 dy=0 dh=-150 dv=0 dx=0 dy=0 dh=0 dv=0
PairPos2: "'kern' Horizontal Kerning in Arabic lookup 0 subtable" afii62840 dx=-50 dy=0 dh=-50 dv=0 dx=0 dy=0 dh=0 dv=0
PairPos2: "'kern' Horizontal Kerning in Arabic lookup 0 subtable" afii62838 dx=-50 dy=0 dh=-50 dv=0 dx=0 dy=0 dh=0 dv=0
PairPos2: "'kern' Horizontal Kerning in Arabic lookup 0 subtable" afii62836 dx=-50 dy=0 dh=-50 dv=0 dx=0 dy=0 dh=0 dv=0
PairPos2: "'kern' Horizontal Kerning in Arabic lookup 0 subtable" afii62834 dx=-50 dy=0 dh=-50 dv=0 dx=0 dy=0 dh=0 dv=0
PairPos2: "'kern' Horizontal Kerning in Arabic lookup 0 subtable" afii62817 dx=-50 dy=0 dh=-50 dv=0 dx=0 dy=0 dh=0 dv=0
PairPos2: "'kern' Horizontal Kerning in Arabic lookup 0 subtable" afii57410 dx=-150 dy=0 dh=-150 dv=0 dx=0 dy=0 dh=0 dv=0
PairPos2: "'kern' Horizontal Kerning in Arabic lookup 0 subtable" afii57443 dx=-50 dy=0 dh=-50 dv=0 dx=0 dy=0 dh=0 dv=0
PairPos2: "'kern' Horizontal Kerning in Arabic lookup 0 subtable" afii62965 dx=-150 dy=0 dh=-150 dv=0 dx=0 dy=0 dh=0 dv=0
PairPos2: "'kern' Horizontal Kerning in Arabic lookup 0 subtable" afii57509 dx=-150 dy=0 dh=-150 dv=0 dx=0 dy=0 dh=0 dv=0
PairPos2: "'kern' Horizontal Kerning in Arabic lookup 0 subtable" afii52305 dx=-150 dy=0 dh=-150 dv=0 dx=0 dy=0 dh=0 dv=0
PairPos2: "'kern' Horizontal Kerning in Arabic lookup 0 subtable" afii57567 dx=-150 dy=0 dh=-150 dv=0 dx=0 dy=0 dh=0 dv=0
EndChar

